<?xml version="1.0" encoding="UTF-8"?>
<svg id="Ebene_2" data-name="Ebene 2" xmlns="http://www.w3.org/2000/svg" xmlns:xlink="http://www.w3.org/1999/xlink" viewBox="0 0 290.71 300.15">
  <defs>
    <style>
      .cls-1 {
        fill: #9cd2f3;
      }

      .cls-2 {
        fill: #a4d5cc;
      }

      .cls-3 {
        fill: #b4dee0;
      }

      .cls-4 {
        fill: #fff;
      }

      .cls-5 {
        fill: #f7e652;
      }

      .cls-6 {
        fill: #29817e;
      }

      .cls-7 {
        opacity: .5;
      }

      .cls-8 {
        clip-path: url(#clippath-2);
      }

      .cls-9 {
        fill: #bf7968;
      }

      .cls-10 {
        fill: #11242e;
      }

      .cls-11 {
        fill: #e2f0eb;
      }

      .cls-12 {
        fill: #fbbb37;
      }

      .cls-13 {
        clip-path: url(#clippath-1);
      }

      .cls-14 {
        fill: #2a566e;
      }

      .cls-15 {
        fill: #7fc7ef;
      }

      .cls-16 {
        fill: #a65852;
      }

      .cls-17 {
        clip-path: url(#clippath);
      }

      .cls-18 {
        fill: none;
      }

      .cls-19 {
        fill: #0b3d4c;
      }

      .cls-20 {
        fill: #f49f8b;
      }

      .cls-21 {
        fill: #52bbaf;
      }
    </style>
    <clipPath id="clippath">
      <rect class="cls-18" width="290.71" height="300.15"/>
    </clipPath>
    <clipPath id="clippath-1">
      <rect class="cls-18" width="290.71" height="300.15"/>
    </clipPath>
    <clipPath id="clippath-2">
      <rect class="cls-18" x="94.91" y="136.58" width="50.19" height="50.19"/>
    </clipPath>
  </defs>
  <g id="Ebene_1-2" data-name="Ebene 1">
    <g class="cls-17">
      <g id="Gruppe_438" data-name="Gruppe 438">
        <path id="Pfad_438" data-name="Pfad 438" class="cls-10" d="m118.14,110.99l-.96-.68,27.13-38.51,28.13,34.88-.92.74-27.16-33.67-26.24,37.23Z"/>
        <rect id="Rechteck_68" data-name="Rechteck 68" class="cls-10" x="143.93" width="1.17" height="71"/>
        <g id="Gruppe_437" data-name="Gruppe 437">
          <g class="cls-13">
            <g id="Gruppe_436" data-name="Gruppe 436">
              <path id="Pfad_439" data-name="Pfad 439" class="cls-10" d="m147.32,73.15c0,1.55-1.26,2.81-2.81,2.81-1.55,0-2.81-1.26-2.81-2.81,0-1.55,1.26-2.81,2.81-2.81h0c1.55,0,2.81,1.25,2.81,2.8h0"/>
              <path id="Pfad_440" data-name="Pfad 440" class="cls-21" d="m0,291.22c0,4.93,65.08,8.93,145.36,8.93s145.36-4,145.36-8.93-65.08-8.93-145.36-8.93S0,286.29,0,291.22"/>
              <path id="Pfad_441" data-name="Pfad 441" class="cls-21" d="m233.66,147.2c-6.01-3.63-13.58-6.49-20.87-3.82-5.92,2.17-13.11,6.14-11.09,13.52,2.3,8.09,8.85,14.27,17.07,16.09,5.59,1.32,11.4,1.37,17.02.17,5.1-1.17,10.2-2.34,15.3-3.51.39-.09.63-.48.53-.87-.02-.08-.06-.16-.1-.24-3.15-3.77-6.05-7.74-8.69-11.88-2.27-3.83-5.4-7.08-9.16-9.47"/>
              <path id="Pfad_442" data-name="Pfad 442" class="cls-11" d="m251.06,169.12c-3.27-.89-6.47-2.01-9.58-3.34-.25-.12-.5-.24-.75-.36.65.71,1.29,1.43,1.9,2.17.79.92,1.39,1.98,1.79,3.12.12.39-.45.65-.58.26-.39-1.13-.99-2.17-1.77-3.07-.89-1.07-1.84-2.08-2.77-3.13-.04-.04-.06-.08-.07-.14-2.12-1.18-4.13-2.53-6.26-3.69-2.29-1.23-4.68-2.3-7.13-3.18.27,2.96,2.7,5.41,4.47,7.62,1.07,1.34,2.15,2.68,3.22,4.03.82,1.03,1.66,2.11,1.58,3.5-.02.41-.65.33-.63-.07.09-1.64-1.49-3.08-2.43-4.27-1.1-1.38-2.21-2.76-3.31-4.14-1.63-2.04-3.38-4.21-3.54-6.91-3.58-1.28-7.26-2.29-10.92-3.28-1.2-.33-2.41-.65-3.62-.95,2.56,8.1,7.73,15.12,14.7,19.96.33.23-.04.74-.38.51-7.19-5-12.48-12.27-15.03-20.65-2.48-.63-5.01-1-7.57-1.11-.41-.01-.34-.64.07-.63.95.03,1.89.11,2.82.22.01-.01.03-.03.05-.04,3.5-2.15,7.27-3.82,11.21-4.99,3.94-1.16,8.56-2.32,12.61-1.16.39.11.16.7-.23.58-2.16-.52-4.42-.55-6.59-.09-1.96.31-3.9.75-5.8,1.32-3.59,1.08-7.04,2.59-10.26,4.51,1.29.2,2.57.47,3.84.77.11-.06.25-.03.32.08.68.16,1.35.34,2.02.51,1.38.36,2.76.73,4.13,1.12,2.82-1.42,5.83-2.42,8.94-2.98,3.5-.62,7.01-1.15,10.51-1.73.17-.02.33.1.35.28.02.16-.09.31-.25.34-3.39.56-6.78,1.08-10.16,1.67-2.93.51-5.78,1.41-8.47,2.68,1.62.45,3.24.93,4.85,1.44,1.01.32,2.01.65,3,1.01.15-.05.32,0,.41.15,1.9.68,3.76,1.47,5.58,2.34,0,0,.02,0,.03,0,2.06-.14,3.81-1.27,5.74-1.89,2.02-.54,4.14-.52,6.15.05.39.08.33.71-.07.62-1.04-.27-2.11-.43-3.18-.49-1.08-.01-2.15.18-3.16.57-1.46.66-2.96,1.21-4.51,1.64,2.77,1.46,5.33,3.28,8.12,4.69,3.49,1.63,7.12,2.95,10.84,3.95.39.11.15.7-.23.58"/>
              <path id="Pfad_443" data-name="Pfad 443" class="cls-21" d="m234.97,121.23c3.72-4.5,6.24-9.86,7.32-15.6,1.13-6.25.77-12.82.4-19.31-.06-1.02-1.14-1.86-1.89-1.16-3.37,3.16-8.32,2.31-12.69,2.2-3.58-.12-7.17-.05-10.74.22-7.18.6-14.24,2.38-20.13,6.49-3.18,2.25-5.88,5.11-7.95,8.42-1.04,1.29-1.98,2.66-2.8,4.1-4.39,7.79-6.03,18.53-2.6,28.03,1.71,4.74,5.44,5.01,9.48,5.49,5.19.62,10.45.29,15.52-.97,10.38-2.63,19.27-9.45,26.07-17.92"/>
              <path id="Pfad_444" data-name="Pfad 444" class="cls-11" d="m211.24,137.46c-2.77-2.21-6.41-3-9.86-2.16-1.91.52-3.89.69-5.86.5-1.94-.31-3.85-.81-5.7-1.5,2.12-3.21,4.44-6.28,6.94-9.2.07-.08.13-.15.2-.22,9.61-.34,17.78,6.29,27.34,6.51.7.02.78-1.06.08-1.08-9.24-.21-17.18-6.43-26.41-6.52,3.18-3.26,6.72-6.16,10.53-8.64,1.28-.86,2.56-1.7,3.85-2.54,2.56.31,4.88,1.38,7.31,2.15,2.09.68,4.29.97,6.48.86,4.45-.23,8.72-1.71,13.17-1.91.69-.03.78-1.11.08-1.08-4.37.19-8.55,1.58-12.91,1.89-2.5.15-5-.22-7.36-1.08-1.78-.69-3.59-1.26-5.44-1.7,4.3-2.81,8.6-5.62,12.67-8.75,5.94-.19,12.32-.73,16.41-5.61.45-.54-.45-1.16-.89-.63-3.48,4.17-8.93,4.88-14.07,5.1,1.52-1.21,3.01-2.48,4.45-3.82,3.95-3.62,7.39-7.76,10.21-12.31.36-.59-.52-1.22-.89-.62-4.03,6.62-9.53,12.06-15.58,16.82-.24.01-.45.18-.51.41-.64.5-1.29.99-1.94,1.47-.08-1.64.03-3.28.31-4.9.74-3.62,1.83-7.15,3.27-10.55.09-.29-.07-.59-.35-.68-.27-.09-.57.05-.67.32-2.04,5.3-4.06,10.8-3.59,16.56-.51.37-1.03.75-1.55,1.11-2.92,2.05-5.97,3.96-8.98,5.9-.02,0-.04.02-.06.04-1.62,1.04-3.22,2.09-4.8,3.18-1.28-4.09-.04-8.34,1.26-12.27,1.43-4.28,2.57-8.44,2.57-12.99,0-.7-1.08-.78-1.08-.08.01,2.53-.29,5.06-.89,7.52-.6,2.4-1.5,4.71-2.23,7.07-1.15,3.72-1.82,7.63-.56,11.4-3.34,2.29-6.44,4.92-9.24,7.86-1.72,1.88-3.35,3.86-4.85,5.92-2.72-4.3-1.42-9.68-.28-14.3,1.22-4.88,1.81-9.59.69-14.55-.16-.68-1.22-.49-1.07.2.62,2.69.8,5.46.52,8.21-.47,3-1.1,5.96-1.9,8.89-.92,4.19-1.13,8.79,1.36,12.48-1.66,2.3-3.24,4.67-4.81,7.03-.38.58.5,1.21.89.62.56-.84,1.12-1.69,1.69-2.53,3.39,1.14,6.9,2.22,10.51,1.54,1.93-.36,3.74-.93,5.73-.69,1.9.24,3.7,1.02,5.18,2.25.54.44,1.17-.45.63-.89"/>
              <path id="Pfad_445" data-name="Pfad 445" class="cls-21" d="m30.65,288.27s8.34-12.36,3.02-17.09c-3.26-2.9-4.85,6.39-4.85,6.39,0,0-1.85-17.74-7.86-14-2.94,1.83,3.23,18.19,3.23,18.19,0,0-4.39-8.51-7.85-6.17-5.59,3.77,7.74,12.55,7.74,12.55l6.57.13Z"/>
              <path id="Pfad_446" data-name="Pfad 446" class="cls-11" d="m27.47,288.2l-4.31-20.09c-.02-.11.06-.22.18-.23.1-.01.2.05.23.15l4.33,20.18h-.42Z"/>
              <path id="Pfad_447" data-name="Pfad 447" class="cls-11" d="m25.18,288.16l-7.94-9.65c-.07-.09-.06-.22.03-.29s.22-.06.29.03l8.16,9.92h-.54Z"/>
              <path id="Pfad_448" data-name="Pfad 448" class="cls-11" d="m28.94,288.23l3.26-14.72c.02-.11.13-.18.24-.16,0,0,0,0,0,0,.11.02.18.13.15.25h0s-3.24,14.64-3.24,14.64h-.42Z"/>
              <path id="Pfad_449" data-name="Pfad 449" class="cls-21" d="m260.42,288.79s-9.79-17.91-3.29-20.19c4.29-1.51,5.69,15.25,5.69,15.25,0,0,.38-18.58,6.08-16.2,4.3,1.79-1.44,15.2-1.44,15.2,0,0,6.24-5.06,7.02-1.88,1.25,5.05-5.93,7.91-5.93,7.91l-8.13-.09Z"/>
              <path id="Pfad_450" data-name="Pfad 450" class="cls-4" d="m262.44,288.82l-4.74-14.85c-.02-.08.03-.17.11-.19.08-.02.15.02.18.1l4.77,14.94h-.33Z"/>
              <path id="Pfad_451" data-name="Pfad 451" class="cls-4" d="m263.67,288.83l3.4-16.18c.02-.08.1-.14.18-.12,0,0,0,0,0,0,.08.02.14.1.12.19,0,0,0,0,0,0l-3.38,16.13h-.32Z"/>
              <path id="Pfad_452" data-name="Pfad 452" class="cls-4" d="m265.41,288.85l6.45-5.55c.07-.06.16-.05.22.02.06.06.05.16-.02.22,0,0,0,0,0,0l-6.18,5.32h-.47Z"/>
              <path id="Pfad_453" data-name="Pfad 453" class="cls-21" d="m46.09,177.8c-3.4,4.99-7.12,9.75-11.13,14.26-.29.4-.2.95.2,1.23.09.06.18.11.29.14,6.22,1.63,12.44,3.26,18.66,4.89,6.85,1.69,14,1.84,20.92.44,9.77-2.01,18.42-8.83,21.58-19.12,2.76-8.98-5.93-14.14-13.11-17.03-8.86-3.55-18.27-.34-25.79,3.9-4.89,2.75-8.41,6.65-11.61,11.29"/>
              <path id="Pfad_454" data-name="Pfad 454" class="cls-11" d="m35.49,192.79c4.04-.98,8.02-2.23,11.89-3.75.32-.13.63-.28.94-.42-.82.85-1.64,1.7-2.42,2.59-1,1.1-1.79,2.38-2.31,3.77-.17.47.53.81.7.34.52-1.37,1.29-2.63,2.29-3.7,1.14-1.27,2.34-2.49,3.52-3.73.05-.04.08-.1.09-.17,2.65-1.36,5.17-2.95,7.84-4.3,2.86-1.43,5.83-2.65,8.87-3.64-.45,3.64-3.53,6.55-5.78,9.2-1.37,1.61-2.73,3.22-4.1,4.83-1.05,1.24-2.13,2.53-2.08,4.24.01.49.79.44.78-.06-.06-2.02,1.94-3.73,3.15-5.15l4.22-4.96c2.08-2.45,4.32-5.05,4.62-8.35,4.44-1.43,9.01-2.53,13.53-3.62,1.49-.36,2.98-.71,4.49-1.03-3.45,9.85-10.07,18.28-18.81,23.97-.42.27.02.9.44.64,9.02-5.87,15.8-14.6,19.25-24.79,3.07-.68,6.2-1.04,9.34-1.08.5,0,.44-.77-.06-.77-1.16,0-2.32.06-3.47.17-.02-.02-.04-.03-.06-.05-4.22-2.77-8.79-4.97-13.59-6.55-4.79-1.57-10.43-3.18-15.45-1.9-.48.12-.22.85.27.73,2.68-.55,5.44-.51,8.1.14,2.4.46,4.76,1.07,7.08,1.84,4.37,1.46,8.55,3.45,12.44,5.93-1.58.19-3.17.47-4.74.8-.14-.08-.31-.04-.4.08-.84.17-1.67.36-2.5.55-1.71.4-3.41.8-5.12,1.21-3.41-1.85-7.07-3.2-10.87-4-4.27-.9-8.56-1.69-12.84-2.53-.21-.04-.41.1-.45.31s.1.41.31.45h0c4.14.82,8.28,1.58,12.42,2.44,3.58.73,7.04,1.94,10.29,3.6-2.01.5-4.01,1.02-6,1.58-1.25.35-2.49.73-3.73,1.13-.19-.07-.4,0-.51.16-2.36.77-4.68,1.66-6.94,2.66-.01,0-.02,0-.03,0-2.52-.25-4.63-1.71-6.97-2.54-2.46-.74-5.07-.8-7.56-.17-.48.09-.43.87.06.77,1.29-.29,2.61-.45,3.93-.48,1.33.03,2.64.3,3.86.82,1.76.87,3.6,1.6,5.48,2.18-3.46,1.68-6.67,3.82-10.15,5.45-4.35,1.88-8.85,3.36-13.46,4.44-.48.13-.22.86.26.73"/>
              <path id="Pfad_455" data-name="Pfad 455" class="cls-21" d="m156.92,287.9s-14.09-26.49-2.64-26.21c4.71.12,8.77,21.18,8.77,21.18,0,0-.92-19.22,8.49-16.2,5.09,1.63-2.61,16.2-2.61,16.2,0,0,6.98-9.41,10.9-6.74,6.4,4.35-5.34,11.84-5.34,11.84l-17.57-.07Z"/>
              <path id="Pfad_456" data-name="Pfad 456" class="cls-21" d="m150.74,287.87s-2.48-14.02-7.94-13.78c-3.9.18-.38,9.67,2.93,13.77,0,0,4.86,0,5.01,0"/>
              <path id="Pfad_457" data-name="Pfad 457" class="cls-11" d="m160.34,287.91l-5.87-20.76c-.04-.14-.18-.22-.32-.18,0,0,0,0,0,0-.14.04-.22.18-.19.32,0,0,0,0,0,0l5.83,20.61h.55Z"/>
              <path id="Pfad_458" data-name="Pfad 458" class="cls-11" d="m165.2,287.93l4.07-16.8c.03-.14-.05-.28-.19-.32-.14-.03-.28.05-.32.19l-4.09,16.92h.54Z"/>
              <path id="Pfad_459" data-name="Pfad 459" class="cls-11" d="m148.17,287.86l-3.75-9.37c-.05-.13-.2-.2-.34-.15-.13.05-.2.21-.15.34l3.68,9.17h.57Z"/>
              <path id="Pfad_460" data-name="Pfad 460" class="cls-11" d="m169.51,287.95l7.39-8.33c.09-.11.08-.28-.03-.37-.11-.09-.27-.08-.37.02l-7.7,8.68h.7Z"/>
              <path id="Pfad_461" data-name="Pfad 461" class="cls-19" d="m214.89,158.6l-.14-9.3c-.02-1.65-1.38-2.96-3.03-2.94,0,0,0,0,0,0l-3.64.05c-1.74,0-3.23-1.24-3.53-2.95-.68-3.51-1.67-6.95-2.96-10.29-.69-1.69,0-3.63,1.6-4.49l4.22-2.24c1.46-.77,2.01-2.58,1.24-4.03,0,0,0,0,0,0l-4.35-8.21c-.77-1.46-2.58-2.01-4.03-1.24,0,0,0,0,0,0l-5.5,2.92c-1.46.76-3.26.42-4.34-.83-2.46-2.76-5.17-5.29-8.1-7.55-1.37-1.02-1.81-2.87-1.07-4.4l2.69-5.45c.73-1.48.12-3.27-1.35-4,0,0,0,0,0,0l-8.34-4.11c-1.48-.73-3.27-.12-4,1.35,0,0,0,0,0,0l-2.44,4.96c-.8,1.59-2.65,2.35-4.34,1.79-2.65-.83-5.36-1.47-8.1-1.93-1.73-.25-3.02-1.72-3.06-3.46l-.07-5.07c-.02-1.65-1.38-2.96-3.03-2.94l-9.3.14c-1.65.02-2.96,1.38-2.94,3.02l.08,5.08c.01,1.74-1.24,3.24-2.96,3.54-3.26.62-6.47,1.51-9.59,2.67-1.68.66-3.59-.04-4.45-1.62l-2.53-4.78c-.77-1.46-2.58-2.01-4.03-1.24,0,0,0,0,0,0l-8.21,4.35c-1.45.77-2.01,2.58-1.24,4.03l3.09,5.82c.77,1.49.41,3.31-.87,4.39-2.3,1.99-4.44,4.14-6.41,6.45-1.05,1.27-2.83,1.66-4.31.94l-5.03-2.49c-1.48-.73-3.27-.12-3.99,1.36l-4.12,8.34c-.73,1.48-.12,3.27,1.35,4,0,0,0,0,0,0l3.65,1.8c1.64.82,2.38,2.75,1.73,4.46-1.25,3.47-2.18,7.04-2.78,10.68-.25,1.72-1.71,3.01-3.44,3.05l-4.16.06c-1.65.02-2.96,1.38-2.94,3.02l.14,9.3c.02,1.65,1.38,2.96,3.03,2.94h0s4.15-.06,4.15-.06c1.74-.01,3.24,1.24,3.54,2.95.6,3.13,1.45,6.21,2.55,9.21.65,1.68-.05,3.58-1.63,4.44l-3.42,1.81c-1.46.77-2.01,2.58-1.24,4.03l4.35,8.21c.77,1.46,2.58,2.01,4.03,1.24l4.33-2.29c1.5-.78,3.33-.41,4.41.89,2.55,2.97,5.37,5.68,8.44,8.1,1.35,1.03,1.79,2.87,1.05,4.41l-2.75,5.57c-.73,1.48-.12,3.27,1.35,4,0,0,0,0,0,0l8.34,4.11c1.48.73,3.27.12,4-1.35,0,0,0,0,0,0l2.42-4.92c.8-1.6,2.66-2.36,4.36-1.78,2.8.9,5.67,1.59,8.58,2.07,1.73.25,3.02,1.71,3.06,3.46l.07,5.03c.02,1.65,1.38,2.96,3.03,2.94,0,0,0,0,0,0l9.3-.14c1.65-.02,2.96-1.38,2.94-3.02l-.07-5.03c0-1.75,1.24-3.25,2.96-3.55,3.64-.71,7.21-1.75,10.66-3.12,1.7-.71,3.67-.02,4.55,1.6l2.01,3.78c.77,1.46,2.57,2.01,4.03,1.24,0,0,0,0,0,0l8.21-4.36c1.45-.77,2.01-2.58,1.24-4.03l-2.76-5.2c-.76-1.46-.42-3.24.81-4.33,2.31-2.11,4.46-4.39,6.42-6.83,1.04-1.33,2.86-1.75,4.37-1.02l4.39,2.17c1.48.73,3.27.12,4-1.35,0,0,0,0,0,0l4.11-8.34c.73-1.48.12-3.27-1.36-3.99l-3.47-1.71c-1.61-.81-2.36-2.69-1.76-4.39,1.01-3.03,1.77-6.13,2.28-9.28.25-1.72,1.71-3.01,3.45-3.06l3.63-.05c1.65-.02,2.96-1.38,2.94-3.03,0,0,0,0,0,0"/>
              <path id="Pfad_462" data-name="Pfad 462" class="cls-3" d="m180.46,147.5c-1.51-.02-3.02.1-4.52.36-1.06-4.59-3.15-8.87-6.11-12.54,1.22-1.08,2.37-2.25,3.44-3.48.48-.69.32-1.63-.36-2.12-.69-.47-1.62-.31-2.12.36-.93,1.05-1.93,2.04-3,2.95-3.14-3.2-6.92-5.7-11.1-7.33.94-1.25,1.73-2.61,2.35-4.05.78-1.8-2.07-2.87-2.84-1.08-.65,1.49-1.52,2.88-2.57,4.12-4.1-1.13-8.4-1.4-12.61-.81-.32-1.45-.58-2.9-.79-4.37-.27-1.94-3.26-1.43-3,.51.21,1.49.47,2.96.8,4.43-4.58,1.09-8.85,3.2-12.5,6.17-.1-.15-.22-.29-.36-.4-1.19-.96-2.27-2.06-3.21-3.26-1.21-1.54-3.54.41-2.33,1.95,1.08,1.37,2.32,2.61,3.68,3.71-3.31,3.27-5.86,7.23-7.46,11.6-1.91-.55-3.86-.97-5.83-1.26-1.94-.28-2.24,2.75-.31,3.02,1.77.26,3.51.63,5.23,1.12-.88,3.36-1.18,6.84-.91,10.31-.12-.01-.25-.01-.37,0l-4.92.51c-1.94.2-1.43,3.2.51,3l4.92-.51c.08,0,.16-.03.23-.05.79,4.58,2.59,8.92,5.27,12.72-.02.02-.04.03-.06.05-1.37,1.32-2.73,2.65-4.1,3.97-1.4,1.35.54,3.7,1.95,2.33,1.36-1.32,2.73-2.64,4.09-3.95,2.56,2.96,5.64,5.42,9.1,7.25-.91,1.62-1.68,3.31-2.3,5.07-.64,1.85,2.2,2.93,2.84,1.07.58-1.68,1.32-3.3,2.2-4.85,4.4,1.83,9.17,2.62,13.92,2.32.31,1.25.53,2.52.67,3.8.2,1.95,3.19,1.43,2.99-.51-.13-1.22-.34-2.44-.63-3.64.07-.01.14-.02.22-.03,4.75-.8,9.24-2.67,13.14-5.49l3.13,3.18c.55.62,1.49.71,2.14.19.64-.54.72-1.49.19-2.14l-3.08-3.13c3.73-3.29,6.63-7.42,8.46-12.04l4.53,1.42c1.86.58,2.94-2.26,1.08-2.84-1.55-.49-3.09-.97-4.64-1.45,1.2-4.16,1.53-8.51.95-12.8,1.21-.22,2.43-.33,3.66-.33,1.94.01,2.27-3.01.31-3.02"/>
              <path id="Pfad_463" data-name="Pfad 463" class="cls-4" d="m144.95,134.49c.32,1.92-.97,3.73-2.89,4.05-1.92.32-3.73-.97-4.05-2.89-.32-1.92.97-3.73,2.89-4.05,1.92-.32,3.73.97,4.06,2.89,0,0,0,0,0,0"/>
              <path id="Pfad_464" data-name="Pfad 464" class="cls-4" d="m152.31,174.37c.32,1.92-.97,3.73-2.89,4.05s-3.73-.97-4.05-2.89c-.32-1.92.97-3.73,2.89-4.05,1.92-.32,3.73.97,4.05,2.89,0,0,0,0,0,0"/>
              <path id="Pfad_465" data-name="Pfad 465" class="cls-4" d="m165.94,154.69c-1.92.3-3.72-1.01-4.02-2.93-.3-1.92,1.01-3.72,2.93-4.02,1.92-.3,3.72,1.01,4.02,2.93,0,0,0,0,0,0,.3,1.92-1.01,3.72-2.93,4.02"/>
              <path id="Pfad_466" data-name="Pfad 466" class="cls-4" d="m125.74,161.46c-1.92.3-3.72-1.01-4.02-2.93s1.01-3.72,2.93-4.02c1.92-.3,3.72,1.01,4.02,2.93,0,0,0,0,0,0,.3,1.92-1.01,3.72-2.92,4.02,0,0,0,0,0,0"/>
              <path id="Pfad_467" data-name="Pfad 467" class="cls-4" d="m126.83,147.33c-1.76-.83-2.51-2.93-1.68-4.69s2.93-2.51,4.69-1.68,2.51,2.93,1.68,4.69c0,0,0,0,0,0-.83,1.76-2.93,2.51-4.69,1.68"/>
              <path id="Pfad_468" data-name="Pfad 468" class="cls-4" d="m160.44,141.2c-1.34,1.41-3.56,1.47-4.98.14-1.41-1.34-1.47-3.56-.14-4.98,1.34-1.41,3.56-1.47,4.98-.14,0,0,0,0,0,0,1.41,1.34,1.47,3.56.14,4.97"/>
              <path id="Pfad_469" data-name="Pfad 469" class="cls-4" d="m130.79,172.6c-1.76-.83-2.51-2.93-1.68-4.69s2.93-2.51,4.69-1.68,2.51,2.93,1.68,4.69c0,0,0,0,0,0-.83,1.76-2.93,2.51-4.68,1.68,0,0,0,0,0,0"/>
              <path id="Pfad_470" data-name="Pfad 470" class="cls-4" d="m164.97,166.76c-1.34,1.41-3.56,1.47-4.98.13-1.41-1.34-1.47-3.56-.13-4.98,1.34-1.41,3.56-1.47,4.98-.14,1.41,1.34,1.47,3.56.14,4.98"/>
              <path id="Pfad_471" data-name="Pfad 471" class="cls-5" d="m203.63,224.13c3.49.01,6.97-.2,10.44-.64,1.83-.12,3.6-.69,5.16-1.66.93-.7,3.82-4.73,4.08-5.12l3.6,5.35c-1.25,1.64-2.59,3.22-4.02,4.71-2.15,1.87-5.87,1.81-8.03,1.9-1.46.06-9.52-.08-12.12-1.17.56-1.03.87-2.18.91-3.36"/>
              <rect id="Rechteck_69" data-name="Rechteck 69" class="cls-6" x="186.87" y="179.7" width="11.26" height="70.89" transform="translate(-83.1 129.17) rotate(-30.85)"/>
              <path id="Pfad_472" data-name="Pfad 472" class="cls-6" d="m165.39,161.63l6.55,10.97c.34.57.15,1.3-.41,1.64,0,0,0,0,0,0l-5.12,3.06c-.56.34-1.3.15-1.64-.41,0,0,0,0,0,0l-6.55-10.96c-.34-.57-1.08-.75-1.64-.41-.15.09-.27.21-.37.35-4.44,6.43-2.83,15.25,3.6,19.69,6.43,4.44,15.25,2.83,19.69-3.6,4.44-6.43,2.83-15.25-3.6-19.69-2.81-1.94-6.22-2.8-9.61-2.42-.66.07-1.13.66-1.06,1.32.02.17.07.34.16.48"/>
              <path id="Pfad_473" data-name="Pfad 473" class="cls-6" d="m223.78,259.38l-6.55-10.97c-.34-.57-1.07-.75-1.64-.41l-5.12,3.06c-.57.34-.75,1.07-.41,1.64,0,0,0,0,0,0l6.55,10.97c.34.57.15,1.3-.42,1.64-.15.09-.31.14-.48.16-7.77.86-14.76-4.74-15.63-12.5-.86-7.77,4.74-14.76,12.5-15.63,7.77-.86,14.76,4.74,15.63,12.5.38,3.39-.48,6.8-2.42,9.6-.38.54-1.12.68-1.67.31-.14-.1-.26-.22-.35-.37"/>
              <path id="Pfad_474" data-name="Pfad 474" class="cls-2" d="m205.86,237.51h0c-.7.42-1.61.19-2.03-.51,0,0,0,0,0,0l-27.48-46.01c-.41-.71-.17-1.62.54-2.03.7-.41,1.59-.18,2.01.51l27.48,46.01c.42.7.19,1.61-.51,2.03"/>
              <path id="Pfad_475" data-name="Pfad 475" class="cls-9" d="m223.01,279.18l-5.58-2.07c.28-.62.54-1.26.78-1.9.77-2.22,1.41-4.49,1.9-6.79.53-2.19.81-4.44.82-6.69-.05-1.21-.01-2.42.12-3.62.14-.92.41-1.81.8-2.66l8.69,1.14c-.67,1.53-2.1,4.85-2.15,6.54-.03.92-.02,1.83-.13,2.74-.11.88-.28,1.76-.51,2.62-.95,3.63-2.78,6.96-4.52,10.25-.07.14-.15.28-.23.43"/>
              <path id="Pfad_476" data-name="Pfad 476" class="cls-1" d="m217.35,277.08c.14-.57.29-1.15.44-1.72,2.05.9,4.17,1.66,6.32,2.27,0,0-.36.75-.8,1.66l-5.97-2.21Z"/>
              <path id="Pfad_477" data-name="Pfad 477" class="cls-10" d="m206.64,285.83c.41-.6,1.06-1.01,1.78-1.13,1.35-.33,5.08-.04,5.56-.23.87-.45,1.5-1.26,1.72-2.22.63-1.9,1.09-3.87,1.62-5.81,2,1.15,4.19,1.94,6.47,2.31l-2.28,4.88c-.39.79-.73,1.6-.99,2.44-.19.75-.34,1.5-.44,2.27-.1.76-.26,1.52-.48,2.25-.04.13-.14.39-.14.39-.62.29-1.66-.14-2.16-.35-1.2-.59-2.43-1.1-3.69-1.55-1.68-.5-3.4-.84-5.06-1.38-.55-.17-1.08-.39-1.58-.66-.4-.26-.54-.79-.31-1.22"/>
              <path id="Pfad_478" data-name="Pfad 478" class="cls-9" d="m195.73,230.07c.23,0,.45,0,.68,0-.07.01-.13.02-.2.03-.19.04-.73.04-.82.3-.11.3.31.36.5.39.53.13,1.07.21,1.61.24.57-.06,1.13-.18,1.67-.36.57-.1,1.14-.16,1.71-.18,1.22-.06,2.69-.49,3.79.24.26-.6,1.06-3.42,1.04-3.42-.4-.05-.81-.09-1.22-.09-.44-.04-.87-.13-1.29-.27-.76-.28-1.47-.7-2.08-1.23-.43-.41-.96-.69-1.54-.81-.35-.05-.7-.07-1.05-.07-.2,0-.63-.05-.8.1-.3.27.14.61.38.71.14.05.28.09.42.12.05.01.31.06.33.11-.03.13-.07.25-.09.38-.05.01-.11.02-.16.04-.37.12-.74.2-1.13.24-.85.17-1.7.29-2.55.41-.28.04-.87.08-.64.51.07.12.17.22.3.27-.34.02-.83.14-.78.51.02.16.17.23.31.27.26.08.54.13.81.19.29.08.58.12.87.14.26,0,.52-.03.78-.07.31-.03.62-.04.93-.05-.69.33-1.45.5-2.22.51-.26-.01-1.22-.24-1.15.31.07.56,1.21.53,1.59.55"/>
              <path id="Pfad_479" data-name="Pfad 479" class="cls-9" d="m242.25,277.52l-5.93.47c-.01-.68-.03-1.37-.09-2.05-.23-2.34-.61-4.67-1.13-6.97-.43-2.21-1.12-4.37-2.06-6.42-.56-1.07-1.03-2.19-1.41-3.34-.26-.89-.39-1.82-.39-2.75l8.44-.66c-.08,1.66.17,3.33.73,4.89.36.84.75,1.67,1.03,2.54.27.85.49,1.72.64,2.59.66,3.69.4,7.49.2,11.2,0,.16-.02.32-.03.48"/>
              <path id="Pfad_480" data-name="Pfad 480" class="cls-1" d="m236.23,277.99c-.11-.58-.22-1.16-.32-1.74,2.24-.04,4.48-.24,6.69-.59,0,0-.01.82-.03,1.84l-6.35.5Z"/>
              <path id="Pfad_481" data-name="Pfad 481" class="cls-10" d="m230.18,290.42c.12-.72.53-1.36,1.14-1.77,1.09-.86,4.59-2.17,4.95-2.54.6-.78.83-1.78.63-2.73-.23-1.99-.64-3.97-.96-5.95,2.3.21,4.62,0,6.84-.62,0,0-.01,3.59-.02,5.39-.03.88.01,1.76.12,2.63.14.76.33,1.51.56,2.24.23.73.4,1.49.51,2.25.01.14.03.42.03.42-.44.52-1.57.57-2.11.59-1.34-.03-2.67.02-4,.14-1.73.25-3.44.67-5.18.87-.57.08-1.14.1-1.71.06-.48-.07-.82-.49-.8-.97"/>
              <path id="Pfad_482" data-name="Pfad 482" class="cls-5" d="m204.06,227.1c3.49.01,6.97-.2,10.43-.64,1.83-.11,3.61-.69,5.16-1.66,1.34-1.35,2.57-2.82,3.66-4.38l4.01,4.6c-1.25,1.64-2.59,3.21-4.02,4.71-2.16,1.88-5.87,1.81-8.03,1.9-1.46.06-9.52-.08-12.12-1.17.56-1.03.87-2.18.9-3.36"/>
              <path id="Pfad_483" data-name="Pfad 483" class="cls-9" d="m234.82,203.4c.18-.8.33-1.33.33-1.33-.74-.21-1.29-.83-1.39-1.59,0-.02-.23-6.85-2.5-7.36-2.69-.6-4.01-.01-4.85,2.58-.27.81-.86,1.48-1.63,1.86-.16.12-.18.35-.06.5.06.08.15.13.26.14l.39.07c.09.02.15.1.14.19-.1.71-.12,1.44-.04,2.15.2,1.55-.17,3.1,2.45,3.36.31.03.61.04.9.04l-1.35,5.05c.82,1.35,4.43-.47,5.38-.65.78-.18,1.55-.45,2.27-.81-.16-1.53-.58-2.97-.3-4.2"/>
              <path id="Pfad_484" data-name="Pfad 484" class="cls-10" d="m235.49,205.42c.38.24.79.41,1.22.52.81.18,1.64-.18,2.06-.89.41-.65.52-1.44.31-2.18-.2-1.01-.98-1.81-2-2.02,0,0,2.22-1.36,2.1-5.06-.14-3.84-3.37-6.84-7.21-6.7-1.5.05-2.95.6-4.12,1.54-.34.52-.52,1.13-.5,1.75-.16,1.14.35,2.26,1.29,2.91.35.23.8.36,1.04.71s.17.81.27,1.21c.26.76.64,1.49,1.11,2.14.39.78.71,1.6.95,2.44.26.65.66,1.24,1.16,1.73.6.6,1.25,1.14,1.94,1.64.12.09.25.18.37.26"/>
              <path id="Pfad_485" data-name="Pfad 485" class="cls-5" d="m236.7,225.46c-.57-1.95-.05-3.96.32-5.89.37-1.72.59-3.46.66-5.21.04-2.7-.66-5.63-2.65-7.55-1.17.53-2.38.95-3.63,1.27-1.21.09-2.42.05-3.62-.12-2.43,3.05-2.56,3.85-3.93,7.29-.01.03-1.35,2.45-1.31,8.01,0,.99.06,1.99.17,2.97.18,1.58.41,3.17.44,4.77,0,1.76-.13,3.52-.42,5.26-1.09,6.75-2.56,13.43-4.39,20.01-.03.11,13.92,1.1,16.55,1.33,4.88.43,6.22-.12,10.63-1.98-.72-9.31-8.37-28.59-8.82-30.14"/>
              <path id="Pfad_486" data-name="Pfad 486" class="cls-12" d="m222.79,221.36c1.41-1.62,2.74-3.31,3.97-5.06.66-.9,1.37-1.77,2.12-2.59.71-.87,1.66-1.51,2.74-1.84,1.21-.38,2.52.21,3.03,1.38.02.07.13.04.1-.03-.31-.81-1.04-1.39-1.9-1.52-1.04-.11-2.08.2-2.89.87-.91.75-1.73,1.61-2.43,2.57-.73.92-1.41,1.86-2.11,2.81-.84,1.17-1.74,2.28-2.7,3.35-.05.05.03.13.08.08"/>
              <path id="Pfad_487" data-name="Pfad 487" class="cls-12" d="m223.19,229.93c1.95-1.3,3.88-2.63,5.7-4.1,1.87-1.44,3.54-3.11,5-4.96.82-.95,1.21-2.19,1.1-3.44-.01-.07-.11-.04-.1.03.1,1.22-.29,2.43-1.09,3.35-.71.92-1.48,1.79-2.32,2.59-1.62,1.56-3.36,2.98-5.2,4.27-1.04.75-2.09,1.46-3.15,2.17-.06.04,0,.13.05.09"/>
              <path id="Pfad_488" data-name="Pfad 488" class="cls-19" d="m73.13,272.55c-.4-1.21-1.08-2.31-1.99-3.22-1.74-1.95-3.59-3.81-5.53-5.56h-13.09c.4,1.04.98,2,1.7,2.84.65.71,1.39,1.35,2.18,1.89.82.57,1.62,1.19,2.38,1.85.19.17.37.34.56.51-1.94.68-4.12,2.56-5.98,3.46l.62,6.32c1.58-.2,10.21-1.99,11.72-2.48,1.21-.12,2.42-.31,3.61-.57,1.35-.36,2.56-1.1,3.5-2.13.5-.88.62-1.93.32-2.9"/>
              <path id="Pfad_489" data-name="Pfad 489" class="cls-15" d="m86.45,256.18c-2.85.39-12.65.86-13.98.73-.03-.08-3.31-10.92-7.88-14.47-3.12,2.01-1.85,10.81-1.85,10.81.37.94.89,2.42,1.29,3.34.2.66.65,1.22,1.25,1.56.8.44,1.67.76,2.57.94.99.22,1.97.52,2.91.9.94.4,1.87.83,2.83,1.2,1.17.44,2.39.73,3.62.88,1,.08,10.04-1.85,10.04-1.94-.15-1.34-.42-2.66-.82-3.95"/>
              <g id="Gruppe_435" data-name="Gruppe 435" class="cls-7">
                <g id="Gruppe_434" data-name="Gruppe 434">
                  <g class="cls-8">
                    <g id="Gruppe_433" data-name="Gruppe 433">
                      <path id="Pfad_490" data-name="Pfad 490" class="cls-4" d="m143.46,170.6c-4.93,12.95-19.42,19.46-32.37,14.53-12.95-4.93-19.46-19.42-14.53-32.37,4.93-12.95,19.42-19.46,32.37-14.53,12.95,4.93,19.46,19.42,14.53,32.37,0,0,0,0,0,0"/>
                    </g>
                  </g>
                </g>
              </g>
              <rect id="Rechteck_71" data-name="Rechteck 71" class="cls-14" x="86.61" y="200.01" width="35.45" height="5.79" transform="translate(-122.41 228.21) rotate(-69.16)"/>
              <path id="Pfad_491" data-name="Pfad 491" class="cls-14" d="m109.29,189.87c-15.57-5.92-23.38-23.34-17.46-38.91,5.92-15.57,23.34-23.38,38.91-17.46,15.57,5.92,23.38,23.34,17.46,38.91-5.94,15.56-23.34,23.37-38.91,17.46m19.59-51.5c-12.88-4.9-27.29,1.57-32.19,14.45-4.9,12.88,1.57,27.29,14.45,32.19,12.88,4.9,27.29-1.57,32.19-14.45,0,0,0,0,0,0,4.88-12.88-1.58-27.28-14.45-32.19"/>
              <path id="Pfad_492" data-name="Pfad 492" class="cls-5" d="m78.79,270.31h0c-3.13-1.19-4.71-4.7-3.52-7.83.03-.07.06-.15.09-.22l20.63-48.43c.2-.47.74-.7,1.22-.52l5.44,2.07c.48.18.73.71.57,1.2l-16.51,49.97c-1.05,3.18-4.48,4.91-7.66,3.86-.09-.03-.17-.06-.26-.09"/>
              <path id="Pfad_493" data-name="Pfad 493" class="cls-20" d="m90.07,256.21h0c-.18-.19-.33-.4-.47-.62-.24-.42-.52-.82-.82-1.2-.12-.11-.3-.14-.45-.07-.13.12-.18.3-.14.47.03.23.11.45.22.65.09.15.4.96.66,1.63-1.26.49-2.99.67-.41,1.26-.04.31-1.75-.39-1.88.67-.17.17-.6.59.16,1.03-1.28.67,3.52,2.36,3.75-.48-.09-1.16.92-1.04-.63-3.35"/>
              <path id="Pfad_494" data-name="Pfad 494" class="cls-20" d="m86.82,266.52c-.32-.44,0,.06-2.75-2.72,1.96.79,2.69-1.59-4.11-1.72-.12,1.11-.35,2.21-.69,3.27,2.17-.68,3.17,2.93,5.43,3.3.23.36.92.49.76-.36.61.33,1.63.12-.69-2.35.03-.08,2.4,2.81,2.05.58"/>
              <path id="Pfad_495" data-name="Pfad 495" class="cls-20" d="m59.62,241.15c.78.6,3.22,3.88,4.59,3.06l1.84-8.44-5.59-1.28s-.1.54-.31,1.32c-.33,1.22-1.37,2.3-2.22,3.57-.09.13,1.56,1.66,1.69,1.76"/>
              <path id="Pfad_496" data-name="Pfad 496" class="cls-20" d="m60.47,234.5c1.64.58,3.71-4.3,6.78-6.05,9.33-1.7,2.59,20.4-6.78,6.05"/>
              <path id="Pfad_497" data-name="Pfad 497" class="cls-16" d="m71.95,230.62c.45-.2.99-.21,1.36-.57.28-.3.46-.67.51-1.08.32-1.03.34-2.12.05-3.16-.59-1.29-1.74-2.24-3.12-2.56-2.25-.5-4.59-.43-6.8.21-.6.21-.96.78-1.54,1.03-3.72,1.63-1.98,5.68-2.16,6.5-.29,1.41-1.13,3.06-.64,4.44.24.69,1.48,1.2,2.25,1.27.35.07.72-.04.98-.29.06-.14.05-.3-.03-.43,2.39-3.61-1.71-1.94,5.28-5.2.65-.43,2.08-.04,3.3-.37-.02.11.13.28.54.22.01,0,.01-.01.03-.02"/>
              <path id="Pfad_498" data-name="Pfad 498" class="cls-20" d="m63.38,231.92c-.06.64.18,1.19.83,1.25.6.07,1.15-.33,1.27-.92.15-.59-.21-1.19-.8-1.35-1.03-.23-1.25.41-1.3,1.03"/>
              <path id="Pfad_499" data-name="Pfad 499" class="cls-1" d="m80.34,261.87c-2.04-.79-4.11-1.47-6.23-2.02-1.07-.34-6.81-2.98-7.37-3.14,0,0,0-.02-.02-.04.13-.52.2-1.05.21-1.59-.11-1.89-.31-3.77-.62-5.64-.26-1.36-.5-2.72-.81-4.06-.23-1-.53-1.98-.9-2.94-.08.37-.15.73-.22,1.06-.63-1.58-2.8-3.21-4.48-4.02-1.89-1.03-4.21-.9-5.97.34-1.93,1.24-3.46,3.01-4.39,5.1-2.68,5.44-3.57,6.8-5.9,12.18-1.16,2.68-2.31,6.61-1.3,10.05.04-.03.1-.07.1-.07,4.7-3,10.27-3.44,15.5-2.46,1.59.3,4.88,1.06,4.88,1.06.49-1.11.99-2.2,1.49-3.31.65.12,1.3.28,1.93.48.97.32,1.93.67,2.92.96s1.98.54,2.98.75c1.95.41,3.94.68,5.93.79.58.03,2.34.19,2.34.19-.32-1.2-.33-2.46-.04-3.67"/>
              <path id="Pfad_500" data-name="Pfad 500" class="cls-19" d="m61.11,270.28c-.14,2.44.67,4.95.7,7.4h6.29c.21-.95,2.06-8.89,2.18-10.47.35-1.17.64-2.36.86-3.56.18-1.38-.04-2.79-.63-4.05-.62-.8-1.55-1.31-2.56-1.41-1.27-.09-2.55.12-3.73.6-2.6.91-5.14,1.96-7.62,3.15-.09.03-.19.05-.28.08-1.16.36-2.22.95-3.36,1.38-1.14.4-2.3.71-3.49.93-1.19.24-2.37.57-3.51.98-1.24.47-2.43,1.06-3.55,1.78,1.29,3.22,4.04,5.64,7.4,6.51,1.79.43,3.66.36,5.41-.21.91-.33,1.78-.76,2.58-1.29.85-.54,1.72-1.04,2.62-1.49.23-.11.45-.21.68-.32"/>
              <path id="Pfad_501" data-name="Pfad 501" class="cls-10" d="m75.86,290.24c-.18-.74-.67-1.38-1.34-1.75-1.21-.81-4.98-1.89-5.38-2.25-.69-.76-1.01-1.79-.88-2.81.07-2.1.34-4.21.52-6.3-2.39.41-4.82.38-7.2-.09,0,0,.31,3.75.47,5.63.1.92.13,1.84.09,2.76-.08.8-.21,1.6-.4,2.39-.18.78-.3,1.58-.35,2.39,0,.15,0,.44,0,.44.5.51,1.69.47,2.25.45,1.39-.14,2.79-.2,4.19-.19,1.83.12,3.65.42,5.48.49.6.03,1.2,0,1.8-.07.49-.11.82-.58.75-1.08"/>
              <path id="Pfad_502" data-name="Pfad 502" class="cls-10" d="m43.92,290.82c.69-.34,1.2-.95,1.42-1.69.53-1.36.76-5.27,1.03-5.74.59-.84,1.52-1.38,2.55-1.47,2.06-.39,4.18-.58,6.26-.86-.92-2.24-1.42-4.63-1.48-7.04l-5.4,1.68c-.87.3-1.76.53-2.67.69-.8.1-1.61.14-2.42.13-.81,0-1.61.05-2.41.19-.14.03-.43.09-.43.09-.39.6-.09,1.75.06,2.29.44,1.33.8,2.68,1.1,4.05.28,1.81.39,3.65.72,5.46.1.59.25,1.18.47,1.74.22.46.75.67,1.22.5"/>
            </g>
          </g>
        </g>
      </g>
    </g>
  </g>
</svg>