<?xml version="1.0" encoding="UTF-8"?>
<svg id="Ebene_2" data-name="Ebene 2" xmlns="http://www.w3.org/2000/svg" xmlns:xlink="http://www.w3.org/1999/xlink" viewBox="0 0 288.66 299.65">
  <defs>
    <style>
      .cls-1 {
        fill: #9cd2f3;
      }

      .cls-2 {
        fill: #091317;
      }

      .cls-3 {
        fill: #fff;
      }

      .cls-4 {
        fill: #f7e652;
      }

      .cls-5 {
        fill: #ffd472;
      }

      .cls-6 {
        opacity: .5;
      }

      .cls-7 {
        fill: #30637d;
      }

      .cls-8 {
        clip-path: url(#clippath-2);
      }

      .cls-9 {
        fill: #7abde1;
      }

      .cls-10 {
        opacity: .8;
      }

      .cls-11 {
        fill: #bf7968;
      }

      .cls-12 {
        fill: #11242e;
      }

      .cls-13 {
        fill: #e2f0eb;
      }

      .cls-14 {
        clip-path: url(#clippath-1);
      }

      .cls-15 {
        fill: #2a566e;
      }

      .cls-16 {
        fill: #af6f5f;
      }

      .cls-17 {
        fill: #7fc7ef;
      }

      .cls-18 {
        clip-path: url(#clippath);
      }

      .cls-19 {
        fill: none;
      }

      .cls-20 {
        clip-path: url(#clippath-3);
      }

      .cls-21 {
        fill: #0b3d4c;
      }

      .cls-22 {
        fill: #3a7694;
      }

      .cls-23 {
        fill: #f49f8b;
      }

      .cls-24 {
        fill: #4693b9;
      }

      .cls-25 {
        fill: #52bbaf;
      }
    </style>
    <clipPath id="clippath">
      <rect class="cls-19" width="288.66" height="299.65"/>
    </clipPath>
    <clipPath id="clippath-1">
      <rect class="cls-19" width="288.66" height="299.65"/>
    </clipPath>
    <clipPath id="clippath-2">
      <rect class="cls-19" x="118.04" y="152.84" width="53.19" height="45.82"/>
    </clipPath>
    <clipPath id="clippath-3">
      <rect class="cls-19" x="118.04" y="152.84" width="53.19" height="47.35"/>
    </clipPath>
  </defs>
  <g id="Ebene_1-2" data-name="Ebene 1">
    <g class="cls-18">
      <g id="Gruppe_431" data-name="Gruppe 431">
        <g id="Gruppe_430" data-name="Gruppe 430">
          <g class="cls-14">
            <g id="Gruppe_429" data-name="Gruppe 429">
              <path id="Pfad_289" data-name="Pfad 289" class="cls-25" d="m0,289.86c0,5.41,64.62,9.79,144.33,9.79s144.33-4.38,144.33-9.79-64.61-9.8-144.33-9.8S0,284.45,0,289.86"/>
              <path id="Pfad_290" data-name="Pfad 290" class="cls-25" d="m28.11,287.92s7.33-10.86,2.66-15.02c-2.86-2.55-4.26,5.62-4.26,5.62,0,0-1.62-15.59-6.9-12.3-2.58,1.61,2.84,15.99,2.84,15.99,0,0-3.86-7.48-6.9-5.43-4.92,3.32,6.8,11.03,6.8,11.03l5.77.11Z"/>
              <path id="Pfad_291" data-name="Pfad 291" class="cls-13" d="m25.32,287.86l-3.79-17.66c-.02-.1.04-.19.14-.22.1-.02.19.05.21.14l3.81,17.74h-.37Z"/>
              <path id="Pfad_292" data-name="Pfad 292" class="cls-13" d="m23.3,287.82l-6.98-8.48c-.06-.08-.05-.19.02-.25.08-.06.19-.05.26.03l7.18,8.72h-.48Z"/>
              <path id="Pfad_293" data-name="Pfad 293" class="cls-13" d="m26.61,287.89l2.87-12.94c.02-.09.11-.16.21-.14,0,0,0,0,0,0,.1.02.16.12.14.21,0,0,0,0,0,0l-2.85,12.87h-.37Z"/>
              <path id="Pfad_294" data-name="Pfad 294" class="cls-25" d="m116.59,118.4c-3.97.1-7.95-.06-11.9-.49-.32,0-.59.26-.59.59,0,.07.01.14.04.2,1.51,3.96,3.03,7.91,4.54,11.87,1.72,4.32,4.38,8.2,7.79,11.37,4.93,4.7,12.03,6.32,18.51,4.22,5.87-1.97,5.29-8.6,4.09-13.56-1.5-6.11-6.83-9.91-11.98-12.31-3.3-1.44-6.89-2.09-10.49-1.89"/>
              <path id="Pfad_295" data-name="Pfad 295" class="cls-13" d="m104.51,118.47c2.07,1.79,4.26,3.44,6.57,4.93l.58.34c-.77-.11-1.54-.22-2.31-.31-.97-.11-1.96-.04-2.9.21-.31.09-.23.59.09.5.93-.25,1.9-.31,2.86-.19,1.12.12,2.23.3,3.35.45.04,0,.09,0,.13-.02,1.74.89,3.56,1.64,5.3,2.54,1.86.99,3.65,2.11,5.36,3.35-2.12,1.16-4.86.63-7.14.44-1.38-.12-2.77-.24-4.16-.35-1.05-.22-2.14-.04-3.06.52-.27.2.07.59.32.39,1.07-.81,2.74-.39,3.97-.29l4.28.35c2.1.17,4.35.37,6.24-.73,2.47,1.83,4.81,3.85,7.12,5.86.77.66,1.53,1.32,2.27,2-6.6,1.94-13.65,1.63-20.05-.88-.31-.12-.47.36-.17.48,6.6,2.58,13.88,2.86,20.66.8,1.54,1.38,2.93,2.92,4.16,4.59.19.26.58-.07.39-.33-.44-.63-.92-1.22-1.42-1.8,0-.02,0-.03,0-.05-.14-3.32-.71-6.62-1.7-9.79-1-3.17-2.3-6.81-4.91-9-.25-.21-.54.21-.29.42,1.32,1.22,2.36,2.72,3.03,4.39.67,1.46,1.25,2.96,1.73,4.49.89,2.9,1.43,5.9,1.6,8.93-.72-.78-1.47-1.52-2.25-2.23,0-.1-.09-.19-.2-.19-.41-.38-.83-.75-1.25-1.12-.87-.76-1.74-1.52-2.61-2.28-.32-2.54-1-5.01-2.03-7.35-1.15-2.62-2.38-5.23-3.57-7.85-.07-.12-.23-.16-.36-.09-.11.06-.15.19-.11.31,1.16,2.53,2.33,5.04,3.46,7.58.98,2.2,1.66,4.51,2.02,6.89-1.04-.88-2.09-1.76-3.15-2.61-.67-.53-1.34-1.05-2.03-1.56-.04-.12-.15-.21-.28-.21-1.32-.97-2.68-1.86-4.09-2.69,0-.01,0-.02-.01-.02-.83-1.45-.86-3.14-1.31-4.71-.54-1.6-1.52-3.02-2.81-4.11-.23-.22-.63.11-.39.33.65.58,1.24,1.23,1.76,1.92.49.72.85,1.53,1.05,2.38.21,1.28.53,2.54.94,3.77-2.23-1.21-4.6-2.11-6.81-3.35-2.68-1.6-5.2-3.44-7.55-5.5-.26-.21-.54.21-.29.42"/>
              <path id="Pfad_296" data-name="Pfad 296" class="cls-25" d="m140.05,261.48c2.21,1.67,4.7,2.93,7.36,3.71,2.07.61,3.94,1.25,5.76-.71,3.46-3.87,5.12-9.03,4.57-14.19-.1-.87-.27-1.73-.51-2.58-.32-2.04-1.04-4-2.12-5.76-2.12-3.15-5.03-5.69-8.45-7.35-1.68-.87-3.41-1.66-5.18-2.34-2.15-.86-4.74-1.48-5.72-3.72-.22-.5-.92-.31-1.16.17-1.64,3-2.93,6.19-3.82,9.49-.66,3.02-.55,6.16.32,9.12,1.55,5.54,4.46,10.71,8.97,14.15"/>
              <path id="Pfad_297" data-name="Pfad 297" class="cls-13" d="m139.26,260.17c1.81-.5,3.75-.13,5.24,1,.82.65,1.75,1.14,2.75,1.46,1.01.25,2.05.41,3.09.46-.37-2-.85-3.98-1.46-5.93-.02-.05-.04-.1-.05-.15-4.61-2.16-9.97-.63-14.67-2.52-.34-.14-.16-.68.19-.54,4.55,1.82,9.71.44,14.22,2.32-.87-2.25-1.99-4.39-3.33-6.4-.45-.69-.89-1.37-1.34-2.04-1.32-.29-2.66-.44-4.01-.47-1.16-.11-2.29-.43-3.34-.94-2.12-1.04-3.89-2.65-6.02-3.67-.33-.16-.15-.71.19-.55,2.09,1,3.84,2.55,5.9,3.6,1.18.6,2.48.94,3.8,1.01,1.01.04,2.01.14,3.01.3-1.51-2.27-3.02-4.53-4.35-6.9-2.85-1.33-5.85-2.92-6.82-6.15-.11-.35.46-.47.56-.12.83,2.76,3.34,4.24,5.79,5.41-.49-.91-.95-1.83-1.37-2.78-1.17-2.58-1.98-5.32-2.41-8.12-.05-.36.51-.49.56-.12.67,4.03,2.05,7.9,4.09,11.44.11.06.18.18.16.3.21.37.42.75.64,1.12.38-.78.67-1.6.87-2.45.39-1.91.59-3.86.6-5.82.01-.16.15-.28.31-.27.16.01.27.14.27.3-.11,3.01-.27,6.11-1.7,8.82.17.29.35.58.52.86,1,1.61,2.08,3.17,3.14,4.74,0,0,.02.02.02.03.57.84,1.13,1.69,1.68,2.54,1.47-1.72,1.76-4.05,1.93-6.23.11-2.35.6-4.67,1.45-6.87.15-.34.69-.16.54.19-.53,1.23-.91,2.53-1.13,3.85-.21,1.29-.25,2.61-.39,3.91-.08,2.07-.82,4.05-2.1,5.67,1.15,1.81,2.11,3.74,2.86,5.75.45,1.28.83,2.58,1.13,3.89,2.22-1.53,2.71-4.42,3.11-6.91.3-2.59,1.23-5.07,2.7-7.23.22-.3.7.02.48.32-.87,1.18-1.53,2.49-1.97,3.89-.39,1.56-.7,3.14-.92,4.73-.43,2.24-1.28,4.52-3.26,5.79.33,1.46.61,2.95.88,4.43.07.36-.5.49-.56.12-.1-.53-.2-1.06-.3-1.58-1.9,0-3.77-.5-5.43-1.44-.8-.64-1.69-1.16-2.65-1.53-.98-.28-2.02-.27-3,.02-.35.09-.47-.47-.12-.57"/>
              <path id="Pfad_298" data-name="Pfad 298" class="cls-25" d="m126.03,263.5c-2.36,1.18-4.8,2.21-7.3,3.08-.2.09-.28.33-.18.52.02.04.04.08.08.11,2.03,1.95,4.06,3.9,6.09,5.85,2.26,2.11,4.96,3.69,7.9,4.63,4.29,1.43,9.03.39,12.33-2.7,2.97-2.85.75-6.67-1.38-9.31-2.63-3.25-6.91-4.03-10.69-4.01-2.4.06-4.74.69-6.85,1.83"/>
              <path id="Pfad_299" data-name="Pfad 299" class="cls-13" d="m118.78,266.97c1.75.49,3.54.86,5.35,1.1.15.01.3.03.45.04-.5.15-.99.3-1.48.47-.62.21-1.19.53-1.69.95-.16.14.03.42.19.28.49-.41,1.06-.72,1.66-.92.71-.24,1.43-.45,2.14-.67.03,0,.05-.02.07-.05,1.3.04,2.61-.02,3.91.03,1.4.07,2.79.23,4.17.5-.95,1.3-2.74,1.75-4.17,2.29-.86.32-1.73.64-2.6.97-.69.16-1.3.58-1.7,1.18-.1.2.21.34.31.14.41-.79,1.54-1.01,2.3-1.3.89-.33,1.78-.67,2.67-1,1.38-.35,2.62-1.12,3.54-2.21,2,.4,3.99.95,5.94,1.51.65.18,1.29.36,1.94.56-3.42,3.03-7.75,4.84-12.31,5.15-.22.01-.19.35.03.34,4.7-.32,9.16-2.21,12.65-5.37,1.32.39,2.59.92,3.8,1.58.19.1.33-.2.14-.31-.44-.25-.9-.47-1.36-.68,0,0,0-.02-.01-.03-1.02-1.96-2.3-3.78-3.79-5.41-1.5-1.63-3.31-3.44-5.5-4.03-.21-.05-.26.28-.06.34,1.14.36,2.19.97,3.07,1.78.82.69,1.59,1.43,2.31,2.21,1.36,1.49,2.53,3.15,3.49,4.92-.66-.27-1.32-.5-1.98-.71-.04-.06-.11-.08-.17-.06-.36-.11-.71-.21-1.07-.32-.74-.21-1.48-.42-2.22-.63-.91-1.44-2.02-2.73-3.3-3.85-1.44-1.25-2.91-2.47-4.37-3.71-.17-.14-.39.12-.22.27,1.41,1.19,2.83,2.37,4.23,3.58,1.21,1.04,2.28,2.25,3.17,3.58-.87-.24-1.75-.47-2.64-.68-.55-.13-1.11-.25-1.66-.37-.06-.06-.15-.08-.23-.05-1.07-.21-2.14-.36-3.22-.46,0,0,0,0-.01-.01-.81-.73-1.52-1.55-2.12-2.46-.78-.81-1.77-1.39-2.85-1.68-.2-.07-.35.24-.14.31.55.17,1.09.39,1.6.66.5.29.94.68,1.3,1.14.49.71,1.03,1.38,1.63,2-1.69-.1-3.36.04-5.04-.09-2.06-.21-4.1-.6-6.09-1.17-.21-.05-.27.28-.05.34"/>
              <path id="Pfad_300" data-name="Pfad 300" class="cls-16" d="m204.01,250.58c-.04.19-.1.37-.16.56-.17.76-.54,1.46-1.06,2.04-.43.3-.81.66-1.12,1.08-.17.29-.24.62.09.81.41.17.87.11,1.23-.15-.14.26-.24.59.09.73.4.16,1.01-.16,1.42-.42-.15.24-.23.52.01.74.27.19.62.22.93.09.15-.05.35-.21.47-.18.08.02.19.19.3.22.41.12.76-.27,1.02-.53.82-.79,1.45-1.75,1.83-2.82.2-.61.2-1.27.39-1.89.28-.59.6-1.17.96-1.71-.82-.58-2.17-1.52-3.26-2.24-.36.78-1.05,1.36-1.87,1.59-.69.1-1.37.29-2.03.55-.58.39-1.08.88-1.49,1.44-.21.25-.52.68-.16.95.39.3.92-.19,1.23-.37.32-.2.66-.39.98-.57.22-.13.26-.17.21.07"/>
              <path id="Pfad_301" data-name="Pfad 301" class="cls-17" d="m212.45,236.94c1.22-2,1.31-4.03,1.47-6.27h7.89s-.15,3.45-.23,3.4c-.17,2.12-.89,4.17-2.09,5.93-1.2,1.65-2.67,3.13-4.03,4.66-1.57,1.78-3.09,3.62-4.8,5.27-1.02-1.32-2.5-2.2-4.15-2.45.74-1.87,1.62-3.68,2.61-5.43,1.01-1.77,2.27-3.37,3.34-5.11"/>
              <path id="Pfad_302" data-name="Pfad 302" class="cls-15" d="m239.97,259.1c-.44.83-.78,1.7-1.02,2.61-.19,1.15-.13,2.32.2,3.44.83,3.48,1.08,7.08.73,10.65h-7.12c-.35-3.34-1.02-6.65-1.99-9.87-.55-1.21-1.03-2.45-1.44-3.72-.75-2.68-.06-5.56.4-8.24.51-2.94,1.11-5.86,1.56-8.8.5-3.05.73-6.14.68-9.23h13.27c1.73,6.09-.34,12.53-2.9,18.14-.77,1.69-1.59,3.35-2.39,5.02"/>
              <path id="Pfad_303" data-name="Pfad 303" class="cls-2" d="m224.48,288.47c.21-.83.74-1.54,1.49-1.95,1.34-.91,5.55-2.1,5.99-2.51.77-.85,1.13-1.99.98-3.13-.08-2.34-.38-4.68-.58-7.01,2.66.45,5.37.42,8.02-.1l-.51,6.27c-.11,1.02-.14,2.04-.09,3.07.09.9.24,1.79.44,2.67.21.87.33,1.77.38,2.66,0,.16,0,.49,0,.49-.56.56-1.88.52-2.5.49-1.55-.15-3.11-.22-4.67-.21-2.04.13-4.06.47-6.11.54-.67.04-1.34.01-2-.08-.55-.13-.91-.65-.83-1.21"/>
              <path id="Pfad_304" data-name="Pfad 304" class="cls-7" d="m245.27,259.38c-.44.83-.78,1.7-1.02,2.61-.19,1.15-.13,2.32.2,3.43.83,3.49,1.08,7.09.73,10.65h-7.12c-.35-3.34-1.02-6.65-2-9.86-.54-1.21-1.02-2.45-1.44-3.71-.75-2.68-.06-5.56.4-8.24.51-2.94,1.11-5.86,1.56-8.8.5-3.05.73-6.14.68-9.23h13.27c1.73,6.09-.34,12.53-2.9,18.13-.77,1.69-1.59,3.35-2.39,5.02"/>
              <path id="Pfad_305" data-name="Pfad 305" class="cls-11" d="m211.38,215.47c-.62-.57-1.01-.98-1.01-.98-.57.56-1.41.72-2.15.41-.02,0-7.38-4.57-9-2.81-1.93,2.09-.95,4.81.94,6.9.59.66.88,1.54.82,2.42.03.2.23.34.43.31.1-.02.18-.07.24-.15l.27-.32c.06-.07.17-.08.24-.03.58.46,1.22.85,1.9,1.15,1.5.62,2.69,1.76,4.27-.45.19-.26.35-.52.51-.78l3.81,3.82c1.63-.03,1.87-4.2,2.2-5.15.24-.8.4-1.62.45-2.45-1.45-.64-2.95-1.02-3.91-1.91"/>
              <path id="Pfad_306" data-name="Pfad 306" class="cls-12" d="m210.8,212.85c-.99-1.53-3.06-8.33-9.55-7.14-3.86.71-9.25,6.76-5.59,10.39,2.01,2,4.34-1.92,8.94.36-.03-.02.19-.87.42-.9-.95-.66,1.47.74,3.24.81.91.03,2.77,0,3.46-1.56.62-1.39-.55-1.38-.92-1.95"/>
              <path id="Pfad_307" data-name="Pfad 307" class="cls-11" d="m206.18,214.97c.41.53.52,1.12,0,1.54-.49.38-1.18.33-1.61-.12-.46-.43-.5-1.14-.08-1.61.75-.76,1.3-.32,1.69.19"/>
              <path id="Pfad_308" data-name="Pfad 308" class="cls-12" d="m229.77,288.76c.21-.83.74-1.54,1.49-1.95,1.35-.91,5.55-2.11,5.99-2.5.77-.85,1.13-1.99.98-3.13-.08-2.34-.38-4.69-.58-7.02,2.66.46,5.37.43,8.02-.09,0,0-.34,4.18-.52,6.27-.11,1.02-.14,2.05-.09,3.07.09.89.24,1.78.44,2.66.2.88.33,1.77.39,2.66,0,.16,0,.49,0,.49-.56.57-1.88.52-2.5.5-1.55-.16-3.11-.23-4.67-.21-2.04.13-4.06.46-6.11.55-.67.04-1.34,0-2-.09-.55-.12-.91-.65-.84-1.21"/>
              <path id="Pfad_309" data-name="Pfad 309" class="cls-4" d="m172.73,232.87c24.37-10.51,46.39,20.64,28.05,39.83-1.23,1.29-2.57,2.46-4.02,3.49-5.48,3.94-12.17,5.82-18.9,5.3-4.97-.37-9.96.52-14.5,2.59-1.16.54-2.52.43-3.58-.28l-11.35-16.12c-.33-1.22.01-2.53.89-3.44,1-1.02,1.92-2.11,2.76-3.27.02-.02.03-.04.04-.06,2.08-2.86,3.63-6.08,4.58-9.49,1.76-6.42,5.71-12.02,11.16-15.84,1.52-1.07,3.14-1.98,4.85-2.72"/>
              <path id="Pfad_310" data-name="Pfad 310" class="cls-21" d="m159.72,283.71l-5.55,3.9-2.55,1.8-.09.06c-1.59,1.12-3.78.77-4.95-.78l.03.04-.24.17c-2.89,2.03-6.87,1.34-8.9-1.55s-1.34-6.87,1.55-8.9h0l.24-.17.12.17c-1.07-1.62-.65-3.81.94-4.92l.09-.06,2.55-1.8,5.55-3.9,11.22,15.95Z"/>
              <path id="Pfad_311" data-name="Pfad 311" d="m146.18,288.62c-2.39-3.24-4.72-6.53-6.99-9.87-.1-.15-.06-.36.1-.46.15-.1.34-.06.45.08,2.26,3.34,4.59,6.63,6.99,9.87.25.34-.29.71-.54.37"/>
              <path id="Pfad_312" data-name="Pfad 312" d="m153.88,287.42c-3.6-5.09-7.18-10.2-10.74-15.32-.1-.15-.05-.36.1-.45.14-.09.33-.06.44.08,3.56,5.12,7.14,10.23,10.74,15.32.1.15.07.35-.08.45-.15.1-.35.07-.45-.08h0"/>
              <path id="Pfad_313" data-name="Pfad 313" d="m156.35,278.91c4.96-2.29,9.96-4.51,15.43-5.14,3.1-.24,6.16-.82,9.13-1.74,3.06-.99,6.06-2.2,8.95-3.61.3-.15.6.28.29.43-5.12,2.75-10.71,4.53-16.48,5.25-6.13.61-11.48,2.68-17.03,5.23l-.3-.44Z"/>
              <path id="Pfad_314" data-name="Pfad 314" d="m178.49,243.69c.8.42,1.65.79,2.42,1.26.24.12.45.29.61.51.2.52.28,1.08.24,1.63,0,.26-.03.54,0,.79.12,1.1.12.79.67,1.09.83.45,2.34.45,2.72,1.46.14.6.18,1.23.11,1.85,0,.21-.04.42-.04.63.01.79.12.88.77,1.12.85.32,2.74.61,3.15,1.48.53,1.11-.3,2.59.1,3.67.38,1.04,2.45.29,3.15,1.14.58.7.09,2.7-.01,3.51-.02.14-.15.24-.3.22-.14-.02-.24-.15-.22-.3h0c.08-.68.15-1.37.18-2.05s.05-.98-.68-1.24c-.33-.09-.67-.15-1.01-.19-.48-.11-1.46-.17-1.7-.69-.14-.3.04-.83.06-1.14.13-.75.13-1.52,0-2.27-.45-1.49-2.84-1.17-3.82-2.02-.58-.5-.16-1.75-.17-2.38.12-.81-.38-1.59-1.17-1.81-.57-.22-1.18-.39-1.73-.66-.88-.44-.57-1.3-.6-2.16.1-.69-.18-1.38-.73-1.82-.71-.44-1.45-.82-2.22-1.16-.3-.15-.09-.64.21-.48"/>
              <path id="Pfad_315" data-name="Pfad 315" d="m173.75,245.19c-2.35,2.21-4.54,4.57-6.56,7.08-1.91,2.45-3.55,5.1-4.87,7.92-2.53,4.89-6.38,8.78-10.29,12.6l-.3-.44c4.36-4.28,8.2-8.54,10.95-14.06,2.72-5.14,6.37-9.73,10.76-13.54.25-.22.54.21.3.43"/>
              <path id="Pfad_316" data-name="Pfad 316" class="cls-11" d="m206.79,252.75c-.07.18-.15.36-.23.53-.27.73-.72,1.38-1.31,1.88-.46.24-.88.55-1.25.92-.21.27-.32.58,0,.82.38.21.85.22,1.24.01-.17.23-.31.55,0,.74.37.21,1.02-.02,1.46-.23-.17.22-.29.49-.08.74.25.22.59.3.91.21.15-.03.37-.16.49-.11.07.03.16.21.27.26.4.17.79-.17,1.08-.39.91-.67,1.66-1.55,2.17-2.56.28-.59.36-1.24.63-1.83.35-.55.74-1.08,1.17-1.58-.73-.68-1.95-1.79-2.94-2.64-.46.73-1.22,1.21-2.07,1.33-.7.01-1.4.11-2.08.28-.62.31-1.19.73-1.67,1.23-.24.22-.6.61-.29.93.35.34.94-.06,1.27-.21.34-.16.69-.3,1.05-.44.23-.09.27-.13.19.1"/>
              <path id="Pfad_317" data-name="Pfad 317" class="cls-1" d="m209.32,250.13c1.65.26,3.13,1.13,4.15,2.45,1.71-1.64,3.24-3.48,4.81-5.26,1.35-1.53,2.83-3.01,4.02-4.67,1.19-1.77,1.91-3.81,2.09-5.93.28.16.56.34.83.52,2.62,1.87,4.52,4.57,5.4,7.66,1.54-.97,7.74-1.69,9.07-2.06,2.67-.78,11.58-5.32,11.59-5.67.03-.95-1.86-4.93-2.31-5.78-6.56-12.45-20.95-18.6-34.49-14.75-1.55-.15-.79,3.58-1.06,5.36-.08.55-.91,2.83-.91,2.83-.15,1.39-.05,2.79.3,4.14.26.89.79,1.67,1.51,2.25.77.54,1.61,1,2.48,1.35-.01.15-.04.29-.05.43-.18,2.36-.21,4.48-1.49,6.57-1.07,1.74-2.32,3.34-3.34,5.11-.99,1.75-1.87,3.56-2.61,5.43"/>
              <path id="Pfad_318" data-name="Pfad 318" class="cls-9" d="m215.29,216.62c-.64,1.52-.37,3.28-.66,4.88-.22,1.45-.8,2.82-1.7,3.98-.04.06-.12-.03-.08-.08.94-1.23,1.54-2.69,1.72-4.22.23-1.52,0-3.15.61-4.59.03-.07.13-.04.1.03"/>
              <path id="Pfad_319" data-name="Pfad 319" class="cls-9" d="m216.73,232.49c-.48-3.49-.94-7.17.56-10.49.03-.06.13,0,.09.06-1.48,3.29-1.02,6.95-.55,10.41,0,.07-.09.1-.11.03"/>
              <path id="Pfad_320" data-name="Pfad 320" class="cls-9" d="m224.38,236.64c.32-1.77.64-3.54.97-5.3.43-1.86.62-3.77.56-5.68-.07-1.69-.63-3.32-1.61-4.7-1.02-1.41-2.74-2.13-4.45-1.87-.03,0-.06,0-.07-.04s0-.06.04-.07h0c1.47-.24,2.97.24,4.03,1.3,1.14,1.2,1.86,2.74,2.06,4.39.24,1.94.14,3.91-.29,5.82-.37,2.06-.75,4.13-1.13,6.19-.01.07-.12.04-.11-.03"/>
              <path id="Pfad_321" data-name="Pfad 321" class="cls-25" d="m94.2,286.05s-11.65-21.91-2.19-21.68c3.89.09,7.25,17.52,7.25,17.52,0,0-.76-15.9,7.02-13.4,4.21,1.35-2.16,13.4-2.16,13.4,0,0,5.77-7.78,9.01-5.57,5.29,3.6-4.42,9.79-4.42,9.79l-14.53-.06Z"/>
              <path id="Pfad_322" data-name="Pfad 322" class="cls-25" d="m89.09,286.03s-2.05-11.6-6.56-11.4c-3.23.15-.32,8,2.42,11.39,0,0,4.02,0,4.14.01"/>
              <path id="Pfad_323" data-name="Pfad 323" class="cls-13" d="m97.03,286.06l-4.85-17.17c-.03-.12-.14-.19-.26-.16-.12.03-.19.14-.16.26,0,0,0,.01,0,.02l4.82,17.05h.45Z"/>
              <path id="Pfad_324" data-name="Pfad 324" class="cls-13" d="m101.05,286.08l3.37-13.89c.02-.12-.06-.23-.18-.25-.11-.02-.21.05-.24.15l-3.39,14h.44Z"/>
              <path id="Pfad_325" data-name="Pfad 325" class="cls-13" d="m86.96,286.02l-3.11-7.75c-.04-.11-.17-.16-.28-.12-.11.04-.17.17-.12.28l3.04,7.59h.47Z"/>
              <path id="Pfad_326" data-name="Pfad 326" class="cls-13" d="m104.62,286.1l6.11-6.89c.08-.09.07-.23-.02-.31-.09-.08-.23-.07-.31.02,0,0,0,0,0,0l-6.37,7.18h.58Z"/>
              <path id="Pfad_327" data-name="Pfad 327" d="m143.28,52.79c-.6-.09-1.2-.2-1.81-.34-2.27,1.02-4.47,2.2-6.58,3.52.28.28.57.55.85.82,2.36-1.41,4.81-2.68,7.33-3.8l.21-.2"/>
              <path id="Pfad_328" data-name="Pfad 328" d="m149.3,49.47c-.62.2-1.24.4-1.86.62-.66.62-1.32,1.24-1.98,1.87,1.2-.5,2.53-1.03,3.96-1.54-.04-.32-.08-.63-.12-.94"/>
              <path id="Pfad_329" data-name="Pfad 329" d="m152.5,72.16c.15.21.3.41.44.62.56-.68,1.12-1.35,1.67-2.04.75-.95,1.53-1.94,2.31-2.96-.19-.22-.37-.43-.55-.66-1.22,1.72-2.51,3.4-3.87,5.04"/>
              <path id="Pfad_330" data-name="Pfad 330" d="m150.77,74.19c-3.64-1.85-7.54-3.35-11.32-4.95-1.51-.64-3.03-1.31-4.53-2.05-.05.32-.09.64-.12.95,4.95,2.47,10.39,4.3,15.35,6.76.21-.23.41-.47.62-.71"/>
              <path id="Pfad_331" data-name="Pfad 331" d="m151.83,72.96c.22-.26.45-.53.67-.8-2.13-2.68-4.55-5.12-7.21-7.28-2.23-1.91-4.53-3.73-6.76-5.62-.22.29-.43.58-.64.87,1.8,1.44,3.56,2.74,4.93,3.87,3.09,2.55,6.65,5.57,9.02,8.96"/>
              <path id="Pfad_332" data-name="Pfad 332" d="m143.07,52.99l.4-.18c-.06,0-.12-.01-.19-.02l-.21.2"/>
              <path id="Pfad_333" data-name="Pfad 333" d="m144.41,52.94c-.3-.05-.63-.08-.95-.13-.13.06-.26.12-.4.18-.59.57-1.17,1.14-1.73,1.71-1.24,1.26-2.37,2.62-3.38,4.06.19.16.37.33.57.49,1.8-2.25,3.77-4.36,5.89-6.31"/>
              <path id="Pfad_334" data-name="Pfad 334" d="m138.94,51.7c.82.3,1.67.55,2.52.74.4-.18.79-.35,1.19-.52-5.33-.94-10.74-4.1-12.01-9.04-.26.41-.48.84-.65,1.3,1.39,3.6,5,6.11,8.95,7.52"/>
              <path id="Pfad_335" data-name="Pfad 335" d="m151.83,72.96c.15.21.29.43.43.64.23-.27.45-.55.67-.83-.14-.21-.29-.41-.44-.62-.22.27-.44.53-.67.8"/>
              <path id="Pfad_336" data-name="Pfad 336" d="m143.93,124.44c.35,4.24.44,8.5.28,12.75,0,.76.94.89.95-.47.12-4.09.02-8.19-.31-12.27-.31-2.9-.78-5.78-1.04-8.69-.33-.15-.66-.31-.99-.48.2,3.06.75,6.11,1.11,9.15"/>
              <path id="Pfad_337" data-name="Pfad 337" d="m154.96,76.59c.16.45.29.9.4,1.36,2.13,1.46,4.03,3.24,5.62,5.27.33-.07.66-.15.98-.24-1.93-2.53-4.3-4.7-7-6.39"/>
              <path id="Pfad_338" data-name="Pfad 338" d="m150.83,75.25l-.68-.34c-2.08,2.33-4.28,4.54-6.6,6.63.3.14.6.26.91.39.02-.02.04-.03.05-.05,2.22-2.1,4.33-4.31,6.33-6.62"/>
              <path id="Pfad_339" data-name="Pfad 339" d="m152.27,73.6c-.14-.21-.28-.43-.43-.64-.35.42-.71.83-1.06,1.24.23.12.45.23.68.35.27-.32.55-.63.82-.95"/>
              <path id="Pfad_340" data-name="Pfad 340" d="m165.45,53.34c.77-1.97,1.32-4.02,1.64-6.11-.3-.02-.6-.04-.91-.06-.29,1.67-.75,3.31-1.37,4.9.26.39.48.82.64,1.27"/>
              <path id="Pfad_341" data-name="Pfad 341" d="m151.45,74.54c-.2.24-.41.47-.61.71,1.07.55,2.1,1.14,3.11,1.76-.16-.48-.34-.94-.55-1.4-.64-.37-1.28-.73-1.94-1.08"/>
              <path id="Pfad_342" data-name="Pfad 342" d="m155.36,77.95c-.47-.32-.94-.63-1.42-.94.77,2.22.72,4.64-.13,6.84.37.01.73.02,1.09.02.76-1.88.92-3.95.45-5.92"/>
              <path id="Pfad_343" data-name="Pfad 343" d="m153.94,77.02c.48.3.96.61,1.42.94-.11-.46-.24-.91-.4-1.36-.52-.34-1.04-.66-1.57-.97.21.45.4.92.55,1.4"/>
              <path id="Pfad_344" data-name="Pfad 344" d="m153.39,75.62c.53.31,1.06.63,1.57.97-.5-1.36-1.18-2.64-2.02-3.82-.23.27-.45.55-.67.83.42.65.8,1.32,1.12,2.02"/>
              <path id="Pfad_345" data-name="Pfad 345" d="m156.75,66.57c-.13.19-.25.37-.38.55.18.22.36.44.55.66.13-.17.26-.34.39-.51-.19-.22-.37-.45-.55-.69"/>
              <path id="Pfad_346" data-name="Pfad 346" d="m160.74,69.71c-1.37-.45-2.56-1.31-3.44-2.45-.13.17-.26.34-.39.51.16.2.32.4.49.59,1.66,1.86,4.31,3.49,6.3,1.19,1.32-1.53,1.67-3.89,1.98-5.79.55-3.07.58-6.21.08-9.28-.07-.39-.17-.77-.3-1.14-.19.49-.39.98-.59,1.46.75,4.34.56,16.16-4.12,14.91"/>
              <path id="Pfad_347" data-name="Pfad 347" d="m144.9,52.18c-.3-.02-.6-.04-.91-.07-.24.23-.48.45-.72.68.06,0,.12.02.19.02l.81-.36c.2-.09.42-.18.63-.27"/>
              <path id="Pfad_348" data-name="Pfad 348" d="m145.45,51.96c-.19.08-.37.15-.55.23.1,0,.2.01.29.01.09-.08.17-.16.26-.24"/>
              <path id="Pfad_349" data-name="Pfad 349" d="m144.9,52.19c-.21.09-.43.18-.63.27l-.81.36c.33.04.65.08.97.11l.76-.73c-.09,0-.2,0-.29-.01"/>
              <path id="Pfad_350" data-name="Pfad 350" d="m152.54,58.5c-.81-1.89-1.4-3.86-1.78-5.89-.32.06-.64.11-.97.15.25,1.32.6,2.63,1.04,3.9,1.27,3.76,3.13,7.29,5.53,10.46.13-.18.25-.37.38-.55-1.7-2.52-3.12-5.23-4.21-8.07"/>
              <path id="Pfad_351" data-name="Pfad 351" d="m156.74,66.57c.18.24.36.47.55.69,2.99-3.85,5.53-8.03,7.56-12.46-.06-.39-.15-.78-.28-1.15-.06-.16-.13-.32-.2-.47-.84,1.96-1.78,3.88-2.83,5.74-1.46,2.63-3.06,5.19-4.79,7.65"/>
              <path id="Pfad_352" data-name="Pfad 352" d="m145.52,52.21c-.11,0-.22-.01-.33-.01-.25.24-.51.48-.76.73,1.79.15,3.58.1,5.36-.16-.06-.31-.12-.61-.17-.92-1.35.26-2.73.39-4.1.37"/>
              <path id="Pfad_353" data-name="Pfad 353" d="m164.58,53.65c.13.37.22.76.28,1.15.21-.48.4-.97.59-1.46-.16-.45-.37-.87-.64-1.27-.14.37-.28.74-.44,1.11.07.15.14.3.2.47"/>
              <path id="Pfad_354" data-name="Pfad 354" d="m150.08,47.54c-.04-.38-.07-.77-.09-1.15-.3.3-.6.6-.9.9.03.37.06.75.09,1.12.3-.29.6-.58.9-.87"/>
              <path id="Pfad_355" data-name="Pfad 355" d="m143.28,52.79c.24-.23.47-.45.72-.68-.44-.05-.89-.11-1.34-.19-.4.17-.79.35-1.19.52.61.14,1.21.26,1.81.34"/>
              <path id="Pfad_356" data-name="Pfad 356" d="m144.9,52.19c.18-.08.36-.15.55-.23.66-.62,1.32-1.25,1.98-1.87-.69.24-1.38.49-2.08.75-.46.43-.91.85-1.36,1.27.3.03.61.06.91.07"/>
              <path id="Pfad_357" data-name="Pfad 357" d="m149.18,48.42c-.04-.37-.07-.75-.09-1.12-1.22,1.21-2.49,2.39-3.74,3.55.69-.26,1.39-.51,2.08-.75.59-.55,1.17-1.11,1.75-1.67"/>
              <path id="Pfad_358" data-name="Pfad 358" d="m145.35,50.84c-.9.34-1.8.7-2.7,1.09.45.08.89.14,1.34.19.45-.42.9-.85,1.36-1.27"/>
              <path id="Pfad_359" data-name="Pfad 359" d="m149.62,51.85c.32-.06.64-.12.97-.19-.09-.52-.16-1.05-.23-1.58-.32.11-.64.22-.95.34.06.48.13.96.22,1.43"/>
              <path id="Pfad_360" data-name="Pfad 360" d="m149.29,49.47c.32-.1.64-.2.96-.29-.06-.54-.12-1.09-.17-1.63-.3.29-.6.58-.9.87.03.35.07.7.11,1.05"/>
              <path id="Pfad_361" data-name="Pfad 361" d="m149.79,52.76c.32-.04.64-.09.97-.15-.06-.32-.12-.64-.17-.96-.32.07-.64.13-.97.19.05.31.11.61.17.92"/>
              <path id="Pfad_362" data-name="Pfad 362" d="m152.56,52.25c3.64-.83,9.71-3.44,11.82.93.15-.37.3-.74.44-1.11-1.17-1.74-3.19-2.42-5.65-2.19-2.89.43-5.76,1.02-8.58,1.78.05.32.11.64.17.96.59-.1,1.19-.22,1.8-.36"/>
              <path id="Pfad_363" data-name="Pfad 363" d="m149.41,50.42c.31-.11.63-.22.95-.34-.04-.3-.07-.6-.11-.9-.32.09-.64.19-.95.29.03.32.07.63.12.94"/>
              <path id="Pfad_364" data-name="Pfad 364" d="m150.77,74.19c-.21.24-.41.48-.62.71.23.11.46.23.69.34.21-.23.41-.47.61-.71-.22-.12-.45-.23-.68-.35"/>
              <path id="Pfad_365" data-name="Pfad 365" d="m149.03,27.34c0,.09,0,.17,0,.26,0,.27.02.54.03.81,2.86-.11,5.72.18,8.5.88-.04-.31-.09-.63-.14-.95-1.96-.52-3.96-.84-5.98-.97-.8-.05-1.6-.05-2.41-.03"/>
              <path id="Pfad_366" data-name="Pfad 366" d="m157.6,32.79c.32.05.65.1.97.16.15-1.11.2-2.23.14-3.35-.37-.11-.75-.21-1.13-.31.14,1.16.15,2.34.03,3.5"/>
              <path id="Pfad_367" data-name="Pfad 367" d="m149.03,27.34c-.05-1.85-.1-3.69-.13-5.54-.31.03-.62.08-.93.15.03,1.81.08,3.62.13,5.43.31-.02.62-.03.93-.04"/>
              <path id="Pfad_368" data-name="Pfad 368" d="m162.52,83.79c-.32.09-.63.17-.96.24.66.94,1.24,1.93,1.75,2.95,1.49,3.14,2.46,6.51,2.86,9.97.3-.16.59-.34.88-.53-.43-2.93-1.21-5.79-2.33-8.53-.59-1.44-1.33-2.81-2.21-4.1"/>
              <path id="Pfad_369" data-name="Pfad 369" d="m132.41,33.9c.33-.59.7-1.16,1.1-1.72-.62.39-1.23.79-1.82,1.22-.32.56-.61,1.12-.87,1.71.52-.42,1.05-.82,1.59-1.2"/>
              <path id="Pfad_370" data-name="Pfad 370" d="m154.6,47.99c-1.41.34-2.87.74-4.35,1.19.03.3.07.61.11.9,4.87-1.68,10.65-3.11,15.83-2.9.03-.22.06-.43.09-.65-3.94-.02-7.87.47-11.68,1.46"/>
              <path id="Pfad_371" data-name="Pfad 371" d="m143.74,23.47c1.33-.7,2.76-1.21,4.23-1.52,0-.35-.01-.69-.02-1.03-2.63.67-5.11,1.8-7.35,3.33-3.63,2.33-6.69,5.46-8.92,9.16.59-.43,1.2-.83,1.82-1.22,2.69-3.66,6.19-6.64,10.24-8.72"/>
              <path id="Pfad_372" data-name="Pfad 372" d="m134.28,66.87c-2.19-1.1-4.25-2.46-6.11-4.05-.21.24-.42.48-.62.72,2.02,1.68,4.22,3.11,6.58,4.26.04-.31.09-.62.16-.93"/>
              <path id="Pfad_373" data-name="Pfad 373" d="m134.71,57.43c-.29-.26-.57-.53-.85-.8-2.37,1.56-4.53,3.4-6.45,5.49.25.24.5.47.75.7,1.94-2.07,4.14-3.88,6.54-5.38"/>
              <path id="Pfad_374" data-name="Pfad 374" d="m154.45,84.89c-.36,0-.72,0-1.08,0-.34.7-.75,1.36-1.2,1.99-4.39,6.1-10.88,6.21-16.53,3.4-.24.27-.48.55-.71.83,7.19,3.35,15.67,1.54,19.52-6.21"/>
              <path id="Pfad_375" data-name="Pfad 375" d="m142.76,114.16c.32.18.64.36.96.54-.03-.41-.05-.82-.07-1.24-.16-3.96.75-7.41,3.75-10.17,2.77-2.54,7.05-2.55,10.55-2.92,2.92-.28,5.75-1.14,8.33-2.53-.03-.3-.06-.61-.09-.91-5.28,2.91-11.24,1.84-16.8,4.07-5.45,2.19-6.8,7.88-6.62,13.15"/>
              <path id="Pfad_376" data-name="Pfad 376" d="m143.5,82.8c-.3-.14-.6-.28-.9-.43-.27.23-.53.47-.8.69-2.52,2.07-4.87,4.33-7.03,6.77.28.16.57.31.86.45,2.49-2.63,5.11-5.13,7.87-7.48"/>
              <path id="Pfad_377" data-name="Pfad 377" d="m166.18,96.94c.04.3.07.6.09.91.3-.16.6-.34.9-.51-.04-.31-.08-.62-.12-.93-.29.19-.58.37-.88.53"/>
              <path id="Pfad_378" data-name="Pfad 378" d="m157.57,29.29c.38.1.76.2,1.13.31-.02-.31-.04-.62-.08-.93-.39-.12-.8-.23-1.2-.34.06.32.11.64.14.95"/>
              <path id="Pfad_379" data-name="Pfad 379" d="m160.31,30.13c20.44,7.54,26.02,35.9,17.4,53.89-2.31,4.8-5.79,8.95-10.13,12.05-.17.12-.35.23-.53.34.05.31.09.62.12.93,1.69-1.04,3.26-2.25,4.69-3.63,14.12-13.44,13.61-38.04,2.86-53.28-3.91-5.6-9.58-9.74-16.11-11.76.04.31.06.62.08.93.54.16,1.08.34,1.61.53"/>
              <path id="Pfad_380" data-name="Pfad 380" d="m157.4,28.14c.01.06.02.13.03.19.4.11.8.22,1.2.34-.18-2.57-1.42-4.96-3.43-6.57-1.83-1.29-4.11-1.78-6.31-1.36,0,.35.01.71.02,1.06,4-.48,7.54,1.2,8.5,6.34"/>
              <path id="Pfad_381" data-name="Pfad 381" d="m129.6,42.86c.24-.45.51-.88.82-1.28-.11-1.09-.03-2.19.23-3.25.38-1.55.97-3.04,1.77-4.42-.55.38-1.08.78-1.59,1.2-.54,1.16-.94,2.39-1.21,3.64-.3,1.36-.3,2.76-.01,4.12"/>
              <path id="Pfad_382" data-name="Pfad 382" d="m147.96,20.92c.31-.07.62-.13.93-.17-.12-6.91-.13-13.83-.07-20.74h-.93c0,.21,0,.42,0,.63-.06,6.76-.05,13.52.07,20.29"/>
              <path id="Pfad_383" data-name="Pfad 383" d="m147.98,21.95c.31-.06.62-.11.93-.15,0-.35-.01-.71-.02-1.06-.31.05-.62.1-.93.17l.02,1.03"/>
              <path id="Pfad_384" data-name="Pfad 384" d="m156.59,116.99c-4.26,1.21-8.79-.11-12.87-2.29.02.36.05.71.09,1.07,1.95.92,3.98,1.63,6.08,2.13,4.14,1.05,8.53.09,11.83-2.61,5.11-4.24,6.25-11.3,5.46-17.95-.3.18-.6.35-.9.51.79,8.16-1.43,16.79-9.69,19.14"/>
              <path id="Pfad_385" data-name="Pfad 385" d="m124.38,77.31c-1.53-5.5.07-10.04,3.16-13.78-.26-.22-.51-.45-.75-.68-.17.2-.34.39-.5.59-6.57,8.33-2.59,19.56,5.11,25.51.84.65,1.74,1.23,2.68,1.73.23-.29.46-.57.7-.85-4.89-2.72-9.02-7.59-10.39-12.52"/>
              <path id="Pfad_386" data-name="Pfad 386" d="m135.63,90.28c-.29-.14-.57-.29-.86-.45-.24.28-.47.56-.7.85.28.15.56.29.85.42.23-.28.47-.55.71-.83"/>
              <path id="Pfad_387" data-name="Pfad 387" d="m128.17,62.81c-.26-.23-.5-.46-.75-.7-.22.24-.42.49-.62.74.25.23.49.46.75.68.2-.24.41-.48.62-.72"/>
              <path id="Pfad_388" data-name="Pfad 388" d="m142.76,114.16v.14c.01.33.03.66.06.99.33.17.65.33.99.48-.03-.35-.06-.71-.09-1.07-.32-.17-.64-.35-.96-.54"/>
              <path id="Pfad_389" data-name="Pfad 389" d="m142.76,114.16c-2.35-1.38-4.57-2.97-6.64-4.73-5.21-4.38-6.91-9.85-3.13-15.71.59-.91,1.24-1.78,1.93-2.61-.28-.13-.57-.27-.85-.42-3.91,4.92-5.99,10.64-1.47,16.49,2.78,3.41,6.26,6.18,10.21,8.12-.02-.33-.04-.66-.06-.99v-.14"/>
              <path id="Pfad_390" data-name="Pfad 390" d="m125.13,59.45c-4.08-5.82-3.13-13.35.72-18.96,1.39-2.02,3.06-3.83,4.97-5.38.26-.58.55-1.15.87-1.71-3.8,2.65-6.82,6.25-8.78,10.45-2.06,4.86-1.77,10.4.78,15.02.82,1.48,1.87,2.83,3.1,3.98.21-.25.41-.5.62-.74-.84-.81-1.61-1.71-2.29-2.67"/>
              <path id="Pfad_391" data-name="Pfad 391" d="m138.52,59.26c-.19-.16-.38-.33-.57-.49-.21.3-.42.61-.62.92.19.15.37.3.55.44.21-.3.42-.59.64-.87"/>
              <path id="Pfad_392" data-name="Pfad 392" d="m134.97,66.81c.46-2.42,1.46-4.7,2.92-6.68-.19-.15-.37-.29-.55-.44-1.46,2.18-2.49,4.62-3.06,7.18.21.11.43.22.64.33.02-.13.03-.25.05-.37"/>
              <path id="Pfad_393" data-name="Pfad 393" d="m135.74,56.79c-.34.21-.69.42-1.03.64.85.79,1.74,1.54,2.62,2.25.2-.31.41-.62.62-.92-.75-.65-1.49-1.3-2.21-1.97"/>
              <path id="Pfad_394" data-name="Pfad 394" d="m134.8,68.14c-.27-.13-.47-.24-.68-.34-.62,4.26.92,8.56,4.11,11.45,1.29,1.26,2.77,2.31,4.38,3.12.32-.28.63-.55.94-.83-5.36-2.43-9.29-6.79-8.74-13.39"/>
              <path id="Pfad_395" data-name="Pfad 395" d="m143.55,81.54c-.31.28-.63.56-.94.83.3.15.6.29.9.43.32-.29.64-.58.96-.88-.31-.12-.61-.25-.91-.39"/>
              <path id="Pfad_396" data-name="Pfad 396" d="m148.11,27.39c-5.18.4-10.19,2.04-14.6,4.8-.39.56-.76,1.13-1.1,1.72,4.65-3.21,10.09-5.09,15.73-5.44-.01-.36-.02-.72-.04-1.08"/>
              <path id="Pfad_397" data-name="Pfad 397" d="m134.88,55.97c-.34.22-.69.43-1.02.66.28.27.56.54.85.8.34-.22.69-.43,1.03-.64-.29-.27-.57-.55-.85-.82"/>
              <path id="Pfad_398" data-name="Pfad 398" d="m150.08,47.54c2-1.93,3.83-4.03,5.46-6.29,1.5-2.29,2.49-4.87,2.91-7.57-.3-.05-.6-.09-.91-.12-.8,4.98-3.9,9.08-7.56,12.83.03.39.06.77.09,1.15"/>
              <path id="Pfad_399" data-name="Pfad 399" d="m134.37,55.48c-2.77-2.76-5.73-6.53-4.59-10.69.06-.21.13-.41.21-.6-.17-.43-.3-.87-.4-1.32-.5.93-.82,1.94-.95,2.98-.5,4.01,2,7.64,5.22,10.79.33-.22.68-.44,1.02-.66-.17-.16-.34-.32-.51-.49"/>
              <path id="Pfad_400" data-name="Pfad 400" d="m149.08,47.29c.3-.3.6-.6.9-.9-.04-.48-.08-.97-.11-1.46-.27-3.68-.46-7.36-.61-11.04-.31.05-.61.1-.91.16.11,2.62.24,5.25.4,7.87.11,1.79.19,3.58.34,5.37"/>
              <path id="Pfad_401" data-name="Pfad 401" d="m141.64,35.9c2.18-.8,4.43-1.42,6.71-1.85-.01-.3-.03-.6-.04-.9-5.63.97-14.18,3.46-17.9,8.44.04.44.12.87.23,1.3,2.25-3.56,7.49-5.71,11-6.99"/>
              <path id="Pfad_402" data-name="Pfad 402" d="m130.64,42.88c-.11-.43-.18-.86-.23-1.3-.3.41-.58.84-.82,1.28.1.45.23.89.4,1.32.17-.45.39-.89.65-1.3"/>
              <path id="Pfad_403" data-name="Pfad 403" d="m134.8,68.14c.03-.31.07-.63.12-.95-.21-.11-.43-.22-.64-.33-.06.31-.11.62-.16.93.21.11.42.21.68.34"/>
              <path id="Pfad_404" data-name="Pfad 404" d="m166.39,43.04c.08,1.16.04,2.33-.11,3.49.3,0,.6.02.9.04.16-1.34.19-2.7.09-4.05-.46-5.99-4.13-8.66-8.71-9.56-.03.25-.07.49-.11.73,4.77.83,7.55,4.38,7.93,9.36"/>
              <path id="Pfad_405" data-name="Pfad 405" d="m148.35,34.05c.3-.06.61-.11.91-.16-.01-.3-.03-.59-.04-.89-.29.04-.6.09-.91.15.01.3.03.6.04.9"/>
              <path id="Pfad_406" data-name="Pfad 406" d="m144.45,81.92c-.32.29-.63.59-.96.88,3.12,1.34,6.47,2.05,9.86,2.08.17-.35.32-.69.45-1.04-3.21-.11-6.37-.77-9.36-1.93"/>
              <path id="Pfad_407" data-name="Pfad 407" d="m157.5,33.56c.04-.25.07-.51.09-.77-2.63-.32-5.29-.27-7.91.14-.15.02-.31.04-.46.07.01.29.02.59.04.89,2.72-.46,5.49-.57,8.24-.33"/>
              <path id="Pfad_408" data-name="Pfad 408" d="m148.31,33.15c.32-.06.62-.1.91-.15-.06-1.53-.11-3.06-.16-4.59-.31.01-.62.03-.92.05.05,1.56.1,3.12.17,4.68"/>
              <path id="Pfad_409" data-name="Pfad 409" d="m149.07,28.41c0-.27-.02-.54-.03-.81,0-.09,0-.18,0-.26-.31.01-.62.02-.93.04.01.36.03.72.04,1.08.31-.02.62-.04.92-.05"/>
              <path id="Pfad_410" data-name="Pfad 410" d="m157.54,33.56c.31.03.61.07.91.12.04-.24.08-.49.11-.73-.32-.06-.64-.12-.97-.16-.03.26-.05.51-.05.77"/>
              <path id="Pfad_411" data-name="Pfad 411" d="m154.9,83.87c-.36,0-.73,0-1.09-.02-.13.34-.28.69-.45,1.04.36,0,.72.01,1.08,0,.08-.15.16-.31.23-.47.09-.19.16-.37.23-.55"/>
              <path id="Pfad_412" data-name="Pfad 412" d="m160.5,83.34c-1.84.37-3.72.56-5.59.54-.07.19-.15.37-.23.55-.07.16-.15.31-.23.47,2.4-.03,4.78-.32,7.12-.87-.19-.27-.39-.54-.59-.8-.16.04-.31.08-.48.11"/>
              <path id="Pfad_413" data-name="Pfad 413" d="m166.18,47.18c.3.01.61.03.91.06.03-.22.06-.44.09-.66-.3-.02-.6-.03-.9-.04-.03.22-.06.43-.09.65"/>
              <path id="Pfad_414" data-name="Pfad 414" d="m177.79,53.05c3.72,5.98,1,14.36-2.28,19.86-2.98,5.04-7.87,8.68-13.56,10.08.19.26.38.53.57.8,1.31-.35,2.6-.79,3.85-1.32,9.75-4.16,16.62-17.75,13.1-27.96-1.93-5.61-6.89-7.6-12.3-7.93-.03.22-.05.44-.09.66,4.42.35,8.32,1.98,10.7,5.81"/>
              <path id="Pfad_415" data-name="Pfad 415" d="m160.98,83.22c.2.26.4.53.59.8.32-.07.64-.16.96-.24-.19-.27-.37-.54-.56-.8-.32.09-.65.16-.98.24"/>
              <g id="Gruppe_425" data-name="Gruppe 425" class="cls-6">
                <g id="Gruppe_424" data-name="Gruppe 424">
                  <g class="cls-8">
                    <g id="Gruppe_423" data-name="Gruppe 423">
                      <path id="Pfad_416" data-name="Pfad 416" class="cls-3" d="m169.09,197.95l-3.76-5.74-9.18.1-1.32-8.76-6.42,5.76-4.62-5.73-3.34,4.42-7.28-3.39-2.88,4.47,4.92,7.32-8.47,2.26-8.16-3.47c-1.69-8.88.65-18.05,6.38-25.04,3.37-4.12,5.64-9.04,6.6-14.27.24-1.34,1.16-2.47,2.43-2.96l21.04-.08c1.27.46,2.21,1.56,2.46,2.89.29,1.5.68,2.97,1.17,4.41,0,.03.01.05.03.07,1.23,3.57,3.1,6.89,5.5,9.81,4.54,5.46,7.03,12.34,7.04,19.44,0,.21,0,.41-.01.62l-2.13,7.87Z"/>
                    </g>
                  </g>
                </g>
              </g>
              <g id="Gruppe_428" data-name="Gruppe 428" class="cls-10">
                <g id="Gruppe_427" data-name="Gruppe 427">
                  <g class="cls-20">
                    <g id="Gruppe_426" data-name="Gruppe 426">
                      <path id="Pfad_417" data-name="Pfad 417" class="cls-3" d="m169.18,185.99l-5.06-10.55-5.72,4.38-7.86,1.12-5.39-5.02-6.9,20.02-11.69-10.51-3.82,14.76-3.32-1.63c-.31-.98-.57-1.98-.77-2.99-1.81-8.99.51-18.32,6.31-25.42,3.37-4.12,5.64-9.03,6.6-14.27.24-1.34,1.16-2.46,2.43-2.96l21.04-.08c1.27.46,2.21,1.56,2.46,2.89.29,1.5.68,2.97,1.17,4.41,0,.03.02.05.03.07,1.23,3.57,3.1,6.89,5.5,9.81,4.54,5.46,7.03,12.34,7.04,19.45,0,.08,0,.16,0,.25l-2.04-3.72Z"/>
                    </g>
                  </g>
                </g>
              </g>
              <path id="Pfad_418" data-name="Pfad 418" class="cls-22" d="m134.1,152.91l-.02-7.24v-3.33s-.01-.12-.01-.12c0-2.08,1.64-3.78,3.71-3.85h-.05v-.31c-.01-3.77,3.03-6.83,6.79-6.85s6.83,3.03,6.85,6.79v.32h-.23c2.08.06,3.73,1.75,3.74,3.83v3.45s.03,7.24.03,7.24l-20.81.06Z"/>
              <path id="Pfad_419" data-name="Pfad 419" d="m138.09,138.07c4.3-.11,8.6-.14,12.9-.09.19,0,.34.18.33.37,0,.18-.15.32-.33.33-4.3-.06-8.6-.04-12.91.08-.19,0-.35-.16-.35-.35s.16-.35.35-.35"/>
              <path id="Pfad_420" data-name="Pfad 420" d="m134.42,145.54c6.66-.04,13.31-.05,19.97-.04.19,0,.34.18.33.37,0,.18-.15.32-.33.33-6.65-.01-13.31,0-19.96.03-.19,0-.35-.16-.35-.35s.16-.35.35-.35"/>
              <path id="Pfad_421" data-name="Pfad 421" d="m140.36,152.9c-1.02,5.74-2.14,11.47-4.94,16.64-1.68,2.86-3.05,5.89-4.06,9.05-1,3.29-1.77,6.64-2.31,10.04-.05.35-.61.35-.56,0,.73-6.16,2.58-12.14,5.48-17.63,3.22-5.73,4.67-11.68,5.82-18.09h.57Z"/>
              <path id="Pfad_422" data-name="Pfad 422" d="m159.24,188.73c-.5-3.4-1.23-6.76-2.19-10.06-.98-3.17-2.3-6.22-3.95-9.09-2.74-5.21-3.78-10.96-4.74-16.7h.56c1.08,6.44,2.46,12.39,5.61,18.18,2.83,5.52,4.61,11.52,5.27,17.69.04.36-.52.35-.56,0"/>
              <path id="Pfad_423" data-name="Pfad 423" class="cls-23" d="m64.84,278.47h5.29c-.04-.61-.06-1.22-.06-1.82.04-2.09.21-4.18.52-6.26.23-1.99.7-3.95,1.38-5.83.42-.99.76-2.01,1.02-3.05.17-.81.22-1.64.15-2.47h-7.53c.19,1.47.08,2.96-.31,4.39-.26.77-.55,1.53-.74,2.33-.18.77-.31,1.55-.39,2.34-.18,3.33.02,6.67.6,9.95.02.14.04.28.06.43"/>
              <path id="Pfad_424" data-name="Pfad 424" class="cls-5" d="m70.21,278.47c.06-.53.11-1.05.16-1.57-1.99.12-3.99.09-5.97-.07,0,0,.07.73.15,1.64h5.66Z"/>
              <path id="Pfad_425" data-name="Pfad 425" class="cls-2" d="m76.43,289.07c-.16-.63-.57-1.17-1.13-1.49-1.02-.69-4.22-1.6-4.56-1.91-.59-.65-.86-1.52-.75-2.38.06-1.78.29-3.57.44-5.34-2.02.35-4.09.32-6.1-.07,0,0,.26,3.18.39,4.78.09.78.11,1.56.07,2.34-.07.68-.18,1.36-.34,2.03-.16.67-.25,1.34-.29,2.03v.37c.43.43,1.43.4,1.91.37,1.18-.12,2.37-.17,3.56-.16,1.55.1,3.09.35,4.65.41.51.03,1.02,0,1.52-.06.42-.1.69-.5.64-.92"/>
              <path id="Pfad_426" data-name="Pfad 426" class="cls-23" d="m55.79,278.47h5.29c-.04-.61-.06-1.22-.06-1.82.04-2.09.21-4.18.52-6.26.23-1.99.69-3.95,1.38-5.83.42-.99.76-2.01,1.02-3.05.17-.81.22-1.64.15-2.47h-7.53c.19,1.47.08,2.96-.31,4.39-.26.77-.55,1.53-.74,2.33-.18.77-.31,1.55-.39,2.34-.18,3.33.02,6.67.6,9.95.02.14.04.28.06.43"/>
              <path id="Pfad_427" data-name="Pfad 427" class="cls-5" d="m61.16,278.47c.06-.53.11-1.05.16-1.57-1.99.12-3.99.09-5.97-.07,0,0,.07.73.15,1.64h5.66Z"/>
              <path id="Pfad_428" data-name="Pfad 428" class="cls-12" d="m67.38,289.07c-.16-.63-.57-1.17-1.13-1.49-1.02-.69-4.22-1.6-4.56-1.91-.59-.65-.86-1.52-.75-2.38.06-1.78.29-3.57.44-5.34-2.02.35-4.09.32-6.11-.07,0,0,.26,3.18.39,4.78.09.78.11,1.56.07,2.34-.07.68-.18,1.36-.34,2.03-.15.67-.25,1.34-.29,2.03v.37c.42.43,1.43.4,1.91.37,1.18-.12,2.37-.17,3.56-.16,1.55.1,3.09.35,4.65.41.51.03,1.02.01,1.53-.06.42-.1.69-.5.64-.92"/>
              <path id="Pfad_429" data-name="Pfad 429" class="cls-23" d="m90.94,200.38c-.34-.35-.73.44-.87.64-.44.54-.99.97-1.61,1.26.19-.21.37-.43.57-.62.17-.16.33-.33.49-.51.15-.22.29-.45.4-.69.11-.22.23-.44.33-.67.07-.12.06-.26-.01-.37-.23-.24-.59.03-.8.26.03-.12.03-.25-.02-.37-.17-.41-.54-.02-.72.16-.57.53-1.14,1.06-1.74,1.56-.25.24-.52.46-.81.65-.04.03-.08.06-.12.09-.11-.05-.21-.09-.32-.15-.02-.04.09-.25.11-.29.06-.12.11-.24.16-.36.07-.22.08-.73-.28-.67-.2.03-.41.36-.52.5-.21.24-.39.5-.55.77-.24.47-.35,1.01-.3,1.53.03.73-.08,1.47-.32,2.16-.14.37-.32.73-.54,1.06-.22.29-.43.59-.62.91,0,.02,2.42,1.06,2.99,1.22.11-1.18,1.25-1.97,1.98-2.78.34-.4.7-.77,1.1-1.1.43-.28.84-.6,1.2-.96.28-.4.54-.82.75-1.27.08-.15.28-.48,0-.57-.23-.08-.54.3-.68.41-.04.04-.09.08-.13.12.13-.15.26-.31.39-.47.2-.27.87-1.06.52-1.43"/>
              <path id="Pfad_430" data-name="Pfad 430" class="cls-7" d="m86.56,207.64c-1.22-.35-2.37-.91-3.4-1.66-1.7,1.68-3.44,4.22-5.22,5.81-1.92,1.72-2.92-.22-5.32-2.37-1.71-1.53-3.14-3.01-4.57-3.6-2.81-1.17-4.98-.84-7.51-1.02-4.34-.3-7.01-.36-9.56,1.84-2.78,2.4-5.04,8.56-5.48,9.95s-1.05,2.72-1.51,4.1c-.68,2.07-1.09,3.88.26,5.76.79,1.11,6.44,5.21,8,6.2.42-.77.89-1.52,1.41-2.23-.58,4.39-.8,8.82-1.03,13.23-.26,5.06-.53,10.11-.79,15.17,8.21,3.2,17.03,1.23,25.26-.02-.83-6.67-1.94-13.29-3.32-19.88-.7-3.31-1.47-6.6-2.3-9.88-.83-3.26-2.12-5.63-1.72-9.02.25-1.55.25-3.12,0-4.67.36.23,1.6.87,1.95,1.09,1.89,1.16,4.07,2.13,6.32,1.85,2.18-.27,3.56-2.42,4.86-4.1,1.59-2.05,2.15-4.42,3.65-6.55m-32.35,21.74c-.98-1.08-4.89-5.88-5.51-6.39,1.63-2.23,3.71-5.02,4.36-7.68.77,2.16,1.41,4.37,1.94,6.61,0,.02.25,1.78.25,1.79-.2,1.91-.55,3.81-1.04,5.67"/>
              <path id="Pfad_431" data-name="Pfad 431" class="cls-23" d="m56.92,200.45c-.09-.8-.18-1.34-.18-1.34.75-.12,1.35-.68,1.54-1.42,0-.02.97-6.71,3.25-6.96,2.7-.29,3.94.43,4.49,3.06.18.83.69,1.55,1.4,2,.14.14.14.36,0,.5-.07.07-.17.11-.26.11l-.4.03c-.09,0-.16.08-.15.17.02.71-.04,1.42-.2,2.12-.37,1.5-.17,3.07-2.77,3.03-.3,0-.59-.02-.89-.06.09,1.52.32,3.03.66,4.51.06.29.11.61.11.61-.95,1.24-4.08.78-5.43-.47-.54-.5-1.37-1.28-1.34-1.44.28-1.47.34-2.98.16-4.47"/>
              <rect id="Rechteck_56" data-name="Rechteck 56" class="cls-21" x="54.95" y="214.28" width="41.59" height="6.61" transform="translate(-149.31 168.31) rotate(-58.46)"/>
              <path id="Pfad_432" data-name="Pfad 432" class="cls-21" d="m92.55,185.49l-4.82,7.85,4.18,2.56,4.82-7.86c3.03,3.44,2.7,8.69-.75,11.73-3.44,3.03-8.69,2.7-11.73-.75-3.03-3.44-2.7-8.69.75-11.73,2.06-1.82,4.89-2.49,7.55-1.81"/>
              <path id="Pfad_433" data-name="Pfad 433" class="cls-21" d="m56.56,244.18l4.82-7.86,4.18,2.56-4.82,7.85c4.44,1.14,8.97-1.54,10.11-5.99s-1.54-8.97-5.99-10.11c-4.44-1.14-8.97,1.54-10.11,5.99-.68,2.66,0,5.49,1.81,7.55"/>
              <path id="Pfad_434" data-name="Pfad 434" class="cls-25" d="m67.76,230.6h0c.41.25.95.12,1.2-.29,0,0,0,0,0,0l16.44-26.81c.24-.42.1-.95-.32-1.19-.4-.23-.91-.11-1.17.28l-16.44,26.81c-.25.41-.12.95.29,1.2"/>
              <path id="Pfad_435" data-name="Pfad 435" class="cls-23" d="m58.12,237.55c.4-.28-.32-.79-.49-.96-.46-.52-.8-1.13-1-1.79.18.22.36.43.53.66.13.2.27.38.43.56.19.19.4.36.62.51.2.14.4.3.61.43.1.09.25.11.37.04.28-.19.07-.59-.13-.83.11.05.24.06.36.04.44-.11.1-.53-.04-.74-.43-.65-.87-1.29-1.27-1.96-.21-.28-.38-.58-.52-.9-.03-.04-.05-.09-.07-.13.06-.09.13-.19.19-.29.05-.01.23.13.27.16.11.08.22.15.33.21.21.1.71.19.71-.17,0-.21-.29-.46-.41-.59-.21-.24-.43-.46-.68-.66-.43-.31-.94-.5-1.47-.54-.73-.09-1.43-.31-2.08-.66-.35-.19-.67-.42-.96-.69-.25-.27-.52-.52-.8-.76-.01-.01-1.42,2.23-1.66,2.77,1.14.29,1.75,1.54,2.43,2.4.34.39.64.81.91,1.25.2.47.46.92.76,1.33.35.34.73.66,1.13.94.14.1.43.35.56.09.11-.22-.21-.58-.3-.73-.03-.05-.07-.1-.09-.15.13.16.26.31.4.46.24.24.91,1.03,1.33.74"/>
              <path id="Pfad_436" data-name="Pfad 436" class="cls-24" d="m54.61,229.67c-.55.38-1.04.85-1.45,1.37-.36.5-.67,1.04-.91,1.61l-1.97-1.35,2.28-3.82,2.04,2.19Z"/>
              <path id="Pfad_437" data-name="Pfad 437" class="cls-12" d="m51.92,194.1c.45-.31,1-.41,1.53-.28-.26-1.01-.2-2.07.17-3.05.71-1.65,2.05-2.95,3.73-3.59,3.64-1.4,3.96.29,5.96.19.72-.04,1.36-.31,2.01.13.66.48,1.05,1.24,1.05,2.06,0,2.64-2.1,2.04-3.2,2.98-.65.64-1.14,1.41-1.45,2.26-.37,1.06-1.53,1.49-2.01,2.49-.5,1.04-.68,2.67-1.56,3.46-.69.63-2.31-.02-2.9-.78-.56.33-1.23.43-1.86.27-1.01-.23-1.77-1.4-2.22-2.85-.47-1.15-.17-2.48.77-3.31"/>
            </g>
          </g>
        </g>
      </g>
    </g>
  </g>
</svg>