<?xml version="1.0" encoding="UTF-8"?>
<svg id="Ebene_2" data-name="Ebene 2" xmlns="http://www.w3.org/2000/svg" xmlns:xlink="http://www.w3.org/1999/xlink" viewBox="0 0 299.26 256.71">
  <defs>
    <style>
      .cls-1 {
        fill: #9cd2f3;
      }

      .cls-2 {
        fill: #fff;
      }

      .cls-3 {
        fill: #f7e652;
      }

      .cls-4 {
        fill: #29817e;
      }

      .cls-5 {
        fill: #30637d;
      }

      .cls-6 {
        fill: #7abde1;
      }

      .cls-7 {
        fill: #bf7968;
      }

      .cls-8 {
        fill: #11242e;
      }

      .cls-9 {
        fill: #e2f0eb;
      }

      .cls-10 {
        fill: #a65852;
      }

      .cls-11 {
        clip-path: url(#clippath);
      }

      .cls-12 {
        fill: none;
      }

      .cls-13 {
        fill: #f49f8b;
      }

      .cls-14 {
        fill: #264d62;
      }

      .cls-15 {
        fill: #4693b9;
      }

      .cls-16 {
        fill: #52bbaf;
      }
    </style>
    <clipPath id="clippath">
      <rect class="cls-12" width="299.26" height="256.71"/>
    </clipPath>
  </defs>
  <g id="Ebene_1-2" data-name="Ebene 1">
    <g class="cls-11">
      <g id="Gruppe_440" data-name="Gruppe 440">
        <path id="Pfad_503" data-name="Pfad 503" class="cls-16" d="m299.26,246.96c0,5.3-66.99,9.6-149.63,9.6S0,252.26,0,246.96s66.99-9.6,149.63-9.6,149.63,4.3,149.63,9.6"/>
        <path id="Pfad_504" data-name="Pfad 504" class="cls-16" d="m263.88,246.93s-13.57-25.52-2.55-25.25c4.54.12,8.45,20.4,8.45,20.4,0,0-.89-18.51,8.18-15.61,4.9,1.57-2.52,15.61-2.52,15.61,0,0,6.72-9.06,10.5-6.49,6.16,4.19-5.15,11.41-5.15,11.41l-16.92-.07Z"/>
        <path id="Pfad_505" data-name="Pfad 505" class="cls-16" d="m257.93,246.91s-2.39-13.51-7.64-13.28c-3.76.17-.37,9.32,2.82,13.27,0,0,4.68,0,4.83.01"/>
        <path id="Pfad_506" data-name="Pfad 506" class="cls-9" d="m267.18,246.94l-5.65-20c-.03-.14-.17-.22-.31-.19-.14.03-.22.17-.19.31,0,0,0,.01,0,.02l5.61,19.86h.52Z"/>
        <path id="Pfad_507" data-name="Pfad 507" class="cls-9" d="m271.86,246.96l3.92-16.18c.04-.14-.04-.28-.18-.31-.14-.04-.28.04-.31.18,0,0,0,.01,0,.02l-3.94,16.3h.52Z"/>
        <path id="Pfad_508" data-name="Pfad 508" class="cls-9" d="m255.45,246.89l-3.61-9.02c-.05-.13-.2-.19-.33-.14-.13.05-.19.2-.14.33l3.54,8.84h.54Z"/>
        <path id="Pfad_509" data-name="Pfad 509" class="cls-9" d="m276.02,246.99l7.12-8.03c.1-.1.09-.26,0-.36-.1-.1-.26-.09-.36,0,0,0-.01.01-.02.02l-7.41,8.36h.68Z"/>
        <path id="Pfad_510" data-name="Pfad 510" class="cls-16" d="m106.61,242.29s-9.28-13.76-3.37-19.03c3.63-3.23,5.4,7.12,5.4,7.12,0,0,2.06-19.75,8.74-15.58,3.27,2.04-3.6,20.25-3.6,20.25,0,0,4.88-9.47,8.74-6.87,6.23,4.2-8.61,13.97-8.61,13.97l-7.31.14Z"/>
        <path id="Pfad_511" data-name="Pfad 511" class="cls-9" d="m110.15,242.22l4.8-22.37c.02-.12-.05-.24-.18-.27-.12-.03-.24.05-.27.18l-4.82,22.47h.47Z"/>
        <path id="Pfad_512" data-name="Pfad 512" class="cls-9" d="m112.7,242.17l8.84-10.74c.08-.1.05-.25-.05-.32-.09-.07-.23-.06-.31.03l-9.09,11.04h.6Z"/>
        <path id="Pfad_513" data-name="Pfad 513" class="cls-9" d="m108.52,242.25l-3.63-16.39c-.02-.12-.14-.2-.26-.18,0,0,0,0-.01,0-.12.03-.2.15-.17.27,0,0,0,0,0,0l3.61,16.3h.47Z"/>
        <path id="Pfad_514" data-name="Pfad 514" class="cls-16" d="m22.87,247.35s10.16-18.6,3.42-20.96c-4.45-1.56-5.9,15.83-5.9,15.83,0,0-.4-19.29-6.31-16.81-4.46,1.86,1.5,15.78,1.5,15.78,0,0-6.47-5.25-7.29-1.95-1.3,5.24,6.16,8.22,6.16,8.22l8.44-.09Z"/>
        <path id="Pfad_515" data-name="Pfad 515" class="cls-9" d="m20.78,247.37l4.92-15.41c.03-.08-.02-.17-.1-.2-.09-.03-.18.02-.21.1l-4.95,15.51h.34Z"/>
        <path id="Pfad_516" data-name="Pfad 516" class="cls-9" d="m19.5,247.38l-3.52-16.8c-.03-.08-.13-.13-.21-.1-.07.03-.11.09-.11.16l3.51,16.73h.33Z"/>
        <path id="Pfad_517" data-name="Pfad 517" class="cls-9" d="m17.69,247.4l-6.7-5.76c-.08-.05-.18-.03-.23.05-.04.06-.03.14.01.19l6.42,5.52h.49Z"/>
        <path id="Pfad_518" data-name="Pfad 518" class="cls-1" d="m199.36,40.48v-1.61l-4.07-.28c-.15-4.46-1.3-8.83-3.35-12.8l3.64-1.95-.66-1.47-4.03,1.53c-1.98-3.23-4.54-6.06-7.56-8.34l2.48-3.61-1.27-.99-3,3.34c-4.27-2.78-9.17-4.43-14.25-4.79l-.27-4.35h-1.61l-.29,4.26h-.02c-4.49,0-8.92,1-12.98,2.93l-2.2-3.65-1.43.75,1.72,3.91c-3.97,2.26-7.39,5.39-9.99,9.14l-3.72-2.19-.9,1.33,3.45,2.69c-2.55,4.32-3.98,9.22-4.15,14.23l-4.07.27v1.61l4.07.25c.13,3.75.95,7.45,2.45,10.9l-3.9,2.06.66,1.47,4.18-1.56c1.78,3.4,4.18,6.43,7.08,8.93l-2.29,3.38,1.27.99,2.68-3.02c4.9,3.67,10.81,5.76,16.92,5.98l.26,3.86h1.6l.24-3.85c4.82-.15,9.54-1.45,13.74-3.81l2.65,3.22,1.31-.94-2.12-3.4c3.52-2.31,6.52-5.33,8.81-8.86l3.49,1.82.84-1.37-3.23-2.26c2.3-4.15,3.58-8.78,3.74-13.52l4.07-.25Zm-34.27,26.41c-15.04,0-27.24-12.2-27.24-27.24,0-15.04,12.2-27.24,27.24-27.24,15.04,0,27.24,12.2,27.24,27.24-.02,15.04-12.2,27.23-27.24,27.24"/>
        <path id="Pfad_519" data-name="Pfad 519" class="cls-4" d="m148.5,23.93l-.23.02c-.91.06-1.76-.5-2.04-1.37-.51-1.5-1.24-2.92-2.16-4.21-.6-.81-.51-1.94.21-2.64l.03-.03c1.09-1,1.22-2.68.29-3.83-.97-1.14-2.68-1.27-3.82-.3-.04.03-.08.07-.11.1l-.19.18c-1.05,1-2.59,1.31-3.95.79-.86-.34-1.75-.62-2.65-.82-.9-.16-1.57-.91-1.64-1.82l-.03-.35c-.08-1.48-1.28-2.64-2.76-2.67-1.5.03-2.69,1.27-2.66,2.76,0,.05,0,.1,0,.14l.04.51c.06.91-.5,1.74-1.36,2.03-1.48.51-2.88,1.24-4.16,2.16-.72.53-1.71.52-2.42-.03l-.65-.52c-1.14-.94-2.82-.83-3.83.25-.99,1.13-.88,2.84.25,3.83.04.03.08.06.11.09l.62.48c.72.58.96,1.57.57,2.41-.56,1.24-.95,2.54-1.19,3.88-.15.91-.9,1.59-1.81,1.67l-.23.02c-1.48.08-2.64,1.3-2.66,2.78.03,1.5,1.27,2.68,2.77,2.65.05,0,.1,0,.15,0l.47-.04c.9-.06,1.73.48,2.03,1.33.53,1.46,1.27,2.84,2.2,4.09.55.72.54,1.72-.01,2.44l-.1.12c-.94,1.14-.83,2.82.25,3.83,1.12.99,2.84.88,3.83-.25.03-.04.06-.08.1-.12l.14-.18c.57-.72,1.56-.96,2.4-.58,1.11.48,2.26.84,3.45,1.07.9.16,1.57.91,1.65,1.82v.19c.09,1.48,1.3,2.64,2.78,2.67,1.5-.03,2.69-1.26,2.66-2.76,0-.05,0-.1,0-.15l-.02-.35c-.06-.9.49-1.74,1.35-2.03,1.36-.47,2.64-1.11,3.83-1.92.72-.5,1.67-.47,2.36.07l.43.34c1.14.94,2.82.83,3.84-.25.99-1.13.87-2.84-.25-3.83-.04-.03-.07-.06-.11-.09l-.21-.16c-.74-.59-.97-1.62-.54-2.46.61-1.25,1.05-2.57,1.32-3.93.17-.88.9-1.54,1.8-1.62l.48-.04c1.5-.12,2.61-1.42,2.5-2.92,0-.05,0-.09-.01-.14-.24-1.46-1.58-2.48-3.05-2.34m-19.99-9.15c7.2-1.27,14.06,3.54,15.33,10.73,1.27,7.2-3.54,14.06-10.73,15.33-7.2,1.27-14.06-3.54-15.33-10.73-.16-.89-.22-1.8-.2-2.7.2-6.26,4.76-11.53,10.93-12.63"/>
        <path id="Pfad_520" data-name="Pfad 520" class="cls-4" d="m130.36,21.58c-3.4.24-5.96,3.2-5.72,6.6.24,3.4,3.2,5.96,6.6,5.72,3.4-.24,5.96-3.2,5.72-6.59-.24-3.4-3.2-5.96-6.6-5.72h0m.61,8.49c-1.24.09-2.32-.85-2.41-2.09-.09-1.24.85-2.32,2.09-2.41,1.24-.09,2.32.84,2.41,2.09.09,1.24-.85,2.32-2.09,2.41"/>
        <path id="Pfad_521" data-name="Pfad 521" class="cls-15" d="m214.88,63.57l-.65-3.85c-.11-.68-.76-1.14-1.44-1.03,0,0,0,0,0,0l-1.51.26c-.72.12-1.42-.31-1.66-1-.5-1.42-1.14-2.78-1.89-4.09-.4-.66-.23-1.51.38-1.97l1.61-1.2c.55-.42.67-1.2.25-1.75l-2.34-3.13c-.41-.55-1.2-.67-1.75-.26h0s-2.1,1.57-2.1,1.57c-.56.41-1.33.38-1.85-.07-1.2-.99-2.49-1.86-3.85-2.62-.63-.34-.94-1.07-.73-1.76l.77-2.44c.21-.66-.16-1.36-.82-1.57l-3.73-1.17c-.66-.21-1.36.16-1.57.82l-.7,2.22c-.23.71-.95,1.15-1.69,1.02-1.15-.17-2.32-.27-3.49-.28-.73,0-1.37-.52-1.5-1.24l-.36-2.1c-.12-.68-.76-1.14-1.45-1.03l-3.85.65c-.68.12-1.14.76-1.03,1.44l.36,2.11c.12.72-.31,1.43-1,1.66-1.32.47-2.59,1.05-3.81,1.73-.66.39-1.5.22-1.96-.38l-1.36-1.82c-.41-.55-1.2-.67-1.75-.26,0,0,0,0,0,0l-3.13,2.34c-.56.41-.67,1.2-.26,1.75,0,0,0,0,0,0l1.66,2.22c.42.57.38,1.35-.08,1.88-.83.97-1.58,2.01-2.25,3.09-.35.6-1.07.87-1.73.67l-2.25-.71c-.66-.21-1.37.16-1.57.82l-1.17,3.73c-.21.66.16,1.36.82,1.57,0,0,0,0,0,0l1.63.51c.73.24,1.17.99,1,1.74-.3,1.52-.46,3.07-.47,4.62,0,.73-.52,1.36-1.23,1.49l-1.73.29c-.68.11-1.14.76-1.03,1.45,0,0,0,0,0,0l.65,3.85c.12.68.76,1.14,1.45,1.03l1.72-.29c.72-.12,1.43.31,1.66,1,.45,1.26,1,2.49,1.65,3.66.38.66.21,1.49-.39,1.95l-1.31.97c-.55.41-.67,1.2-.25,1.76l2.34,3.13c.41.55,1.2.67,1.75.25l1.65-1.23c.57-.42,1.36-.38,1.89.09,1.25,1.07,2.6,2.01,4.03,2.82.63.34.93,1.08.72,1.76l-.78,2.49c-.21.66.16,1.36.82,1.57l3.73,1.17c.66.21,1.36-.16,1.57-.82l.69-2.2c.23-.71.96-1.15,1.7-1.02,1.22.19,2.46.3,3.69.31.73,0,1.36.52,1.49,1.24l.35,2.08c.12.68.76,1.14,1.45,1.03,0,0,0,0,0,0l3.85-.65c.68-.12,1.14-.76,1.03-1.45l-.35-2.08c-.12-.73.31-1.43,1-1.67,1.47-.53,2.89-1.19,4.23-1.98.66-.4,1.52-.24,2,.37l1.08,1.44c.41.56,1.2.67,1.75.26,0,0,0,0,0,0l3.13-2.34c.55-.41.67-1.2.25-1.76l-1.48-1.98c-.41-.56-.39-1.32.06-1.85.83-1.02,1.57-2.11,2.23-3.25.34-.62,1.07-.91,1.75-.71l1.97.62c.66.21,1.36-.16,1.57-.82,0,0,0,0,0,0l1.17-3.73c.21-.66-.16-1.36-.82-1.57,0,0,0,0,0,0l-1.55-.49c-.72-.23-1.15-.96-1.02-1.71.22-1.32.34-2.66.35-4,0-.74.52-1.37,1.25-1.49l1.51-.25c.68-.12,1.14-.76,1.03-1.45m-22.89,19.21c-8.99,3.44-19.07-1.06-22.51-10.05-3.44-8.99,1.06-19.07,10.05-22.51s19.07,1.06,22.51,10.05c.82,2.15,1.21,4.43,1.14,6.73-.21,7.04-4.62,13.26-11.2,15.78"/>
        <path id="Pfad_522" data-name="Pfad 522" class="cls-5" d="m166.82,14.74c-.06,1.06.75,1.96,1.81,2.02.03,0,.07,0,.1,0h.34c.64,0,1.19.43,1.35,1.05.26.95.64,1.86,1.13,2.71.34.57.23,1.31-.26,1.76l-.14.13c-.78.71-.84,1.93-.13,2.71.02.03.05.05.07.08.77.71,1.96.7,2.72-.02l.29-.26c.46-.41,1.13-.48,1.66-.17.88.51,1.82.9,2.8,1.16.62.16,1.06.72,1.06,1.36v.25c0,1.06.86,1.92,1.92,1.92.03,0,.07,0,.1,0,1.04-.09,1.84-.97,1.82-2.02v-.14c0-.64.44-1.2,1.07-1.36.83-.22,1.63-.53,2.38-.93.57-.31,1.28-.19,1.73.29l.11.12c.71.78,1.93.84,2.71.13.03-.02.05-.05.07-.07.71-.77.7-1.96-.02-2.72l-.07-.08c-.43-.48-.49-1.18-.14-1.72.59-.93,1.04-1.94,1.35-3,.17-.62.73-1.04,1.36-1.04h.34c1.06,0,1.92-.86,1.93-1.92,0-.03,0-.07,0-.1-.09-1.04-.97-1.84-2.02-1.83h-.16c-.65,0-1.21-.45-1.36-1.08-.23-.93-.58-1.83-1.04-2.68-.32-.57-.2-1.29.28-1.73l.41-.37c.78-.71.84-1.93.13-2.71-.02-.02-.05-.05-.07-.07-.77-.71-1.96-.7-2.72.02l-.44.4c-.47.42-1.17.48-1.7.14-.95-.58-1.97-1.02-3.04-1.31-.62-.16-1.06-.72-1.06-1.37v-.37c0-1.06-.85-1.92-1.91-1.92-.04,0-.08,0-.11,0-1.04.09-1.84.98-1.82,2.03v.25c0,.64-.44,1.21-1.07,1.37-.63.19-1.24.43-1.83.72-.93.44-2.03.3-2.83-.36l-.14-.12c-.82-.68-2.03-.56-2.7.26-.02.03-.04.05-.06.08-.6.86-.42,2.04.4,2.69l.02.02c.55.46.67,1.25.29,1.86-.58.96-1.02,2-1.31,3.08-.16.63-.72,1.07-1.37,1.07h-.16c-1.05-.03-1.94.77-2.03,1.81m24.03-.92c.53,5.15-3.21,9.75-8.36,10.27-5.15.53-9.75-3.21-10.27-8.36-.53-5.15,3.21-9.75,8.36-10.27.64-.07,1.28-.07,1.92,0,4.41.46,7.9,3.95,8.35,8.36"/>
        <path id="Pfad_523" data-name="Pfad 523" class="cls-16" d="m68.06,73.58c3.44,1.88,7.2,3.12,11.08,3.66,3.02.42,5.78.92,7.93-2.19,4.04-6.15,5.28-13.72,3.43-20.84-.32-1.2-.74-2.37-1.25-3.51-.88-2.79-2.29-5.38-4.18-7.62-3.49-4.1-8.28-6.73-13.37-8.53-2.54-.87-5.13-1.61-7.75-2.2-3.19-.75-6.95-1.08-8.79-4-.41-.65-1.35-.25-1.59.48-1.5,4.64-3.01,9.34-3.37,14.09-.3,4.37.51,8.74,2.35,12.71,3.32,7.43,8.48,14.07,15.52,17.95"/>
        <path id="Pfad_524" data-name="Pfad 524" class="cls-9" d="m66.68,71.91c2.43-1.07,5.22-.96,7.56.31,1.29.74,2.7,1.24,4.16,1.48,1.47.14,2.95.14,4.42,0-.93-2.73-2.03-5.4-3.29-8-.03-.07-.07-.13-.1-.2-6.91-2.07-14.09,1.19-21.07-.46-.51-.12-.37-.92.14-.8,6.75,1.6,13.69-1.41,20.41.27-1.69-2.97-3.7-5.74-6-8.27-.76-.86-1.53-1.72-2.31-2.58-1.91-.12-3.82-.07-5.71.18-1.65.09-3.29-.11-4.87-.61-3.19-1.01-6-2.9-9.2-3.89-.5-.15-.35-.96.15-.8,3.13.97,5.9,2.77,9.01,3.82,1.78.58,3.67.79,5.54.62,1.42-.16,2.85-.23,4.27-.2-2.59-2.86-5.17-5.71-7.53-8.76-4.27-1.27-8.8-2.87-10.84-7.18-.22-.48.55-.76.76-.29,1.74,3.69,5.56,5.24,9.24,6.37-.87-1.17-1.71-2.37-2.5-3.62-2.18-3.37-3.89-7.02-5.07-10.86-.15-.5.61-.79.76-.28,1.77,5.5,4.52,10.63,8.11,15.16.17.06.29.21.29.39.37.48.75.96,1.13,1.43.36-1.18.6-2.39.7-3.61.15-2.76.03-5.53-.37-8.27,0-.23.17-.41.39-.42.21,0,.39.14.42.35.48,4.23.9,8.61-.54,12.7.3.37.61.74.91,1.1,1.73,2.04,3.57,4.01,5.39,5.99.01.01.02.03.03.04.98,1.06,1.94,2.12,2.88,3.21,1.7-2.72,1.61-6.04,1.41-9.14-.34-3.32-.14-6.67.6-9.92.14-.5.94-.36.8.15-.49,1.84-.75,3.73-.78,5.63-.02,1.86.2,3.7.27,5.56.13,2.92-.13,5.88-1.76,8.38,1.99,2.3,3.74,4.8,5.21,7.46.9,1.69,1.7,3.43,2.4,5.21,2.79-2.6,2.87-6.75,2.92-10.33.04-3.77.51-7.3,2.26-10.69.25-.47.98-.12.74.34-.96,1.83-1.61,3.81-1.93,5.86-.23,2.26-.33,4.54-.31,6.82-.13,3.22-.85,6.59-3.36,8.8.77,1.98,1.47,4,2.16,6.02.17.49-.59.78-.77.28-.25-.72-.49-1.44-.74-2.16-2.68.18-5.43.3-7.91-.88-1.25-.73-2.61-1.27-4.03-1.58-1.43-.18-2.87.04-4.18.64-.48.21-.76-.55-.28-.77"/>
        <path id="Pfad_525" data-name="Pfad 525" class="cls-16" d="m203.11,109.74c-7.49,2.11-15.53,6.05-18.89,13.96-2.73,6.42-4.97,15.24,2.52,19.2,8.57,4.53,18.43,3.36,25.92-1.6,5.3-3.52,9.75-8.17,13.02-13.61,2.92-5,5.84-10.01,8.75-15.02.22-.38.09-.87-.29-1.09-.08-.05-.18-.08-.27-.1-5.43-.31-10.83-.97-16.18-1.97-4.99-.92-9.72-1.14-14.58.22"/>
        <path id="Pfad_526" data-name="Pfad 526" class="cls-9" d="m233.99,112.29c-3.19,1.96-6.52,3.7-9.95,5.2-.29.12-.57.23-.87.34,1.06.02,2.13.03,3.19.1,1.34.06,2.65.38,3.87.93.4.19.18.85-.23.65-1.2-.54-2.5-.85-3.81-.9-1.54-.08-3.08-.09-4.62-.13-.06,0-.12-.01-.16-.04-2.56.82-5.18,1.43-7.73,2.27-2.73.91-5.4,2.03-7.97,3.34,2.6,2.02,6.42,1.91,9.54,2.16,1.9.16,3.79.3,5.69.46,1.46.12,2.97.25,4.02,1.37.31.33-.22.78-.53.46-1.26-1.33-3.62-1.14-5.29-1.27-1.95-.16-3.9-.31-5.85-.47-2.88-.23-5.97-.45-8.26-2.37-3.75,1.92-7.35,4.13-10.92,6.33-1.17.72-2.35,1.45-3.51,2.21,8.48,4.07,18.06,5.21,27.26,3.26.44-.1.56.59.13.68-9.48,2.02-19.36.79-28.06-3.49-2.38,1.52-4.6,3.29-6.63,5.26-.31.32-.77-.21-.45-.53.74-.74,1.52-1.44,2.32-2.11,0-.02,0-.05,0-.07.92-4.46,2.42-8.77,4.46-12.84,2.05-4.06,4.61-8.68,8.62-11.06.39-.23.68.4.3.63-2.06,1.36-3.79,3.15-5.07,5.26-1.23,1.82-2.34,3.72-3.33,5.68-1.85,3.72-3.24,7.65-4.13,11.7,1.14-.89,2.32-1.72,3.52-2.52.04-.13.17-.22.31-.2.64-.42,1.29-.83,1.95-1.24,1.34-.84,2.68-1.67,4.03-2.49.99-3.35,2.46-6.54,4.37-9.47,2.14-3.29,4.37-6.53,6.56-9.8.11-.16.33-.19.49-.08.15.11.19.32.09.47-2.11,3.16-4.25,6.29-6.34,9.47-1.81,2.75-3.24,5.73-4.25,8.86,1.59-.96,3.2-1.91,4.83-2.82,1.02-.57,2.05-1.13,3.09-1.66.08-.16.25-.25.43-.22,1.99-1.01,4.03-1.92,6.11-2.72,0-.01.01-.02.02-.03,1.45-1.77,1.86-4.04,2.82-6.07,1.04-2.17,2.75-3.59,4.7-4.93.37-.25.83.28.45.53-1,.64-1.94,1.38-2.8,2.2-.83.87-1.48,1.88-1.94,2.99-.57,1.68-1.27,3.31-2.09,4.88,3.27-1.14,6.68-1.82,9.93-3.01,3.96-1.58,7.78-3.51,11.4-5.76.39-.23.69.41.3.63"/>
        <path id="Pfad_527" data-name="Pfad 527" class="cls-16" d="m38.96,73.22c-3.69,1.85-7.49,3.46-11.38,4.81-.3.14-.43.51-.29.81.03.06.07.12.12.17,3.17,3.04,6.34,6.08,9.51,9.12,3.52,3.29,7.74,5.76,12.33,7.22,6.7,2.22,14.08.6,19.23-4.24,4.63-4.45,1.16-10.41-2.17-14.52-4.1-5.07-10.79-6.27-16.68-6.25-3.74.11-7.4,1.09-10.68,2.87"/>
        <path id="Pfad_528" data-name="Pfad 528" class="cls-9" d="m27.65,78.64c2.74.76,5.53,1.34,8.34,1.72.23.02.47.04.7.06-.77.24-1.55.47-2.31.74-.96.33-1.85.83-2.62,1.48-.26.22.05.65.3.43.76-.64,1.64-1.13,2.59-1.44,1.1-.38,2.23-.71,3.34-1.06.04-.01.08-.04.11-.07,2.03.07,4.07-.04,6.1.04,2.19.1,4.36.36,6.51.77-1.48,2.02-4.28,2.74-6.51,3.57-1.35.5-2.7,1.01-4.05,1.51-1.08.26-2.03.91-2.65,1.84-.16.3.33.52.48.22.64-1.23,2.4-1.58,3.6-2.03,1.39-.52,2.78-1.04,4.17-1.56,2.05-.77,4.25-1.57,5.53-3.45,3.13.62,6.22,1.48,9.28,2.34,1.01.28,2.02.56,3.02.87-5.33,4.73-12.08,7.56-19.19,8.05-.34.02-.29.54.05.52,7.33-.5,14.28-3.45,19.73-8.39,2.06.61,4.04,1.44,5.93,2.46.3.16.52-.32.22-.48-.69-.39-1.4-.74-2.12-1.06,0-.02-.01-.03-.02-.04-1.6-3.06-3.59-5.89-5.93-8.43-2.34-2.53-5.16-5.37-8.59-6.27-.33-.09-.41.44-.08.52,1.78.56,3.42,1.51,4.79,2.78,1.28,1.07,2.48,2.22,3.61,3.45,2.12,2.33,3.95,4.9,5.45,7.67-1.02-.41-2.05-.78-3.09-1.1-.06-.09-.17-.13-.27-.08-.56-.18-1.11-.34-1.68-.5-1.15-.33-2.3-.66-3.46-.98-1.42-2.24-3.16-4.26-5.16-6-2.24-1.95-4.55-3.85-6.82-5.78-.12-.09-.29-.06-.38.06-.08.11-.07.26.03.36,2.2,1.86,4.42,3.7,6.6,5.58,1.89,1.62,3.56,3.5,4.94,5.57-1.37-.37-2.73-.72-4.11-1.05-.86-.2-1.73-.39-2.6-.57-.09-.1-.24-.13-.36-.07-1.66-.32-3.34-.56-5.03-.71,0,0-.01-.01-.02-.02-1.42-.99-2.2-2.56-3.32-3.83-1.22-1.26-2.76-2.17-4.45-2.62-.32-.11-.54.38-.22.48.86.26,1.7.6,2.5,1.02.78.46,1.47,1.06,2.03,1.77.76,1.11,1.61,2.15,2.54,3.12-2.62-.15-5.25.06-7.87-.13-3.22-.32-6.4-.93-9.51-1.83-.33-.08-.42.44-.08.53"/>
        <path id="Pfad_529" data-name="Pfad 529" class="cls-13" d="m225.73,159.94c-1.7-.68-2.89-2.38-3.85-3.87-1.1-1.69-1.59-3.67-2.79-5.32-1.11-1.52-2.51-2.85-3.71-4.3-1.07-1.29-2.49-2.78-3.01-4.46-.04-.43-.06-.86-.05-1.28.06-.34.1-.68.12-1.03-.02-.58-.29-1.11-.73-1.48-.24-.18-.51-.32-.79-.41-.21-.08-.41-.16-.61-.26-.15-.09-.3-.17-.45-.24-.15-.07-.32,0-.39.14-.01.03-.02.07-.03.1-.01.11,0,.22.05.32-.15-.02-.3-.05-.45-.06-.18-.03-.37,0-.54.09-.23.15-.33.43-.23.69-.3.02-.56.19-.71.44-.06.1-.08.22-.05.33.01.05.04.1.07.14-.06,0-.13,0-.19.03-.12.06-.21.16-.25.29-.04.13-.02.26.05.37.01.01.03.03.04.04-.2.05-.35.21-.38.42,0,.33.15.64.41.84.11.11.21.22.31.33.09.18.16.36.21.55.1.19.23.35.39.48.27.25.53.5.78.76,1.25,1.6,2.33,3.33,3.22,5.16.91,1.89,1.46,3.95,2.48,5.79,1.15,1.86,2.45,3.63,3.87,5.29,1.25,1.69,2.63,3.27,4.13,4.74.04.03,3.16-4.66,3.11-4.65"/>
        <path id="Pfad_530" data-name="Pfad 530" class="cls-8" d="m169.49,197.26c.36.98.9,1.88,1.59,2.65.75,1.03,1.37,2.14,1.85,3.32.64,1.54,1.17,4.15,3.34,4.04,1.92-.09,2.44-2.41,4.04-3.08-.77-1.84-1.64-3.63-2.61-5.36-.49.18-1.16.48-1.61.16-2.59-1.84-4.42-3.99-5.12-4.23-1.22-.42-1.91.92-1.48,2.5"/>
        <path id="Pfad_531" data-name="Pfad 531" class="cls-8" d="m213.65,245.78c1.04.02,2.07-.16,3.05-.53,1.23-.33,2.49-.51,3.76-.53,1.67-.04,4.29.4,4.97-1.67.6-1.82-1.37-3.15-1.43-4.88-1.99.06-3.97.23-5.94.51-.01.52.03,1.25-.43,1.56-2.65,1.76-5.31,2.7-5.78,3.27-.83.99.17,2.11,1.8,2.28"/>
        <path id="Pfad_532" data-name="Pfad 532" class="cls-5" d="m219.41,188.96c-3.34-.15-6.27-.02-9.47-.94-2.94-.84-6.98-2.16-11.07-2.16-3.42,0-8.62,4.09-13.12,7.5-2.63,2.14-5.48,4-8.51,5.54,1.21,1.75,2.1,3.69,2.65,5.74,2.27-.63,10.96-3.35,12.97-4.14,2.72-1.14,5.21-2.79,7.32-4.85,5.24,2.19,10.6,4.26,16.3,4.71-.83,2.24-1.65,4.47-2.38,6.74-.85,2.41-1.49,4.9-1.89,7.42-.35,2.68.32,5.17.96,7.75.67,2.68,1.34,5.37,2.01,8.05.78,3.13,1.56,6.27,2.34,9.4,2.37-.26,4.7-.83,6.93-1.69-.42-10.96-1.51-14.36-2.6-17.18,1.01-4.11.49-8.71,2.94-12.31,1.36-2,3.52-3.3,4.87-5.32,1.27-1.93,1.65-4.31,1.05-6.54.22.17-7.19-5.8-11.32-7.75"/>
        <path id="Pfad_533" data-name="Pfad 533" class="cls-13" d="m234.33,168.2c-.93-.16-4.84.23-5.15-1.27l4.79-6.77,4.53,3.13s-.32.42-.74,1.08c-.65,1.02-.75,2.46-1.09,3.89-.78.07-1.57.05-2.34-.06"/>
        <path id="Pfad_534" data-name="Pfad 534" class="cls-13" d="m238.5,163.29c-1.48-.79.65-5.42-.1-8.72-4.84-7.73-16.14,11.38.1,8.72"/>
        <path id="Pfad_535" data-name="Pfad 535" class="cls-10" d="m233.82,152.65c-.15-.46-.49-.84-.48-1.34.06-.38.2-.75.43-1.06.57-1,1.54-1.7,2.67-1.94,2.48-.25,6.44,2.85,7.28,4.99.22.57.44,1.56.63,2.14,1.25,3.69-2.75,5.09-3.22,5.74-.81,1.12-1.44,2.79-2.73,3.33-.64.28-1.81-.27-2.37-.77-.28-.21-.44-.54-.43-.88.06-.14.18-.23.33-.26,1.01-4.04,2.49-.04.27-7.12-.12-.74-1.32-1.5-1.88-2.57-.06.08-.28.09-.51-.24,0,0,0-.02,0-.03"/>
        <path id="Pfad_536" data-name="Pfad 536" class="cls-13" d="m238.44,159.56c-.42.45-.96.64-1.42.22-.44-.38-.51-1.03-.17-1.5.32-.49.98-.63,1.47-.31.83.58.52,1.15.12,1.59"/>
        <path id="Pfad_537" data-name="Pfad 537" class="cls-1" d="m242.92,176.07c-.61-1.39-1.13-2.81-1.59-4.26-.13-1.18-.6-2.3-1.34-3.23-.87-.81-1.87-1.45-2.97-1.9-.09-.01-.17,0-.25.05-1.57.25-3.16.39-4.75.41-.96,0-1.92-.06-2.86-.22l2.22-3.14c-2.48-1.43-3.39-4.56-6.54-4.81-.33,2.22-1.55,4.21-3.38,5.51.23,1.28.81,2.47,1.68,3.45.16.21.31.44.44.68-.59,1.29-4.06,8.04-5.02,10.07-1.89,4.01-3.67,6.27-5.01,10.01,0,0,4.14.51,5.92,1.54,1.68.98,3.24,2.14,4.66,3.46.71.65,1.34,1.37,1.89,2.16.51.76,4.33,5.43,4.52,6.53.54-2.24.99-4.51,1.68-6.7.78-2.1,1.81-4.09,3.05-5.96,1.82-3.12,2.07-6.67,2.06-10.2,1.97-.5,4.35.11,6.2.69.01-1.41-.2-2.8-.64-4.14"/>
        <path id="Pfad_538" data-name="Pfad 538" class="cls-14" d="m216.67,200.28c.46-2.69,1.21-5.33,2.24-7.86.04-.09-.12-.13-.15-.04-1.03,2.53-1.78,5.17-2.24,7.86-.02.1.13.14.15.04"/>
        <path id="Pfad_539" data-name="Pfad 539" class="cls-6" d="m223.72,168.63c.86-1.76,2.32-3.17,4.11-3.97.09-.04.01-.18-.08-.14-1.82.81-3.29,2.23-4.17,4.02-.04.09.09.17.13.08"/>
        <path id="Pfad_540" data-name="Pfad 540" class="cls-6" d="m234.88,168.35c-1.43.52-2.03,2.19-2.25,3.57-.12.89-.18,1.79-.19,2.7-.03.94-.15,1.88-.22,2.82-.07.96-.07,1.92.02,2.87.04.43.16.43.54.3,1.09-.36,2.2-.66,3.33-.89.1-.02.06-.17-.04-.15-.91.2-1.83.44-2.73.71-.19.08-.4.14-.6.19-.18.01-.1.1-.26-.04-.14-.13-.1-.39-.11-.56-.05-.8-.05-1.61.01-2.41.12-1.55.18-3.11.31-4.65s.59-3.69,2.24-4.29c.09-.03.06-.19-.04-.15"/>
        <path id="Pfad_541" data-name="Pfad 541" class="cls-8" d="m210.76,59.02c-.34,9.63,0,56.35-.34,65.98-.08,2.34-.12,4.69-.3,7.03-.2,2.17-.63,4.32-1.29,6.4l.64.07c.3-.96.57-1.99.77-2.98.43-2.49.65-5,.66-7.52.38-10.62.47-58.64.49-69.27,0-.18-.62-.09-.64.29"/>
        <path id="Pfad_542" data-name="Pfad 542" class="cls-8" d="m278.3,255.98c-8.35,1.1-15.54-4.33-22.88-7.37-7.11-2.95-14.68-3.08-22.22-2.25-7.87.86-15.68,2.62-23.62,2.64-3.88.01-8.06-.29-11.71-1.68-1.89-.58-3.46-1.92-4.32-3.7-.89-2.2-.3-4.72.6-6.81,3.14-7.35,9.91-12.42,15.14-18.19,5.2-5.75,9.53-12.55,11.18-20.21,1.65-7.32.41-15-3.47-21.42-2.02-3.4-4.42-6.55-6.27-10.05-4.05-7.7-4.96-16.67-2.55-25.03h-.58c-.78,2.75-1.23,5.59-1.32,8.46-.1,3.99.5,7.98,1.76,11.77,1.3,3.59,3.06,7,5.24,10.13,2.32,3.55,4.78,7.09,6.1,11.16,1.24,4,1.57,8.23.96,12.37-1.18,8.67-5.95,16.4-11.78,22.75-5.15,5.61-11.53,10.56-14.78,17.64-1.3,2.83-2,6.43.05,9.09,2.04,2.63,5.81,3.35,8.91,3.84,7.88,1.23,15.87-.11,23.67-1.25,9.11-1.33,18.59-2.54,27.44.76,8.02,3,15.56,9.13,24.58,7.95.38-.05.26-.63-.11-.58"/>
        <path id="Pfad_543" data-name="Pfad 543" class="cls-13" d="m243.18,183.97c-.27-1.3-.37-2.63-.29-3.96-2.15-.74-4.46-.88-6.69-.42-.32,1.03-.48,2.1-.45,3.18.2.93.44,1.85.74,2.75-3.49,1.14-7.18,1.45-10.76,2.27-.01,0-.01-.02-.03-.02-.51.13-1.05.08-1.53-.14-.36-.22-.54-.64-.9-.87-.3-.18-.65-.29-1-.3-.39-.05-.78,0-1.14.13-.09.04-.16.1-.22.18-.02.03-.02.07-.03.1-.04.12.02.16-.12.25-.19.13-.54.03-.76.02-.15-.01-.3,0-.44.04-.2.06-.48.25-.44.49,0,.02.03.04.04.06-.08.04-.15.1-.18.19-.06.23.03.48.22.62,0,0,.02,0,.02.02-.11.03-.21.1-.28.2-.14.21-.12.49.05.68.09.1.2.18.33.23,0,0,.01,0,.02,0,0,0-.02,0-.03,0-.21.06-.35.27-.33.48.03.28.3.45.53.56.39.19.81.28,1.2.47.36.17.64.46,1,.63.33.15.69.21,1.05.2.69-.04,1.37-.2,2-.47,0,0,0,0,0,0,1.12-.04,2.23-.25,3.29-.63,1.32-.37,2.67-.6,4.04-.71,2.51-.21,5.06-.07,7.56-.36,1.73-.2,3.61-1,3.87-2.94.05-.99-.06-1.99-.34-2.94"/>
        <path id="Pfad_544" data-name="Pfad 544" class="cls-7" d="m55.5,160.6c.79-1.45,1.79-2.78,2.97-3.94.38-.35,1.91-2.03,2.41-1.79.32.16-1,2.08-1,2.08-.34.48-.58,1.03-.7,1.61.16-.18.33-.34.52-.48.25-.17.69-.48,1-.24s.11.76,0,1.05c-.14.32-.24.65-.31.98-.03.27-.08.53-.16.78-.26.56-.62,1.07-1.05,1.51-.45.44-.94.84-1.47,1.18-.55.51-.96,1.16-1.18,1.88-.22.52-.44,1.03-.66,1.55l-2.09-3.25c.56-.98,1.13-1.96,1.72-2.93"/>
        <path id="Pfad_545" data-name="Pfad 545" class="cls-3" d="m199.8,118.59l-1.77-10.43c-.31-1.85-2.06-3.09-3.91-2.78,0,0,0,0,0,0l-4.08.69c-1.95.31-3.85-.83-4.48-2.7-1.37-3.83-3.08-7.53-5.11-11.05-1.07-1.78-.63-4.08,1.02-5.33l4.36-3.25c1.5-1.12,1.81-3.24.69-4.75l-6.32-8.48c-1.12-1.5-3.25-1.81-4.75-.69,0,0,0,0,0,0l-5.68,4.24c-1.51,1.11-3.59,1.03-5.02-.18-3.25-2.67-6.74-5.04-10.42-7.08-1.71-.91-2.54-2.91-1.97-4.76l2.07-6.59c.56-1.79-.43-3.69-2.22-4.26,0,0,0,0,0,0l-10.09-3.17c-1.79-.56-3.69.43-4.25,2.22l-1.89,6c-.63,1.92-2.57,3.1-4.56,2.77-3.12-.47-6.28-.73-9.44-.76-1.99.01-3.69-1.4-4.04-3.36l-.97-5.69c-.31-1.85-2.07-3.09-3.91-2.78,0,0,0,0,0,0l-10.43,1.77c-1.85.31-3.09,2.06-2.78,3.91,0,0,0,0,0,0l.97,5.7c.32,1.96-.83,3.86-2.71,4.49-3.56,1.27-7.01,2.83-10.31,4.67-1.78,1.04-4.05.59-5.29-1.05l-3.68-4.94c-1.12-1.5-3.25-1.81-4.75-.69l-8.48,6.33c-1.5,1.12-1.81,3.25-.69,4.75l4.49,6.01c1.13,1.54,1.04,3.65-.22,5.09-2.23,2.63-4.27,5.43-6.08,8.37-.96,1.61-2.89,2.36-4.69,1.81l-6.08-1.92c-1.79-.56-3.69.43-4.25,2.22l-3.17,10.09c-.56,1.79.43,3.69,2.21,4.25,0,0,0,0,0,0l4.41,1.39c1.98.64,3.16,2.68,2.72,4.72-.81,4.12-1.23,8.3-1.26,12.49.02,1.98-1.39,3.68-3.34,4.03l-4.67.79c-1.85.31-3.09,2.06-2.78,3.91l1.77,10.43c.31,1.85,2.07,3.09,3.91,2.78l4.65-.79c1.96-.32,3.86.83,4.49,2.71,1.22,3.42,2.71,6.73,4.47,9.91,1.02,1.77.57,4.03-1.06,5.27l-3.53,2.64c-1.5,1.12-1.81,3.24-.69,4.74,0,0,0,0,0,0l6.32,8.48c1.12,1.5,3.25,1.81,4.75.69h0s4.46-3.33,4.46-3.33c1.55-1.13,3.67-1.03,5.11.24,3.38,2.89,7.03,5.45,10.9,7.64,1.7.93,2.51,2.92,1.95,4.77l-2.12,6.74c-.56,1.79.43,3.69,2.22,4.25,0,0,0,0,0,0l10.09,3.17c1.79.56,3.69-.43,4.26-2.22l1.87-5.95c.63-1.93,2.59-3.11,4.59-2.76,3.31.52,6.65.8,10,.83,1.99-.01,3.69,1.4,4.04,3.36l.96,5.64c.31,1.85,2.06,3.09,3.91,2.78l10.43-1.77c1.85-.31,3.09-2.06,2.78-3.91h0s-.96-5.64-.96-5.64c-.31-1.96.83-3.87,2.72-4.51,3.97-1.43,7.8-3.22,11.44-5.37,1.79-1.1,4.13-.66,5.4,1.01l2.91,3.91c1.12,1.5,3.25,1.81,4.75.69l8.48-6.32c1.5-1.12,1.81-3.25.69-4.75l-4-5.37c-1.11-1.51-1.04-3.57.16-5.01,2.23-2.77,4.25-5.71,6.03-8.79.93-1.67,2.91-2.47,4.74-1.91l5.31,1.67c1.79.56,3.69-.43,4.25-2.22,0,0,0,0,0,0l3.17-10.09c.56-1.79-.43-3.69-2.22-4.25l-4.2-1.33c-1.95-.63-3.13-2.61-2.75-4.62.6-3.58.92-7.2.94-10.83-.02-1.98,1.4-3.69,3.35-4.04l4.07-.69c1.85-.31,3.09-2.07,2.78-3.91,0,0,0,0,0,0m-60.08,56.89c-27.04,10.34-57.34-3.2-67.68-30.23-10.34-27.04,3.2-57.34,30.23-67.68,27.04-10.34,57.34,3.2,67.68,30.23,2.47,6.45,3.64,13.33,3.44,20.23-.63,21.16-13.91,39.87-33.67,47.44"/>
        <path id="Pfad_546" data-name="Pfad 546" class="cls-2" d="m120.99,186.57c-33.16,0-60.03-26.88-60.03-60.03,0-33.16,26.88-60.03,60.03-60.03,33.15,0,60.03,26.88,60.03,60.03-.04,33.14-26.89,60-60.03,60.04m0-118.35c-32.21,0-58.31,26.11-58.32,58.31,0,32.21,26.11,58.31,58.31,58.32,32.21,0,58.31-26.11,58.32-58.31h0c-.04-32.19-26.12-58.28-58.31-58.32"/>
        <path id="Pfad_547" data-name="Pfad 547" class="cls-1" d="m83.71,126.55c0,20.59,16.69,37.29,37.28,37.29,20.59,0,37.29-16.69,37.29-37.28,0-20.59-16.69-37.29-37.28-37.29h0c-20.58.02-37.26,16.7-37.28,37.28"/>
        <path id="Pfad_548" data-name="Pfad 548" class="cls-4" d="m104.65,108.73c.33.76.96,1.36,1.74,1.64,2.86-3.85,3.58-2.52,6.65-4.51,3.01-1.96,5.58.42,6.76.27-.14.2-.31.42-.44.6-1.33,1.78-3.83,5.08-.66,9.23,1.28,1.64,2.66,3.2,4.13,4.68,2.59,2.7,4.64,4.83,5.22,8.45.62,3.83,2.98,4.45,6.13,5.12.43.09.92,2.43,1.35,2.43,1.98,0,3.08-2.72,4.29-4.55.79-1.2.82-4.63,1.1-7.47.43-4.19,1.91-6.85,4.8-9.73,2.43-2.53,4.37-5.49,5.72-8.72.22-.51.16-1.09-.16-1.54-7.01-9.67-18.23-15.4-30.17-15.39-5.41-.01-10.76,1.16-15.67,3.45-.64.3-1,.99-.88,1.68.12.69,1.75-1.36,2.46-1.3,4.43.38,7.79,3.86,9.26,4.66-.8.6-1.49,1.89-3.75,2.1-2.17.21-3.26.31-5.23,4.04-1.56,1.23-2.87,3.19-2.63,4.88"/>
        <path id="Pfad_549" data-name="Pfad 549" class="cls-4" d="m124.67,162.53c-.53.32.81.92,1.42.92.07,0,.14,0,.22-.02,8.32-1.18,16-5.14,21.8-11.22.48-.51.56-1.28.2-1.89-.92-1.59-2.26-2.9-3.88-3.77-1.12-.57-2.18-1.25-3.2-1.9-3.06-1.97-11.74-3.86-9.51-1.52.92.96-2,4.31-1.74,6.15.26,1.91.28,2.7-.64,3.31-3.37,2.28,1.06,6.48-4.67,9.94"/>
        <path id="Pfad_550" data-name="Pfad 550" class="cls-4" d="m107.51,161.31c2.13-.31-4.68-3.81,5.21-3.92,7.16-.07.93-3.13-.78-5.74-.6-.93-1.34-4.63,1.11-6.69,1.98-1.66-3.41-3.34,1.69-6.25,2.83-1.62,2.94-5.29,1.72-4.36-3.86,2.95-6.16,3.54-8.46,5.1-3.03,2.04-6.5-8.71-11.34-7.91-6.46,1.08-2.99-3.53-6.03-4.08-6.57-1.19-5.95,3.22-6.56,4.07,1.83,13.45,10.81,24.85,23.46,29.78"/>
        <path id="Pfad_551" data-name="Pfad 551" class="cls-7" d="m79.69,157.3c-.04-.21-.21-.8-.57-.59s-.26,1.14-.3,1.48c-.14.82-.58,1.56-1.24,2.08.07-.23.11-.46.13-.7.01-.3.04-.84-.34-.98s-.71.32-.89.56c-.19.29-.42.55-.67.79-.21.17-.4.35-.57.55-.33.52-.57,1.09-.71,1.69-.13.62-.2,1.24-.2,1.87-.14.74-.47,1.43-.96,2-.32.46-.63.92-.95,1.38l3.86.03c.53-1,1.05-2.01,1.56-3.02.83-1.43,1.42-2.99,1.74-4.62.16-.84.2-1.69.11-2.54"/>
        <path id="Pfad_552" data-name="Pfad 552" class="cls-7" d="m52.45,149.26c-.36-.34-.68-.71-.96-1.12-.49-1.07-.3-2.07-.96-2.94l-7.72.71s-.07.07-.1.11c-.63.92-1.06,1.97-1.25,3.08-.28,1.29-.32,2.63-.11,3.93.06.36.35,1.68.86,2.03.02.42.04.84.05,1.26-.01.5,0,.99.06,1.48l7.83-.71c-.02-.55-.07-1.09-.14-1.63.6-.44,1.07-1.03,1.36-1.72.13-.45.17-.92.13-1.38-.1-.73.17-1.46.71-1.96.23-.21.44-.37.4-.7-.01-.15-.07-.3-.16-.42"/>
        <path id="Pfad_553" data-name="Pfad 553" class="cls-8" d="m41.51,242.97l-5.17-.04c-.14.94-.71,1.76-.78,2.7-.07.85.39,1.65,1.17,2,.47.17.97.28,1.47.31.6.1,1.2.16,1.81.19.81.09,1.54-.48,1.63-1.29,0-.03,0-.06,0-.09-.03-.61-.1-1.22-.23-1.82-.06-.65-.03-1.31.09-1.96"/>
        <path id="Pfad_554" data-name="Pfad 554" class="cls-4" d="m42.01,242.97c-.12-3-.04-6,.25-8.99.38-3.43,1.53-6.7,1.72-10.17.1-1.84,3.82-17.2,4.84-20.54,1.09,3.97,2.14,7.94,3.49,11.8.63,2.05.98,4.17,1.03,6.31.14,1.99.34,3.97.6,5.95.55,4.18,3.43,15.61,3.47,15.74l5.68.04c-.12-3.88-1.48-15.56-1.29-17.65.18-2.07.63-22.47-1.34-30.46l-22.11-.16c-.51,3.59-1.07,7.2-1.32,10.82-.3,4.35.17,8.7.14,13.05s-1.06,8.52-1.35,12.84c-.2,3.79-.18,7.59.07,11.37l6.14.05Z"/>
        <path id="Pfad_555" data-name="Pfad 555" class="cls-15" d="m35.39,161.87c1.63-1.63,3.91-2,5.75-3.22.19-.5.42-.98.68-1.44.31-.29,8.39-.3,8.54-.14.49.51.88,1.11,1.15,1.76.59.31,1.22.52,1.87.63.8.14,1.59.35,2.36.64,1.08.39,2.13.87,3.15,1.41v11.44h0c-.56,8.02,2.52,15.83,3.37,23.76-1.86.05-21.75,1.55-25.09,2.4-.69-3.54-.99-7.14-.92-10.74,0-3.2.09-6.41-.08-9.61-.07-1.55-.23-3.1-.47-4.63-.3-1.67-.7-3.32-1.19-4.95-.7-2.53-1.02-5.39.88-7.3"/>
        <path id="Pfad_556" data-name="Pfad 556" class="cls-15" d="m58.3,171.35l-1.02-10.54c.4.13.79.28,1.17.45,1.56.75,3.03,1.68,4.38,2.77,1.4,1.11,2.88,2.11,4.43,3,1.18.63,2.43,1.14,3.72,1.53.77-1.26,1.64-2.44,2.62-3.55.85,1.12,2.12,1.84,3.51,2.01-.05,1.19-.08,2.38-.14,3.57-.09,1.85-.47,3.57-3.01,4.64-.19.09-.39.15-.6.18-1.66.13-3.34-.15-4.87-.82-1.62-.57-3.2-1.28-4.82-1.82-.81-.28-1.65-.5-2.49-.66-.48-.08-2.4-.68-2.88-.76"/>
        <path id="Pfad_557" data-name="Pfad 557" class="cls-8" d="m57.63,243.09l5.17.04c.12.94.68,1.76.74,2.71.06.85-.42,1.64-1.2,1.98-.48.17-.97.26-1.48.29-.6.09-1.2.15-1.81.16-.81.08-1.53-.5-1.61-1.31,0-.03,0-.06,0-.09.04-.61.12-1.22.25-1.82.06-.65.04-1.31-.06-1.96"/>
        <path id="Pfad_558" data-name="Pfad 558" class="cls-8" d="m40.07,149.44c.02.1.04.19.06.28.03,2.25.69,5.08,2.91,5.97.68.27,1.42.27,2.11.51.5.25,1.1.2,1.56-.11,1.03-.62,2.32-1.14,2.56-2.44.13-.71.02-1.45.16-2.16.24-.81.55-1.59.92-2.35.34-.89,1.26-1.78,1.72-2.71.34-.34.55-.78.58-1.26-.01-.9-.23-1.79-.65-2.58-.97-1.78-2.89-1.42-4.6-1.33-1.06.06-2.11-.24-3.18-.15-.86.07-1.7.34-2.43.81-1.45.94-2.29,2.58-2.2,4.31.09,1.08.24,2.15.47,3.21"/>
      </g>
    </g>
  </g>
</svg>