<?xml version="1.0" encoding="UTF-8"?>
<svg id="Ebene_2" data-name="Ebene 2" xmlns="http://www.w3.org/2000/svg" viewBox="0 0 31.33 31.33">
  <defs>
    <style>
      .cls-1 {
        fill: #103d4c;
      }
    </style>
  </defs>
  <g id="Ebene_1-2" data-name="Ebene 1">
    <g id="FB">
      <g id="Ellipse_8" data-name="Ellipse 8">
        <path class="cls-1" d="m15.67,31.33C7.03,31.33,0,24.31,0,15.67S7.03,0,15.67,0s15.67,7.03,15.67,15.67-7.03,15.67-15.67,15.67Zm0-28.63c-7.15,0-12.96,5.81-12.96,12.96s5.81,12.96,12.96,12.96,12.96-5.81,12.96-12.96S22.81,2.71,15.67,2.71Z"/>
      </g>
      <path id="Pfad_206" data-name="Pfad 206" class="cls-1" d="m13.21,24.65l3.6.02s.03-4.97.05-9h2.67s.34-3.59.34-3.59h-2.86s0-1.46,0-1.46c-.05-.42.24-.8.66-.86.05,0,.1,0,.14,0h2.02s.02-3.08.02-3.08l-2.78-.03c-3.09-.02-3.8,2.28-3.81,3.76v1.63s-1.79,0-1.79,0l-.02,3.6h1.8c-.02,4.09-.05,9.01-.05,9.01"/>
    </g>
  </g>
</svg>