<?xml version="1.0" encoding="UTF-8"?>
<svg id="Ebene_2" data-name="Ebene 2" xmlns="http://www.w3.org/2000/svg" viewBox="0 0 31.48 31.48">
  <defs>
    <style>
      .cls-1 {
        fill: #103d4c;
      }
    </style>
  </defs>
  <g id="Ebene_1-2" data-name="Ebene 1">
    <g id="Insta">
      <g id="Ellipse_10" data-name="Ellipse 10">
        <path class="cls-1" d="m15.74,31.48C7.06,31.48,0,24.42,0,15.74S7.06,0,15.74,0s15.74,7.06,15.74,15.74-7.06,15.74-15.74,15.74Zm0-28.79c-7.19,0-13.05,5.85-13.05,13.05s5.85,13.05,13.05,13.05,13.05-5.85,13.05-13.05S22.94,2.69,15.74,2.69Z"/>
      </g>
      <g id="Gruppe_447" data-name="Gruppe 447">
        <path id="Pfad_208" data-name="Pfad 208" class="cls-1" d="m20.82,24.7h-10.16c-2.08.02-3.79-1.65-3.81-3.73v-10.46c.03-2.08,1.73-3.75,3.81-3.73h10.16c2.08-.02,3.79,1.65,3.81,3.73v10.46c-.03,2.08-1.73,3.75-3.81,3.73M10.66,8.32c-1.23-.02-2.25.96-2.28,2.19v10.46c.03,1.23,1.05,2.21,2.28,2.19h10.16c1.23.02,2.25-.96,2.28-2.19v-10.46c-.03-1.23-1.05-2.21-2.28-2.19h-10.16Z"/>
        <path id="Pfad_209" data-name="Pfad 209" class="cls-1" d="m15.74,20.39c-2.57,0-4.65-2.08-4.65-4.65,0-2.57,2.08-4.65,4.65-4.65,2.57,0,4.65,2.08,4.65,4.65,0,2.57-2.08,4.65-4.65,4.65m0-7.76c-1.72,0-3.11,1.39-3.11,3.11,0,1.72,1.39,3.11,3.11,3.11,1.72,0,3.11-1.39,3.11-3.11,0-1.72-1.39-3.11-3.11-3.11"/>
        <path id="Pfad_210" data-name="Pfad 210" class="cls-1" d="m21.82,10.86c0,.6-.49,1.09-1.09,1.09s-1.09-.49-1.09-1.09.49-1.09,1.09-1.09h0c.6,0,1.09.49,1.09,1.09h0"/>
      </g>
    </g>
  </g>
</svg>