<?xml version="1.0" encoding="UTF-8"?>
<svg id="Ebene_2" data-name="Ebene 2" xmlns="http://www.w3.org/2000/svg" xmlns:xlink="http://www.w3.org/1999/xlink" viewBox="0 0 266.54 298.48">
  <defs>
    <style>
      .cls-1 {
        fill: #e0e0eb;
      }

      .cls-2 {
        fill: #292a31;
      }

      .cls-3 {
        fill: #454653;
      }

      .cls-4 {
        fill: #3a3b46;
      }

      .cls-5 {
        fill: #9fa1d1;
      }

      .cls-6 {
        fill: #f39a7b;
      }

      .cls-7 {
        fill: #32333c;
      }

      .cls-8 {
        fill: #e88d6c;
      }

      .cls-9 {
        clip-path: url(#clippath);
      }

      .cls-10 {
        fill: none;
      }

      .cls-11 {
        fill: #b0dbdb;
      }

      .cls-12 {
        fill: #515260;
      }

      .cls-13 {
        fill: #ec6155;
      }

      .cls-14 {
        fill: #b9badf;
      }

      .cls-15 {
        fill: #9a9ba3;
      }

      .cls-16 {
        fill: #51538b;
      }

      .cls-17 {
        fill: #3c4178;
      }

      .cls-18 {
        fill: #1d1d21;
      }
    </style>
    <clipPath id="clippath">
      <rect class="cls-10" x="119.22" width="82.68" height="298.48"/>
    </clipPath>
  </defs>
  <g id="Ebene_1-2" data-name="Ebene 1">
    <g id="Gruppe_418" data-name="Gruppe 418">
      <circle id="Ellipse_6" data-name="Ellipse 6" class="cls-11" cx="133.27" cy="165.21" r="133.27"/>
      <g id="Gruppe_417" data-name="Gruppe 417">
        <g class="cls-9">
          <g id="Gruppe_416" data-name="Gruppe 416">
            <path id="Pfad_232" data-name="Pfad 232" class="cls-6" d="m152.93,276.36c.08-2.45-.85-2.42-.8-4.88,0-.14,0-.36.02-.64h-10.04c.04.24.08.48.12.73.34,2.11-.17,2.64.23,4.73.09.44.21.88.37,1.3-1.42,3.92-4.57,12.67-4.98,14-.11.35-.23.74-.34,1.18-.57,2.51,1,5.01,3.51,5.58.4.09.82.13,1.23.11h8.39c2.32-.39,4.01-2.4,3.99-4.75,0-2.53-1.44-12.85-1.92-16.17.14-.38.21-.79.21-1.19"/>
            <path id="Pfad_233" data-name="Pfad 233" class="cls-18" d="m153.65,284.37c.02,1.58-.3,3.15-.94,4.6-.52.93-1.57-1.96-8.42-1.5-2.28.16-3.63,2.36-4.21,1.51-.52-.77.55-5.26.55-5.26-1.07,3.07-2.48,6.92-2.78,7.89-.35,1.15-1.05,2.64-.47,4.44.62,1.43,2,2.38,3.55,2.44h9.71c2.32-.39,4.01-2.4,3.99-4.75,0-1.65-.52-5.96-.98-9.36"/>
            <path id="Pfad_234" data-name="Pfad 234" class="cls-6" d="m180.13,291.6c-.4-1.3-3.31-9.68-4.71-13.72.03-.17.05-.33.06-.5.17-2.12-.32-2.59-.28-4.73.02-.45.04-1.06.06-1.8h-10.18c.34,1.57.55,2.55.55,2.55.31,2.44-.61,2.5-.27,4.93.03.22.07.43.13.64-.61,4.02-1.84,12.48-1.84,14.76-.01,2.35,1.68,4.36,3.99,4.75h8.09c2.57.11,4.75-1.89,4.86-4.46.02-.41-.02-.83-.11-1.23-.12-.44-.24-.84-.34-1.18"/>
            <path id="Pfad_235" data-name="Pfad 235" class="cls-18" d="m164.69,284.48c-.04,1.54.26,3.08.89,4.49.52.93,1.26-1.96,8.12-1.5,2.28.16,3.63,2.36,4.21,1.51.52-.77-.42-5.15-.42-5.15,1.07,3.07,2.36,6.8,2.66,7.77.35,1.15,1.05,2.64.47,4.44-.61,1.43-2,2.38-3.55,2.44h-9.4c-2.32-.39-4.01-2.4-3.99-4.75,0-1.65.58-5.86,1.04-9.25"/>
            <path id="Pfad_236" data-name="Pfad 236" class="cls-1" d="m157.95,46.73l2.08,5.26v2.37s-10.86.92-14.3-7.99l5.68-2.71,6.54,3.06Z"/>
            <path id="Pfad_237" data-name="Pfad 237" class="cls-12" d="m154.62,276.37c.67-30.46,4.41-110.1,4.82-110.09,1.13,12.26,3.6,81.73,4,110.09,5.99.14,7.65.41,13.64.59,2.46-23.58,6.76-58.43,7.39-70.97.72-14.39,3.59-49.34,2.61-72.42,0,0-3.12-10.91-5.12-14.98-6.12-12.42-46.07,0-46.07,0l-4.34,14.83c-1.2,23.1.27,47.78,1.92,71.1,1.23,17.48,4.78,46.18,7.05,72.43,4.68-.52,9.39-.71,14.1-.59"/>
            <path id="Pfad_238" data-name="Pfad 238" class="cls-3" d="m167.25,269.92c.05-17.85.61-35.78-.23-53.62-.42-8.97-1.23-17.95-2.43-26.85-1.05-7.75-4.51-23.36-5.15-23.17,1.15,13.42,3.61,82.06,4,110.09,1.53.04,2.78.08,3.89.13-.08-2.2-.08-4.4-.08-6.58"/>
            <path id="Pfad_239" data-name="Pfad 239" class="cls-3" d="m139.89,230.56c-2.54-9.64-2.57-19.72-2.19-29.62.35-9.37.79-18.75,1.37-28.1.26-4.22.55-8.45,1.2-12.63.61-3.91,1.9-7.77,4.56-10.78,2.58-2.93,6.55-4.46,10.2-5.55,3.25-.97,6.6-1.71,9.91-2.45,3.19-.71,6.45-1.07,9.66-1.71,1.78-.33,3.54-.79,5.25-1.38.04-.02.78-.32.72-.29.25-.12.5-.24.75-.37.32-.17.61-.37.93-.55l.12-.07s.08-.08.15-.13c1.26-1.16,3.1-1.47,4.67-.78-.03-.87-.06-1.73-.09-2.57,0,0-3.12-10.91-5.12-14.98-6.12-12.42-46.07,0-46.07,0l-4.34,14.83c-1.2,23.1.27,47.78,1.92,71.1,1.23,17.48,4.78,46.18,7.05,72.43,1.1-.13,2.19-.23,3.27-.31-1.01-9.46-2.03-18.93-2.8-28.41-.48-5.88-.87-11.78-1.11-17.68"/>
            <path id="Pfad_240" data-name="Pfad 240" class="cls-18" d="m172.56,14.26C169.07-1.05,162.18-.09,160.63.07c-1.54-.16-9.88-.95-13.8,14.26-9.54,36.98-2.12,35.99-1.53,35.99.46,0,8.12-2.12,14.06-2.12h2.55c5.94,0,3.14,1.37,11.04,1.41.59,0,7.03-2.81-.39-35.35"/>
            <path id="Pfad_241" data-name="Pfad 241" class="cls-14" d="m185.1,65.04c1.34-3.55,8.4-2.16,5.11-9.51-2.16-4.81-12.02-6.61-20.94-11.75l-.19.19-9.05,10.4-9.46-10.39h0l-.17-.19c-8.91,5.13-21.08,6.27-23.9,13.05-1.49,3.59,5.02,4.66,6.36,8.21,1.8,4.76,4.82,25.23,3.85,33.14-1.59,12.99-7.24,36.84-7.24,36.84,0,0,11.04,3.73,30.16,3.61,17.11-.53,27.96-3.61,27.96-3.61,0,0-1.29-20.47-6.34-36.84-2.35-7.62,2.05-28.37,3.85-33.14"/>
            <path id="Pfad_242" data-name="Pfad 242" class="cls-4" d="m187.21,130.46c-.76.22-1.53-.46-2.29-.24-5.49,1.73-11.08,3.09-16.75,4.08-6.15.94-12.24.51-18.42.13-3.7-.22-7.42-.22-11.11-.65-2.6-.2-5.15-.78-7.57-1.72-.02,1.14-.06,2.28-.1,3.42,3.61,1.06,13.64,3.53,28.66,3.44,17.11-.53,27.96-3.92,27.96-3.92,0,0-.11-1.72-.38-4.55"/>
            <path id="Pfad_243" data-name="Pfad 243" class="cls-7" d="m129.47,135.01s1.57,9.83,25.38,9.14c.93-.03,1.67-.8,1.65-1.73-.36-19.16,2.47-59.81-2.57-71.35-7.08-16.21-3.36-27.11-3.36-27.11h0l-.17-.19c-8.92,5.13-21.54,6.41-24.36,13.18-1.49,3.59,5.48,4.53,6.82,8.07,1.8,4.76,4.82,25.23,3.85,33.14-1.59,12.99-7.24,36.84-7.24,36.84"/>
            <path id="Pfad_244" data-name="Pfad 244" class="cls-2" d="m134.89,124.84c-.48-8.46,2.13-16.65,3.68-24.87.45-2.43.69-4.89.7-7.36,0-.6,16.95-2.82,16.95-3.41,0-.31-16.91,2.01-16.98.71-.08-1.79-.29-3.58-.63-5.34-.52-2.93-1.65-5.71-3.33-8.16,1.17,7.69,2.03,17,1.45,21.76-1.59,12.99-7.24,36.84-7.24,36.84,0,0,.7,4.36,8.19,7.07-1.38-5.66-2.31-11.43-2.78-17.24"/>
            <path id="Pfad_245" data-name="Pfad 245" class="cls-7" d="m190.51,54.62c-2.52-3.87-12.33-5.71-21.24-10.85,0,0,3.6,12.33-1.48,30.62-4.43,15.95-2,58.4-1.81,68.01.02.94.8,1.69,1.74,1.67,0,0,0,0,.01,0,17.46-.4,20.76-6.67,20.76-6.67,0,0-2.19-22.86-7.24-39.23-2.35-7.62,14.54-13.94,14.18-19.02-.39-5.4-.52-17.78-4.92-24.53"/>
            <path id="Pfad_246" data-name="Pfad 246" class="cls-2" d="m181.25,98.17c-.61-1.99.08-3.89,1.45-5.71-1.01-2.47-.98-5.35-.68-8.16.51-4.81,1.77-15.72,1.63-15.93l-.05-.07h0l.02.03-.02-.02c-1.68,7-3.58,14.38-7.72,20.27-2.09,2.98-5.6,4.98-7.65,7.98-1.11,1.62-2.12,3.31-3.02,5.06-.04,2.23-.05,4.48-.05,6.71,3.33,1.79,7.06,2.72,10.84,2.7,2.23,0,4.1.41,5.66,2.13,1.65,1.81,4.97,18.64,5.62,20.82.36,1.2.73,2.39,1.12,3.58.07-.11.1-.17.1-.17,0,0-2.19-22.86-7.24-39.23"/>
            <path id="Pfad_247" data-name="Pfad 247" class="cls-6" d="m167.1,41.03c-.47-1.67.38-8.27.38-8.27l-7.45-3.45-7.45,3.45s1.17,8.17,0,9.44c-.55.71-1.23,1.31-2.01,1.77,0,0,6,5.44,8.35,8.92.92,1.44,1.61,3.01,2.04,4.67l1.18-5.26,6.94-8.32c-.98-.72-1.68-1.76-1.98-2.94"/>
            <path id="Pfad_248" data-name="Pfad 248" class="cls-8" d="m153.09,39.86c.7.64,3.46,2.92,6.57,3,3.28.08,6.92-2.87,7.31-3.07,0-2.35.18-4.7.51-7.03l-7.45-3.45-7.45,3.45s.5,4.32.51,7.1"/>
            <path id="Pfad_249" data-name="Pfad 249" class="cls-6" d="m171.78,17.74c-1.11-10.09-11.75-11.16-11.75-11.16,0,0-10.64,1.06-11.75,11.16-.94,8.53.47,13.66,1.96,16.31,1.85,3.31,5.69,7.18,9.07,7.77.48.08.97.08,1.45,0,3.37-.59,7.21-4.47,9.07-7.77,1.49-2.65,2.89-7.78,1.96-16.31"/>
            <path id="Pfad_250" data-name="Pfad 250" class="cls-6" d="m148.12,23.12s-.97-3.18-1.77-1.19.71,3.98.71,5.57.65,2.86,1.78,1.68-.72-6.05-.72-6.05"/>
            <path id="Pfad_251" data-name="Pfad 251" class="cls-6" d="m171.94,23.12s.97-3.18,1.77-1.19-.71,3.98-.71,5.57-.65,2.86-1.78,1.68.72-6.05.72-6.05"/>
            <path id="Pfad_252" data-name="Pfad 252" class="cls-5" d="m162.5,104.37c.02,10.16-.32,20.26-.05,30.42.04,0,.25-8.95.21-13.45-.05-5.65.23-11.31.27-16.97.04-5.42-.59-37.93-.57-43.34,0-.36-.06-.71-.17-1.05-.36-1.05-1.12-3.34-1.23-3.64-.64-1.61-.46-.6-.64-.59.25,1.01,1.52,3.11,1.52,4.91,0,2.31.67,38.05.67,43.71"/>
            <path id="Pfad_253" data-name="Pfad 253" class="cls-18" d="m158.22,1.12c-16.7,0-9.97,23.49-9.97,23.49,0,0,1.16-7.11,5.24-9.08,5.24-2.53,6.81-3.74,6.81-3.74,0,0,4.1,2.13,7.75,4.36,4.02,2.47,3.89,9.25,3.89,9.25,0,0,6.14-24.28-13.71-24.28"/>
            <path id="Pfad_254" data-name="Pfad 254" class="cls-2" d="m166.97,39.79l7.25,6.52s3.08,4.02,2.83,5.53l-4.33.86,4.36,2.94c-.69,5.35-1.96,10.62-3.77,15.71-2.7,7.36-7.83,19.71-7.77,21.67s-.39-12.93,1.14-23.33c1.13-7.63,2.03-19.19,1.12-26.03-.19-1.4-.98-2.78-.84-3.88"/>
            <path id="Pfad_255" data-name="Pfad 255" class="cls-7" d="m166.97,39.79l7.25,6.52s1.88,3.72,1.62,5.23l-4.33.86,4.36,3.25c-.69,5.35-1.96,10.62-3.77,15.71-2.7,7.36-6.62,19.71-6.56,21.67s-.39-12.93,1.14-23.33c1.13-7.63,2.03-19.19,1.12-26.03-.19-1.4-.98-2.78-.84-3.88"/>
            <path id="Pfad_256" data-name="Pfad 256" class="cls-13" d="m155.99,32.59h8.15s-4.38,7.12-8.15,0"/>
            <path id="Pfad_257" data-name="Pfad 257" class="cls-6" d="m157.8,90.09s3.83-5.07,5.62-6.13c1.61-.95,7.28-1.77,7.28-1.77l-5.1,6.55-5.77,7.83-2.03-6.48Z"/>
            <path id="Pfad_258" data-name="Pfad 258" class="cls-7" d="m119.45,96.57c-2.21,17.33,11.97,13.29,18.07,11.92,6.91-1.55,14.58-4.94,25.18-10.71-2.44-2.6-3.73-6.08-3.56-9.64-13.89,3.85-26.18,4.27-30.82,5.06-4.58.78-6.84-1.99-8.86,3.37"/>
            <path id="Pfad_259" data-name="Pfad 259" class="cls-2" d="m161.76,96.64c-5.71,1.25-11.49,2.19-17.25,2.99-10.7,1.48-19.09,5.27-19.5-4.82-.02-.6-4.45.79-4.34.34-.15-.07-.31-.13-.46-.2-.3.52-.56,1.06-.76,1.63-2.21,17.33,11.97,13.29,18.07,11.92,6.91-1.55,14.58-4.94,25.18-10.71-.12-.16-.49-.53-.94-1.13"/>
            <path id="Pfad_260" data-name="Pfad 260" class="cls-17" d="m173.83,74.5l27.41-4.35c.31-.05.6.16.65.47.02.14,0,.29-.09.41l-21.98,32.89-27.42,5.22c-.4.07-.79-.19-.87-.6-.03-.18,0-.37.1-.53,3.85-5.99,18.4-28.63,21.01-32.73.26-.41.69-.7,1.18-.77"/>
            <path id="Pfad_261" data-name="Pfad 261" class="cls-15" d="m193.63,70.93c-.04-.23-.26-.39-.49-.35l-10.5,1.68c-.44.03-.85.26-1.11.61l-.34.47,12.08-1.92c.23-.04.39-.26.35-.49"/>
            <path id="Pfad_262" data-name="Pfad 262" class="cls-16" d="m174.58,75.53s24.08-4.04,27.22-4.5l-21.98,32.89-27.42,5.22c-.64.12,18.39-28.74,21-32.84.26-.41.69-.7,1.18-.77"/>
            <path id="Pfad_263" data-name="Pfad 263" class="cls-6" d="m180.82,97.76l-6.97,2.42s-2.95-3.67-4.25-4.34-3.54-1.9-4.06-2.82c-.29-.51-1.15-2.67-2.26-1.69-.86.95-.91,2.39-.11,3.39.87,1.3,1.59,2.32,1.59,2.32-.51-.04-1-.2-1.44-.47-.9-.68-1.73-1.45-2.49-2.28-.12-.12-.14-.31-.04-.45l.55-.94c-.6-.22-1.23-.37-1.87-.45-.66-.07-1.32.14-1.81.58-.54.5-1.33,1.18-1.12,1.98,0,0-.68,0-1.36,1.1-.2.39-.24.83-.12,1.25-.22.03-.42.12-.59.26-.28.34-.47.74-.57,1.16-.17.45-.16.94.03,1.38-.3.65-.32,1.4-.05,2.07.3.43,3.47,3.1,5.44,3.51.43.09,9.8,3.34,11.96,3.29,0,0,7.44-.31,13.07-.89-1.16-3.47-2.26-6.96-3.53-10.38"/>
            <path id="Pfad_264" data-name="Pfad 264" class="cls-1" d="m180.51,98.31c-.11-.1-.2-.22-.26-.36l-6.4,2.22s.25.16.32.35c.84,2.97.14,6.16-1.87,8.49-.03.03-.03.08,0,.1.01.01.03.02.05.02,5.73-.05,11.45-.64,17.07-1.76l.13-.04c-2.96-3.07-5.94-6.12-9.05-9.04"/>
            <path id="Pfad_265" data-name="Pfad 265" class="cls-7" d="m195.72,80.13l-10.84,16.22-10.68,3.24c2.1.45,2.25,3.52,1.74,6-.12.58-.73,3.47-3.06,3.81,5.98.21,11.97-.29,17.83-1.49,4.87-1.26,5.98-3.29,6.32-5.89s-1.07-17.36-1.3-21.9"/>
            <path id="Pfad_266" data-name="Pfad 266" class="cls-2" d="m196.83,95.12c-.48,3.94-2.19,7.64-5.99,9.44-1.81.8-3.73,1.34-5.69,1.6-.67.18-1.33.34-1.98.49-1.62.41-3.29.61-4.97.61-.97.11-1.94.19-2.91.24-.44,1-1.34,1.72-2.41,1.92,5.98.21,11.97-.29,17.83-1.49,4.87-1.26,5.98-3.29,6.32-5.89.08-2.3.01-4.61-.2-6.9"/>
            <path id="Pfad_267" data-name="Pfad 267" class="cls-8" d="m164.78,97.04c1.02.32,2.03.68,3.02,1.1-1.03-.69-2.16-1.22-3.35-1.57l.33.47Z"/>
            <path id="Pfad_268" data-name="Pfad 268" class="cls-8" d="m156.55,95c.62.91,1.31,1.78,2.06,2.59.8.83,1.61,1.37,1.79,1.57.42.46.58,1.14.07.76s-1.18-1.24-1.79-1.79c-.79-.99-1.5-2.04-2.13-3.13"/>
            <path id="Pfad_269" data-name="Pfad 269" class="cls-8" d="m155.06,97.27c.68,1.16,1.47,2.25,2.36,3.26.27.23,2.23,1.86,2.29,2.01s-.22.33-.47.05c-.29-.32-.61-.61-.95-.88-.62-.52-1.2-1.08-1.74-1.68-.29-.39-1.49-2.76-1.49-2.76"/>
            <path id="Pfad_270" data-name="Pfad 270" class="cls-8" d="m153.94,100.16c.58.58,1.2,1.11,1.87,1.58.95.58,1.85,1.26,2.66,2.02.12.18-.4.21-.74-.24-.6-.79-1.67-1.23-2.29-1.78-.54-.49-1.04-1.02-1.5-1.58"/>
            <path id="Pfad_271" data-name="Pfad 271" class="cls-2" d="m172.61,109.16c.01.14.12.24.26.25.28-.04.56-.12.82-.25h-1.08Z"/>
            <path id="Pfad_272" data-name="Pfad 272" class="cls-2" d="m153.09,39.86l-8.38,6.67s-2.03,5.46-1.53,5.49c1.48.08,2.93.45,4.26,1.1l-4.03,2.38c1.44,6.63,3.64,13.08,6.56,19.21,6.54,13.44,6.88,17.89,6.88,17.89,0,0,.13-17.05-1.79-29.34-1.02-6.55-2.71-16.05-2.31-20.14.05-.49.28-2.34.35-3.25"/>
            <path id="Pfad_273" data-name="Pfad 273" class="cls-7" d="m153.09,39.86l-8.38,6.67s-1.13,4.85-.62,4.88c1.76.17,3.49.59,5.12,1.26l-4.79,2.98c1.35,6.46,3.41,12.75,6.15,18.75,4.88,10.59,6.27,18.19,6.27,18.19,0,0,.13-17.05-1.79-29.34-1.02-6.55-2.71-16.05-2.31-20.14.05-.49.28-2.34.35-3.25"/>
            <path id="Pfad_274" data-name="Pfad 274" class="cls-5" d="m153.09,39.86s1.04,7.78,5.94,10.46l-3.17,7.23c-1.46-1.72-2.37-3.84-2.63-6.08-.28-3.86-.33-7.74-.14-11.61"/>
            <path id="Pfad_275" data-name="Pfad 275" class="cls-14" d="m153.09,39.86s1.04,7.78,5.93,10.46l-3.16,5.71c-1.46-2.11-2.44-4.5-2.9-7.03-.44-3.04-.39-6.12.12-9.15"/>
            <path id="Pfad_276" data-name="Pfad 276" class="cls-5" d="m166.98,39.79s.18,7.78-4.71,10.46l3.6,7.01c1.35-2.1,2.15-4.52,2.31-7.01.09-4.08-1.2-10.46-1.2-10.46"/>
            <path id="Pfad_277" data-name="Pfad 277" class="cls-14" d="m166.98,39.79s.18,7.78-4.71,10.46l3.45,5.09c1.41-1.94,2.25-4.24,2.44-6.64.12-3.02-.28-6.03-1.18-8.92"/>
            <path id="Pfad_278" data-name="Pfad 278" class="cls-5" d="m159.03,50.32s2.41,5.9,2.81,10.34c0,0-2.64-9.73-4.71-5.99l1.9-4.35Z"/>
            <path id="Pfad_279" data-name="Pfad 279" class="cls-5" d="m162.27,50.25l-1.38,7.54s.4-1.07,1.61-3.82c.3-.67.98-.79,1.72.09l-1.95-3.81Z"/>
            <path id="Pfad_280" data-name="Pfad 280" class="cls-2" d="m173.99,100.13s-.03-.55.31-.55c.22.01.44.09.61.23l-.92.32Z"/>
            <path id="Pfad_281" data-name="Pfad 281" class="cls-7" d="m128.47,54.02c-4.57,1.82-6.96,23.14-8.63,38.81l.87.2c.15.03.28.09.41.18.09.01.18.04.26.07,3.49,1.36,7.36,1.51,11.02,2.14,1.33.23,2.65.45,3.98.67.99-5.86,2.2-12.65,3.27-18.27,1.69-14.56-6.36-22.83-11.19-23.8"/>
            <path id="Pfad_282" data-name="Pfad 282" class="cls-2" d="m126.16,102.86c-1.55-5.14-1.22-10.86-.85-16.15.39-5.72,1.1-11.4,1.35-17.13.22-5.22.43-10.5,1.93-15.54-.04,0-.07-.02-.11-.03-5.06,2.02-7.44,27.98-9.15,43.65-.5,4.13,2.43,7.88,6.56,8.39.01,0,.03,0,.04,0,.57.06,1.15.12,1.72.19-.64-1.06-1.14-2.2-1.49-3.39"/>
            <path id="Pfad_283" data-name="Pfad 283" class="cls-2" d="m136.2,72.95s3.5,13.04,3.07,18.78l-2.3.48c.32-6.43.07-12.88-.77-19.26"/>
            <path id="Pfad_284" data-name="Pfad 284" class="cls-2" d="m135.12,112.16c2.4.86,4.88,1.47,7.4,1.81,1.25.19,2.52.31,3.79.36l.47.02h.12c.06,0,.11.02.17.03.11.02.22.07.32.12.2.12.35.3.43.52.04.11.06.22.06.34,0,.06,0,.11,0,.17v.12s-.24,1.9-.24,1.9l-.22,1.9v.12s-.02.07-.03.14c-.09.52-.53.91-1.06.93-.15,0-.2,0-.28,0l-.48-.02c-1.28-.08-2.56-.18-3.83-.37-1.28-.18-2.54-.43-3.79-.74-1.27-.28-2.48-.77-3.58-1.47l.05-.08c1.18.46,2.41.77,3.66.92,1.25.19,2.51.34,3.77.47s2.53.26,3.79.38c.78.06.92.2.99-.38l.3-1.89.3-1.89.02-.12s0-.05,0-.07c0-.04,0-.09-.02-.13-.03-.09-.08-.16-.16-.21-.04-.03-.08-.04-.12-.05-.02,0-.04,0-.07-.01h-.12s-.48-.05-.48-.05c-3.85-.3-7.62-1.2-11.19-2.67l.04-.08Z"/>
            <path id="Pfad_285" data-name="Pfad 285" class="cls-2" d="m184.27,112.24c-3.57,1.48-7.34,2.38-11.19,2.67l-.48.04h-.12s-.04.02-.07.02c-.04.01-.08.03-.12.05-.07.05-.13.12-.16.21-.01.04-.02.09-.02.13,0,.02,0,.05,0,.07l.02.12.3,1.89.3,1.89c.07.57.21.43.99.38,1.26-.12,2.53-.25,3.79-.38s2.52-.28,3.77-.47c1.26-.15,2.49-.46,3.66-.92l.05.08c-1.1.7-2.31,1.2-3.58,1.47-1.25.32-2.52.56-3.79.74-1.27.19-2.55.3-3.83.37l-.48.02c-.09,0-.13,0-.28,0-.53-.02-.97-.41-1.06-.93-.01-.07-.01-.1-.02-.14v-.12s-.24-1.9-.24-1.9l-.23-1.9v-.12c-.02-.05-.02-.11-.02-.17,0-.12.02-.23.06-.34.08-.22.23-.4.43-.52.1-.06.21-.1.32-.12.06-.01.11-.02.17-.02h.12s.47-.03.47-.03c1.27-.05,2.53-.17,3.79-.36,2.52-.34,5.01-.95,7.4-1.81l.04.08Z"/>
            <path id="Pfad_286" data-name="Pfad 286" class="cls-2" d="m184.88,96.35l6.63-1.54c-1.93-.4-3.93-.3-5.8.3l-.83,1.24Z"/>
          </g>
        </g>
      </g>
    </g>
  </g>
</svg>