<?xml version="1.0" encoding="UTF-8"?>
<svg id="Ebene_2" data-name="Ebene 2" xmlns="http://www.w3.org/2000/svg" xmlns:xlink="http://www.w3.org/1999/xlink" viewBox="0 0 268.06 296.64">
  <defs>
    <style>
      .cls-1 {
        fill: #ea571a;
      }

      .cls-2 {
        fill: #ec681c;
      }

      .cls-3 {
        fill: #ef8a66;
      }

      .cls-4 {
        fill: #ce7857;
      }

      .cls-5 {
        fill: #f7b002;
      }

      .cls-6 {
        opacity: .5;
      }

      .cls-7 {
        fill: #bf8a0d;
      }

      .cls-8 {
        fill: #2a317d;
      }

      .cls-9 {
        fill: #b3880f;
      }

      .cls-10 {
        clip-path: url(#clippath-2);
      }

      .cls-11 {
        fill: #848ac4;
      }

      .cls-12 {
        fill: #447fc1;
      }

      .cls-13 {
        fill: #292c4f;
      }

      .cls-14 {
        fill: #185faa;
      }

      .cls-15 {
        fill: #1a1a30;
      }

      .cls-16 {
        fill: #262756;
      }

      .cls-17 {
        clip-path: url(#clippath-1);
      }

      .cls-18 {
        fill: #ffda00;
      }

      .cls-19 {
        fill: #cf9604;
      }

      .cls-20 {
        fill: #1a2d4d;
      }

      .cls-21 {
        fill: #e9510e;
      }

      .cls-22 {
        fill: #2a2f6d;
      }

      .cls-23 {
        fill: #e8e8f5;
      }

      .cls-24 {
        fill: #2e378c;
      }

      .cls-25 {
        clip-path: url(#clippath);
      }

      .cls-26 {
        fill: none;
      }

      .cls-27 {
        fill: #b0dbdb;
      }

      .cls-28 {
        fill: #1858a5;
      }

      .cls-29 {
        fill: #585891;
      }

      .cls-30 {
        fill: #172641;
      }

      .cls-31 {
        fill: #6593cd;
      }

      .cls-32 {
        fill: #fec902;
      }

      .cls-33 {
        fill: #fab710;
      }

      .cls-34 {
        fill: #ee741a;
      }

      .cls-35 {
        fill: #e5a601;
      }

      .cls-36 {
        fill: #1d1d21;
      }

      .cls-37 {
        fill: #f18523;
      }

      .cls-38 {
        fill: #d04916;
      }
    </style>
    <clipPath id="clippath">
      <rect class="cls-26" x="94.4" width="114.66" height="296.21"/>
    </clipPath>
    <clipPath id="clippath-1">
      <rect class="cls-26" x="94.4" width="114.66" height="296.21"/>
    </clipPath>
    <clipPath id="clippath-2">
      <rect class="cls-26" x="160.65" y="36.76" width="8.38" height="3.14"/>
    </clipPath>
  </defs>
  <g id="Ebene_1-2" data-name="Ebene 1">
    <g id="Gruppe_407" data-name="Gruppe 407">
      <circle id="Ellipse_3" data-name="Ellipse 3" class="cls-27" cx="134.03" cy="162.61" r="134.03"/>
      <g id="Gruppe_404" data-name="Gruppe 404">
        <g class="cls-25">
          <g id="Gruppe_403" data-name="Gruppe 403">
            <g id="Gruppe_402" data-name="Gruppe 402">
              <g class="cls-17">
                <g id="Gruppe_401" data-name="Gruppe 401">
                  <path id="Pfad_80" data-name="Pfad 80" class="cls-7" d="m200.42,176.74c-.08,0-.16,0-.23-.02l-3.91-.72c-.7-.13-1.15-.35-1.06-1.06.18-.93,1.07-1.55,2.01-1.39l3.14.58,3.05-.79,1.24-5.89c.15-.7,2.68-.17,2.53.53l-1.4,6.68c-.1.48-.47.86-.94.99l-4.1,1.06c-.11.03-.21.04-.32.04"/>
                  <path id="Pfad_81" data-name="Pfad 81" class="cls-7" d="m200.42,174.74c-.07,0-.14,0-.21-.02l-3.91-.72c-.62-.11-1.2-.46-1.1-1.08.2-1.16,1.46-1.19,2.08-1.07l3.04.56,2.73-1.36,1.75-5.49c.18-.61.81-.96,1.42-.79.59.17.94.77.8,1.37l-1.69,6.39c-.1.37-.37.66-.73.79l-3.82,1.34c-.12.04-.25.07-.38.07"/>
                  <path id="Pfad_82" data-name="Pfad 82" class="cls-7" d="m200.96,173.55s-.1,0-.15,0l-3.33-.43c-.63-.08-1.07-.66-.99-1.29s.66-1.07,1.29-.99h0l2.69.35,1.04-1.33.98-4.68c.1-.63.69-1.05,1.32-.95.63.1,1.05.69.95,1.32,0,.04-.01.07-.02.11l-1.04,4.95c-.04.17-.11.33-.22.47l-1.61,2.06c-.22.28-.55.44-.9.44"/>
                  <path id="Pfad_83" data-name="Pfad 83" class="cls-35" d="m198.22,153.19s-1.56,5.03-1.08,7.06c.48,1.69.85,3.41,1.08,5.14,0,.96-.04,7.3-.04,7.3,0,0-.16,1.47,1.71,1.08,1.06-.22,2.44-2.96,2.39-4.79-.03-1.2-.31-3.17,1.25-3.02.65.06.7,1.81.7,3.26,0,1.11,3.92.24,3.92.24.73-.95,1.03-2.17.84-3.35-.36-1.91-2.83-14.37-2.83-14.37-.26-.77-.69-1.47-1.25-2.06-.72-.56-6.7.63-6.7,3.51"/>
                  <path id="Pfad_84" data-name="Pfad 84" class="cls-19" d="m198.21,169.09c.2-.69.34-1.4.43-2.11.19-1.76.02-3.53.06-5.29.05-2.35.74-4.53,2.69-5.97,1.6-1.01,3.31-1.84,5.08-2.49l-.29-1.48c-.26-.77-.69-1.47-1.25-2.06-.72-.56-6.7.63-6.7,3.51,0,0-1.56,5.03-1.08,7.06.48,1.69.85,3.41,1.08,5.14,0,.45,0,2.09-.02,3.7"/>
                  <path id="Pfad_85" data-name="Pfad 85" class="cls-35" d="m199.2,179.45c-.52,0-.74-.32-.93-.84-.15-.86.25-1.72,1.01-2.16l2.48-1.33,1.59-2.64,1.05-5.26c.15-.7,2.21-.92,2.91-.77s1.37,1.53,1.22,2.23l-1.58,5.69c-.05.24-.16.46-.33.63,0,0-2.92,2.95-3.1,3.02,0,0-4.16,1.43-4.31,1.43"/>
                  <path id="Pfad_86" data-name="Pfad 86" class="cls-8" d="m207.07,152.05c-.43-5.06-4.74-25.57-5.91-37.79-1.4-14.59-3.19-43.24-3.19-43.24,0,0-16.32,13.57-14.17,37.98,1.64,18.59,9.33,37.58,12.7,45.28,2.56-1.32,7.72-1.74,10.56-2.23"/>
                  <path id="Pfad_87" data-name="Pfad 87" class="cls-22" d="m196.46,126.35c-.03-.27-.06-.55-.09-.82-1.01-9.8.1-19.64-.06-29.46-.08-5.51-.28-11.05-.52-16.56-.08-1.88-.32-4.02-.22-6.09-8.74,9.69-13.01,22.61-11.76,35.6,1.64,18.53,9.28,37.44,12.67,45.2-.7-4.11-1.01-8.28-.91-12.45.03-5.15.42-10.28.89-15.4"/>
                  <path id="Pfad_88" data-name="Pfad 88" class="cls-35" d="m128.29,172.7c.28.28,1.37,1.12,1.77-.05.23-.68.22-1.51.45-2.27.28-.71.49-1.45.62-2.2-.16-1.93-.45-3.84-.87-5.73-.8-1.26-1.67-2.48-2.61-3.63l-3.54,3.26s2.14,8.63,4.17,10.62"/>
                  <path id="Pfad_89" data-name="Pfad 89" class="cls-15" d="m125.6,273.59s.1,5.39-2.13,9.65c-1.1,2.59-1.78,5.33-2.03,8.13v3.61c.38.71,1.12,1.16,1.93,1.17h15.34s1.22.3,1.22-1.12c0-.71.08-2.63,0-3.25-.29-2.47-.76-4.92-1.42-7.32-.71-3.05-.41-3.25-.41-5.28s.1-6.4.1-6.4l-12.6.81Z"/>
                  <path id="Pfad_90" data-name="Pfad 90" class="cls-13" d="m139.92,291.76c-.72.16-1.45.29-2.18.38-.52-.27-.51-1.57-1.93-2.29-3.76-1.88-8.08-1.68-11.38,1.52-.66.64-1.65.02-2.24-.13-.25-.07-.5-.16-.74-.26-.01.16-.02.29-.02.39v3.61c.38.71,1.12,1.16,1.93,1.17h15.34s1.22.3,1.22-1.12c.06-1.08.06-2.17,0-3.25v-.02"/>
                  <path id="Pfad_91" data-name="Pfad 91" class="cls-15" d="m158.55,280.86s-3.5,10.75-1.36,14.51c.29.49.82.79,1.38.78h5.76c3.81,0,5.05-.55,6.35-.54,1.15,0,5.08.46,6.77.54,2.77.13,9.27,0,9.27,0,0,0,6.41.06,8.91-3.54,1.38-1.99-.14-2.83-1.41-4.11s-12.18-2.12-14.58-3.54c-2.39-1.63-4.66-3.43-6.8-5.38l-14.3,1.27Z"/>
                  <path id="Pfad_92" data-name="Pfad 92" class="cls-13" d="m194.23,288.5c-.56-.38-1.2-.63-1.87-.75-.31.48-.67.92-1.08,1.32-.08.17-.19.35-.29.52-.13.37-.26.75-.39,1.13-.57,1.94-1.49,3.76-2.73,5.37,1.96-.17,5.93-.83,7.77-3.48,1.38-1.99-.14-2.83-1.41-4.1"/>
                  <path id="Pfad_93" data-name="Pfad 93" class="cls-13" d="m188.01,293.69c-2.47.23-4.96.26-7.44.07-1.55-.1-3.09-.31-4.62-.61-.63-.13-1.26-.28-1.89-.4-.2-.04-.4-.08-.6-.11h-.08s-.05-.01-.07-.02c-.36.08-.73.13-1.1.16-2.86.18-5.71.47-8.58.43-2.41-.03-4.8-.36-7.12-.99-.02,1.09.21,2.17.69,3.15.29.49.82.79,1.38.78h5.76c3.81,0,5.05-.55,6.35-.54,1.15,0,5.08.46,6.77.54,2.77.13,9.27,0,9.27,0,0,0,6.41.06,8.91-3.54.24-.33.42-.7.51-1.09-2.59,1.14-5.33,1.88-8.15,2.17"/>
                  <path id="Pfad_94" data-name="Pfad 94" class="cls-8" d="m129.78,56.43c-3.34,1.67-10.64,5.6-11.7,17.22,0,0,12.85,3.03,13.86,8.84,1.5,8.6,2.9,27.9,2.5,33.11-1.17,15.37.29,32.49.29,32.49l55.25-1.56s1.25-6.23,2.07-24.01c.43-9.33-.08-24.8,2.8-36.72,1.41-5.85,3.17-12.25,3.17-12.25.48-13.48-9.66-14.92-19.78-23.34-5.1-4.24-2.12-5.05-17.12-4.61-7.84.23-7.66-3.03-12.12.77-3.55,3.03-11.57,6.25-19.21,10.07"/>
                  <path id="Pfad_95" data-name="Pfad 95" class="cls-8" d="m135.22,136.66c-.94,15.21-.69,35.42-.69,35.42l20.96,4.63,32.65-1.99s2.89-13.65,2.26-40.82c-.14-6.11-54.38-10.33-55.18,2.74"/>
                  <path id="Pfad_96" data-name="Pfad 96" class="cls-22" d="m140.41,128.06c-.38-7.94-.42-15.89-1.21-23.81-.06-.65-.13-1.3-.21-1.95-.02-.15-.04-.31-.06-.46-.26-.97-.3-2.05-.48-3.03-.36-2.15-.86-4.27-1.51-6.35-.09-.29-.2-.57-.3-.86-.04-.08-.08-.17-.12-.25-.18-.36-.4-.7-.6-1.05l-.03-.02h-.01s-.07-.04-.07-.04c-.12,0-.22,0-.29,0-.9.03-1.79-.14-2.61-.5,1.05,9.41,1.82,21.84,1.52,25.85-1.17,15.37.29,32.49.29,32.49l14.02-.39c-6.42-4.06-7.99-12.46-8.33-19.63"/>
                  <path id="Pfad_97" data-name="Pfad 97" class="cls-24" d="m176.95,52.36c-1.54-.52-3.08-1.02-4.63-1.51-1.42-.44-2.87-.84-4.24-1.4,1.62,16.21-2.44,20.92-2.05,32.43.74,21.69,3.59,43.66.34,65.32l4.29.06c1.62-8.82,5.18-24.34,1.65-53.02-1.91-18.24-2.83-26.72,4.38-40.52.17-.43.26-.89.26-1.35"/>
                  <path id="Pfad_98" data-name="Pfad 98" class="cls-8" d="m190.15,155.19c-.88,37.06-3.53,54.05-6.84,72.36-2.69,14.89-5.71,35.34-8.25,53.17l-17.47,1.37c.69-17.8.7-37.3,2.54-56.55,1.35-14.09-.21-49.06-.95-70.57l30.97.22Z"/>
                  <path id="Pfad_99" data-name="Pfad 99" class="cls-22" d="m166.51,210.54c-.82,5.84-1.29,11.72-1.4,17.61-.15,4.95-.29,9.89-.64,14.83-.35,4.99-.83,9.96-1.27,14.93-.81,7.91-1.11,15.86-.91,23.8l-4.71.37c.69-17.8.7-37.3,2.54-56.55.96-10.06.44-30.77-.2-49.61.03.06.06.12.09.18.04.08.08.15.13.23.08.24.17.48.24.7.38.99.72,2,1.03,3.01,1,3.37,1.76,6.81,2.3,10.29,1.07,6.55,1.9,13.13,2.93,19.69-.06.17-.1.34-.13.52"/>
                  <path id="Pfad_100" data-name="Pfad 100" class="cls-8" d="m165.49,163.6c-3.89,23.14-9.13,46.03-15.71,68.56-4.29,14.63-8.06,41.81-11.25,50.26l-14.82-.32c-1.21-17.21,2.37-37.77,4.88-54.31,3.2-22.19,2.84-61,5.95-83.26l30.96,19.08Z"/>
                  <path id="Pfad_101" data-name="Pfad 101" class="cls-22" d="m131.92,266.57c.41-18.18,3.65-36.14,6.72-54.01,1.48-16.32,1.19-32.91,4.97-48.91,2.38-10.09,28.32-7.54,27.54-12.05l-36.61-7.08c-3.11,22.26-2.75,61.07-5.95,83.26-2.51,16.54-6.09,37.1-4.88,54.31l9.05.2c-.91-5.16-.88-10.49-.84-15.71"/>
                  <path id="Pfad_102" data-name="Pfad 102" class="cls-8" d="m121.09,64.58c-5.68,12.52-9.27,39.7-10.09,50.89-.54,7.29.88,27.02,3.97,39.93l10.85-.83c1.54-12.02,1.35-31.89,2.78-39.46,2.1-11.09,9.39-28.83,12.11-42.87l-19.62-7.66Z"/>
                  <path id="Pfad_103" data-name="Pfad 103" class="cls-22" d="m116.22,140.44c-2.54-24.75,4.65-48.29,3.2-72.99-5.21,13.2-7.65,37.37-8.43,48.02-.54,7.29.88,27.02,3.97,39.93l4.07-.31c-1.37-4.79-2.31-9.69-2.8-14.64"/>
                  <path id="Pfad_104" data-name="Pfad 104" class="cls-3" d="m154.52,38.25s-.12,7.2-3.46,12.06l11.85,4.27,5.1,11.55,3.08-10.47,2.07-6.73-1.47-11.47-17.17.8Z"/>
                  <path id="Pfad_105" data-name="Pfad 105" class="cls-4" d="m159.96,48.15c1.91.79,6.98.88,8.5.02,2.51-1.44,3.34-7.35,3.61-7.74l-.38-2.97-16.96.79c0,3.83,3.02,8.29,5.24,9.91"/>
                  <path id="Pfad_106" data-name="Pfad 106" class="cls-3" d="m151.8,20.74s.19,13.26,1.66,15.62,4.27,9.71,10.88,10,10.43-9.14,10.74-10.74c.8-4.38,1.31-8.81,1.52-13.26.34-5.17.26-14.68-12.21-14.68-11.56,0-12.59,7.18-12.59,13.06"/>
                  <path id="Pfad_107" data-name="Pfad 107" class="cls-36" d="m151.78,27.02l2.39-.55s-.12-4.38.53-4.85c1.22-.88,1.62-3.67,2.14-4.93,1.4-3.38,6.44-.13,10-.25,5.81-.19,6.86-.95,7.9.23,1.07,1.22.63,9.94.63,9.94l1.76-.74s.71-6.36.67-8.24c-.12-4.48-1.37-11.03-10.88-11.52-6.4-.33-9.39,1.13-9.39,1.13,0,0-3.88-.49-5.98,4.88-1.59,4.04-2.02,7.4-1.09,13.53.89,5.87,1.34,1.35,1.34,1.35"/>
                  <path id="Pfad_108" data-name="Pfad 108" class="cls-3" d="m152.64,25.03c-.3-.53-2-1.76-2.44,0s-.39,6.52,1.22,7.65c.79.68,1.96.68,2.75,0,0,0-.56-5.96-1.53-7.65"/>
                  <path id="Pfad_109" data-name="Pfad 109" class="cls-3" d="m174.67,26.35s2.75-1.68,3.24-.88c1.03,1.69-.26,6.89-1.15,7.71-.65.7-1.75.73-2.44.07-.29-.27-.47-.63-.53-1.02-.44-1.76.88-5.88.88-5.88"/>
                  <path id="Pfad_110" data-name="Pfad 110" class="cls-33" d="m164.16.7h-1.47c-7.75,0-14.03,6.28-14.03,14.03v3.31h29.54v-3.31c0-7.75-6.28-14.03-14.03-14.03"/>
                  <path id="Pfad_111" data-name="Pfad 111" class="cls-5" d="m152.28,10.79c.94-4.03,3.46-7.51,6.99-9.66-6.24,1.56-10.63,7.17-10.63,13.61v3.31h2.97c-.1-2.44.12-4.88.67-7.27"/>
                  <path id="Pfad_112" data-name="Pfad 112" class="cls-32" d="m162.19,10.96c.12-3.13-.17-6.26-.87-9.32-.21-.67.17-1.39.84-1.59.07-.02.14-.04.21-.05h7.98c.53.03.97.43,1.05.95.8,3.27,1.14,6.64,1.02,10.01h-10.25Z"/>
                  <path id="Pfad_113" data-name="Pfad 113" class="cls-32" d="m162.22,8.33l-4.76,2.54c-.73.41-1.23,1.12-1.35,1.95l-.73,4.31h22.75l-1.43-4.82c-.16-.54-.47-1.01-.91-1.36l-3.31-2.62h-10.26Z"/>
                  <rect id="Rechteck_26" data-name="Rechteck 26" class="cls-33" x="148.04" y="15.93" width="2.19" height="3.01"/>
                  <rect id="Rechteck_27" data-name="Rechteck 27" class="cls-33" x="177.12" y="15.13" width="2.19" height="3.01"/>
                  <path id="Pfad_114" data-name="Pfad 114" class="cls-32" d="m148.65,18.21l5.27-1.5c3.91-.68,7.87-1,11.84-.97,3.54.05,7.07.37,10.56.94l3.26,1.54s1.4,1,.6,3.17c-.4,1.07-2.81,2.37-2.81,2.37,0,0,.1-.78.18-2.06.06-.63.08-1.25.06-1.88l-9.93.02c-7.05,0-12.28-.12-15.09-.2-1.28-.04-2.62.02-2.62.02,0,0,0,.91.13,2.89.03.5.21,2.16.21,2.16,0,0-4.11-.79-3.85-3.69.19-1.26,1.02-2.33,2.19-2.81"/>
                  <path id="Pfad_115" data-name="Pfad 115" class="cls-9" d="m149.96,19.65c-.76-.01-1.5.23-2.1.69-.96.61-.7,2.25-.27,2.64.71.74,1.65,1.22,2.67,1.37,0,0-.12-1.06-.17-1.81-.13-1.79-.13-2.89-.13-2.89"/>
                  <path id="Pfad_116" data-name="Pfad 116" class="cls-9" d="m179.61,20.13c-.62-.31-1.32-.42-2-.33-.01.46-.03.89-.06,1.7-.03.78-.15,1.95-.15,1.95.41-.25.79-.53,1.15-.84.58-.44,2.19-1.63,1.06-2.48"/>
                  <path id="Pfad_117" data-name="Pfad 117" class="cls-30" d="m115.38,185.47h3.77v-16.01h6.55v16.01h3.77v-16.47c-.03-1.78-1.5-3.2-3.28-3.18h-7.52c-1.78-.03-3.25,1.39-3.28,3.18v16.47Z"/>
                  <path id="Pfad_118" data-name="Pfad 118" class="cls-35" d="m125.57,155.53l-9.14.72s-1.73,7.93-1.94,8.58c-.39,1.21-.43,2.51-.12,3.75.28.7,3.9,3.47,4.57,3.9.27.1.56.14.84.12.31.29.65.56,1.02.78.4.13,1.07.47,1.31-.08.45.25.95.38,1.46.39.53-.36,1.01-.79,1.43-1.28.67-.19.69-.37.69-.37v-2.57h-.28c-.76-.14-1.36-.74-1.49-1.51-.05-1.22.19-1.84,2-2.11s1.06-.95,1.06-.95l1-5.56-2.42-3.8Z"/>
                  <path id="Pfad_119" data-name="Pfad 119" class="cls-19" d="m115.83,167.55c.03-2.44,1.66-4.75,3.16-6.56,1.85-2.24,4.35-3.07,6.78-4.48.11-.06.22-.11.33-.15l-.53-.83-9.14.72s-1.73,7.93-1.94,8.58c-.39,1.21-.43,2.51-.12,3.75.58.76,1.27,1.42,2.05,1.98-.39-.95-.6-1.98-.6-3.01"/>
                  <path id="Pfad_120" data-name="Pfad 120" class="cls-19" d="m116.84,170.16l2.96,2.43-.5-.03-2.46-2.4Z"/>
                  <path id="Pfad_121" data-name="Pfad 121" class="cls-19" d="m117.51,169.76c.49.2.95.46,1.38.76.21.15,3.23,2.77,3.23,2.77l-.13.19s-2.38-1.86-3.13-2.65c-.41-.4-.86-.76-1.35-1.07"/>
                  <path id="Pfad_122" data-name="Pfad 122" class="cls-19" d="m119.08,169.2c.47.39.88.84,1.24,1.33.72.83,1.5,1.6,2.34,2.31.79-.08,1.58-.22,2.35-.43l-.28.29s-1.87.66-2.3.32c-.82-.7-1.58-1.48-2.27-2.31-.15-.31-1.08-1.5-1.08-1.5"/>
                  <rect id="Rechteck_28" data-name="Rechteck 28" class="cls-14" x="110.56" y="187.38" width="36.6" height="29.76"/>
                  <rect id="Rechteck_29" data-name="Rechteck 29" class="cls-30" x="95.64" y="187.38" width="14.92" height="29.76"/>
                  <path id="Pfad_123" data-name="Pfad 123" class="cls-21" d="m95.64,187.9h14.92v-10.84h-14.09l-.82,10.84Z"/>
                  <path id="Pfad_124" data-name="Pfad 124" class="cls-37" d="m147.15,187.9h-36.6v-10.84h35.77l.82,10.84Z"/>
                  <rect id="Rechteck_30" data-name="Rechteck 30" class="cls-21" x="94.4" y="181.06" width="17.25" height="9.74"/>
                  <rect id="Rechteck_31" data-name="Rechteck 31" class="cls-20" x="94.4" y="185.94" width="17.25" height="4.87"/>
                  <rect id="Rechteck_32" data-name="Rechteck 32" class="cls-2" x="111.65" y="181.06" width="36.55" height="9.74"/>
                  <rect id="Rechteck_33" data-name="Rechteck 33" class="cls-12" x="111.65" y="185.94" width="36.55" height="4.87"/>
                  <rect id="Rechteck_34" data-name="Rechteck 34" class="cls-20" x="97.49" y="181.06" width="2.17" height="7.31"/>
                  <rect id="Rechteck_35" data-name="Rechteck 35" class="cls-20" x="106.4" y="181.06" width="2.17" height="7.31"/>
                  <path id="Pfad_125" data-name="Pfad 125" class="cls-24" d="m154.42,39.74s-2.95.33-3.36,1.18c-.85,1.76-3.8,6.33-3.8,6.33.92,2.36,1.99,4.66,3.21,6.88,2.24,3.79,4.67,6.5,4.59,7.19l6.79-6.73,6.15,11.55s-4.27-13.21-4.86-13.94-3.15,2.03-8.58-9.15c-.33-.67-.15-3.31-.15-3.31"/>
                  <path id="Pfad_126" data-name="Pfad 126" class="cls-24" d="m172.28,42.12s1.6-.33,2.43,2.01c1.83,5.17,6.57,14.37,6.57,14.37,0,0-3.97-3.48-4.75-3.81s-3.39,3.73-3.39,3.73l-5.15,7.72s2.97-12.02,3.52-13.73,1.4-2.73,1.29-4.38-.54-5.9-.54-5.9"/>
                  <path id="Pfad_127" data-name="Pfad 127" class="cls-22" d="m167.95,66.11c-.56,1.63-1.01,3.29-1.35,4.98-.35,1.69-.61,3.39-.79,5.1-.37,3.43-.43,6.89-.2,10.33.28,3.42.44,6.83.55,10.25s.18,6.85.21,10.27.05,6.85.05,10.27.03,6.85,0,10.27-.06,6.85-.17,10.27c-.05,1.71-.13,3.42-.23,5.13-.08,1.71-.28,3.4-.6,5.08l.13.03c.25-.83.45-1.67.59-2.52.15-.85.28-1.7.4-2.55.24-1.71.39-3.42.54-5.13.27-3.43.44-6.86.55-10.29s.17-6.86.16-10.3-.07-6.86-.19-10.3-.23-6.86-.41-10.29-.37-6.87-.72-10.28c-.32-3.4-.37-6.81-.14-10.21.12-1.7.31-3.4.59-5.09.27-1.69.65-3.36,1.14-4.99l-.13-.04Z"/>
                  <path id="Pfad_128" data-name="Pfad 128" class="cls-22" d="m172.31,77.56s11.68,2.49,19.15.55l.51,6.37s-3.87.3-7.59.61c-3.51.29-9.25.85-11.35.96l-.72-8.49Z"/>
                  <path id="Pfad_129" data-name="Pfad 129" class="cls-24" d="m172.31,77.56l1.04,6.98s6.92-.97,12.23-1.57c2.01-.23,8.08-.04,8.08-.04l-2-6.9c-3.61-.47-9.29-.28-19.34,1.54"/>
                  <path id="Pfad_130" data-name="Pfad 130" class="cls-22" d="m141.85,78.02c-.29.07,0,8.49,0,8.49,0,0,6.92-1.45,9.93-1.44s11.49.65,11.49.65l-.42-8.59s-14.44-.76-21.01.89"/>
                  <path id="Pfad_131" data-name="Pfad 131" class="cls-24" d="m140.7,77.13s6.17-1.76,11.07-1.32,11.07,1.32,11.07,1.32v7.94s-7.19-1.76-12.77-1.32c-3.15.23-6.28.67-9.38,1.32v-7.94Z"/>
                  <path id="Pfad_132" data-name="Pfad 132" class="cls-22" d="m115.19,157.71l11.58-1.43-.56-6.12-12.19,1.21,1.17,6.34Z"/>
                  <g id="Gruppe_400" data-name="Gruppe 400" class="cls-6">
                    <g id="Gruppe_399" data-name="Gruppe 399">
                      <g class="cls-10">
                        <g id="Gruppe_398" data-name="Gruppe 398">
                          <path id="Pfad_133" data-name="Pfad 133" class="cls-23" d="m160.65,36.76h8.38s-3.97,7.06-8.38,0"/>
                        </g>
                      </g>
                    </g>
                  </g>
                  <path id="Pfad_134" data-name="Pfad 134" class="cls-16" d="m133.38,140.73c0-.58.47-1.06,1.05-1.06.17,0,.34.04.5.12,2.98,1.59,10.75,4.57,27.23,4.67,17.34.1,25.78-1.12,28.74-1.68.57-.11,1.13.27,1.24.84.01.07.02.15.02.22l-.14,7.05c0,.51-.38.94-.88,1.02-4.48.73-25.6,3.83-45.88,1.13-4.06-.43-7.97-1.8-11.42-3.99-.28-.2-.45-.52-.45-.87v-7.45Z"/>
                  <path id="Pfad_135" data-name="Pfad 135" class="cls-38" d="m190.61,152.36l-17.58.99-.04-8.26c0-.37-.29-.67-.66-.68,0,0-.14-.94,1.4-.94,1.81,0,6.65-.13,8.51-.23,1.52-.08,5.26-.44,7.19-.63.59-.06,1.12.38,1.18.97,0,.04,0,.07,0,.11v8.67Z"/>
                  <path id="Pfad_136" data-name="Pfad 136" class="cls-12" d="m176.76,159.53l1.08,7.68h.3s.09-6.75.1-8.01c-.59-.03-1.11-.4-1.32-.96l-.15.07-.02,1.21Z"/>
                  <path id="Pfad_137" data-name="Pfad 137" class="cls-12" d="m179.68,157.17l.2-.1v-1.09s-.18-.93-.18-.93l-.95-.46-.35.72v.94c.56.03,1.07.39,1.29.92"/>
                  <path id="Pfad_138" data-name="Pfad 138" class="cls-12" d="m178.2,163.31c-.02,2.15-.05,3.92-.06,3.91h-.3l-.95-6.76c.07.22.78,2.85,1.31,2.86"/>
                  <path id="Pfad_139" data-name="Pfad 139" class="cls-12" d="m179.59,157.75c0-.7-.55-1.27-1.25-1.28-.7,0-1.27.55-1.28,1.25s.55,1.27,1.25,1.28h0c.7,0,1.27-.55,1.28-1.25"/>
                  <path id="Pfad_140" data-name="Pfad 140" class="cls-18" d="m179.26,152.53c-.13.08-.23.2-.28.35l-.52,1.56c-.04.12,0,.25.11.32l1.24.8c.12.08.29.05.38-.07l.21-.3c.08-.11.2-.18.33-.18l.44-.02c.15,0,.28-.11.32-.26l.05-.22c.02-.09,0-.18-.04-.26l-.08-.13c-.2-.32-.24-.72-.1-1.08,1.7-3.42,2.07-7.36,1.02-11.03-.35-.01-.64.26-.65.61,0,.03,0,.06,0,.09.02.91.83,3.6.16,6.55-.58,2.57-1.3,2.85-2.15,2.59-.05.13-.1.25-.15.36-.06.14-.15.26-.28.33"/>
                  <path id="Pfad_141" data-name="Pfad 141" class="cls-30" d="m181.84,149.25c.67-2.95-.14-5.65-.16-6.55-.04-.35.21-.66.56-.7.03,0,.06,0,.09,0-.08-.36-.14-.58-.15-.61-.15-.52-.7-.81-1.21-.66-.5.15-.8.66-.67,1.17.46,1.78.67,3.61.62,5.45-.2,1.55-.62,3.06-1.23,4.49.85.26,1.57-.01,2.15-2.59"/>
                  <rect id="Rechteck_37" data-name="Rechteck 37" class="cls-12" x="177.16" y="159.77" width="1.84" height=".32" transform="translate(15.9 335.95) rotate(-89.27)"/>
                  <path id="Pfad_142" data-name="Pfad 142" class="cls-12" d="m178.24,159.21v-.2l-.77-1.04-.55.28c.21.56.73.93,1.32.96"/>
                  <path id="Pfad_143" data-name="Pfad 143" class="cls-12" d="m179.2,157.41l.48-.23c-.22-.53-.72-.89-1.3-.92v.49s.82.67.82.67Z"/>
                  <path id="Pfad_144" data-name="Pfad 144" class="cls-12" d="m178.25,167.22h.3l1.28-7.65.02-1.21-.69-.37-.8,1.02s-.14,8.24-.11,8.21"/>
                  <path id="Pfad_145" data-name="Pfad 145" class="cls-12" d="m178.29,163.31c-.03,2.15-.06,3.92-.04,3.91h.3l1.12-6.73c-.08.22-.86,2.83-1.38,2.83"/>
                  <path id="Pfad_146" data-name="Pfad 146" class="cls-12" d="m177.04,157.71c0-.7.58-1.26,1.28-1.25s1.26.58,1.25,1.28c0,.7-.58,1.26-1.28,1.25h0c-.7,0-1.26-.58-1.25-1.28h0"/>
                  <path id="Pfad_147" data-name="Pfad 147" class="cls-12" d="m178.29,156.74l.02-1.43-.33-.73-.97.44-.22.93v1.09s.65.35.65.35l.85-.65Z"/>
                  <path id="Pfad_148" data-name="Pfad 148" class="cls-18" d="m177.51,152.5c.13.08.22.21.27.35l.48,1.57c.04.12-.01.25-.12.32l-1.26.77c-.13.08-.29.04-.37-.08l-.2-.31c-.07-.11-.19-.18-.33-.19l-.44-.03c-.15,0-.28-.12-.31-.27l-.05-.22c-.02-.09,0-.18.05-.26l.08-.13c.21-.32.26-.72.12-1.07-1.61-3.47-1.88-7.41-.74-11.06.35,0,.64.28.64.63,0,.03,0,.06,0,.09-.04.9-.92,3.58-.33,6.54.52,2.59,1.23,2.88,2.09,2.64.05.13.09.25.14.37.05.14.15.25.27.33"/>
                  <path id="Pfad_149" data-name="Pfad 149" class="cls-30" d="m175.01,149.16c-.6-2.97.28-5.64.33-6.54.05-.35-.2-.67-.54-.71-.03,0-.06,0-.09,0,.09-.36.16-.58.17-.61.15-.52.7-.81,1.22-.66s.81.7.66,1.22c-.5,1.77-.76,3.6-.76,5.43.16,1.55.54,3.07,1.11,4.52-.86.24-1.57-.05-2.09-2.64"/>
                  <rect id="Rechteck_38" data-name="Rechteck 38" class="cls-12" x="177.57" y="159.77" width="1.84" height=".32" transform="translate(16.25 336.33) rotate(-89.26)"/>
                  <path id="Pfad_150" data-name="Pfad 150" class="cls-11" d="m186.21,144.68l-2.4.1.04.9.27,6.6s.24.63.4,1.06l-.2.8.23.51,1.72-.07.19-.52-.27-.78c.13-.44.31-1.08.32-1.09l-.31-7.5Z"/>
                  <path id="Pfad_151" data-name="Pfad 151" class="cls-28" d="m185.7,162.84h.07l.11-.26-.04-1.03h.06l-.1-2.57h.09l-.14-3.55h.06l-.02-.38h-.75s.02.41.02.41h.06l.14,3.55h.09l.1,2.57h.06l.04,1.03.13.23Z"/>
                  <rect id="Rechteck_39" data-name="Rechteck 39" class="cls-24" x="184.67" y="154.61" width="1.41" height=".5" transform="translate(-6.13 7.64) rotate(-2.32)"/>
                  <path id="Pfad_152" data-name="Pfad 152" class="cls-34" d="m184.08,144.01l1.8-.07c.17,0,.31.12.32.29l.02.47-2.4.1-.02-.47c0-.17.12-.31.29-.32"/>
                  <rect id="Rechteck_40" data-name="Rechteck 40" class="cls-24" x="184.97" y="144.74" width=".5" height="10.37" transform="translate(-5.9 7.6) rotate(-2.32)"/>
                  <path id="Pfad_153" data-name="Pfad 153" class="cls-24" d="m186.25,145.84h.31s.14,3.32.14,3.32c-.05-.06-.13-.06-.19-.01-.05.04-.06.11-.03.16l.26.5c.03.07.12.09.18.06.05-.02.07-.07.07-.12l-.17-4.06c0-.07-.07-.13-.14-.13l-.44.02v.27Z"/>
                  <path id="Pfad_154" data-name="Pfad 154" class="cls-24" d="m184.78,148.16h.02l.74.11c.06,0,.1.07.09.13,0,.06-.07.1-.13.09l-.74-.11c-.06,0-.11-.06-.1-.12,0-.06.05-.1.11-.1"/>
                  <path id="Pfad_155" data-name="Pfad 155" class="cls-24" d="m184.76,147.83h.02l.74.11c.06,0,.1.07.09.13,0,.06-.07.1-.13.09l-.74-.11c-.06,0-.11-.06-.1-.12,0-.06.05-.1.11-.1"/>
                  <path id="Pfad_156" data-name="Pfad 156" class="cls-24" d="m184.75,147.5h.02l.74.11c.06,0,.1.07.09.13,0,.06-.07.1-.13.09l-.74-.11c-.06,0-.11-.06-.1-.12,0-.06.05-.1.11-.1"/>
                  <path id="Pfad_157" data-name="Pfad 157" class="cls-24" d="m184.74,147.17h.02l.74.11c.06,0,.1.07.09.13,0,.06-.07.1-.13.09l-.74-.11c-.06,0-.11-.06-.1-.12,0-.06.05-.1.11-.1"/>
                  <path id="Pfad_158" data-name="Pfad 158" class="cls-24" d="m184.72,146.84h.02l.74.11c.06,0,.1.07.09.13,0,.06-.07.1-.13.09l-.74-.11c-.06,0-.11-.06-.1-.12,0-.06.05-.1.11-.1"/>
                  <path id="Pfad_159" data-name="Pfad 159" class="cls-24" d="m184.71,146.52h.02l.74.11c.06,0,.1.07.09.13,0,.06-.07.1-.13.09l-.74-.11c-.06,0-.11-.06-.1-.12,0-.06.05-.1.11-.1"/>
                  <path id="Pfad_160" data-name="Pfad 160" class="cls-24" d="m184.7,146.19h.02l.74.11c.06,0,.1.07.09.13,0,.06-.07.1-.13.09l-.74-.11c-.06,0-.11-.06-.1-.12,0-.06.05-.1.11-.1"/>
                  <path id="Pfad_161" data-name="Pfad 161" class="cls-24" d="m184.68,145.86h.02l.74.11c.06,0,.1.07.09.13,0,.06-.07.1-.13.09l-.74-.11c-.06,0-.11-.06-.1-.12,0-.06.05-.1.11-.1"/>
                  <path id="Pfad_162" data-name="Pfad 162" class="cls-24" d="m184.67,145.53h.02l.74.11c.06,0,.1.07.09.13,0,.06-.07.1-.13.09l-.74-.11c-.06,0-.11-.06-.1-.12,0-.06.05-.1.11-.1"/>
                  <path id="Pfad_163" data-name="Pfad 163" class="cls-31" d="m191.43,168.67l.16-.44-.57-13.99-.52.02.57,13.99.19.43h.17Z"/>
                  <rect id="Rechteck_41" data-name="Rechteck 41" class="cls-30" x="189.6" y="154.04" width="2.34" height=".73" transform="translate(-6.1 7.86) rotate(-2.32)"/>
                  <path id="Pfad_164" data-name="Pfad 164" class="cls-30" d="m188.73,147.99v.03c.03.84.88,3.33.91,4.29.02.58-.15,1.15-.5,1.61l.03.64,1.59-.06h.03l1.59-.06h0l-.03-.64c-.38-.43-.6-.99-.63-1.56-.04-.97.6-3.51.57-4.35,0-.06,0-.14-.02-.22l-.27-6.57c-.02-.51-.45-.91-.96-.89l-1.71.07c-.51.02-.91.45-.89.96l.27,6.77h0Z"/>
                  <path id="Pfad_165" data-name="Pfad 165" class="cls-18" d="m192.04,141.86l-.04-1.03c-.03-.68-.46-1.21-.98-1.18l-1.71.07c-.58.12-.97.67-.88,1.26l.04,1.03,3.56-.14Z"/>
                  <path id="Pfad_166" data-name="Pfad 166" class="cls-34" d="m170.41,151.77l-.3,16.47c.05,1.36,1.21,2.43,2.57,2.37.02,0,.03,0,.05,0,5.63.05,11.26-.21,16.86-.76,2.09-.17,3.74-1.83,3.9-3.92l-.11-15.65s-3.34.82-12.23,1.21c-4.96.22-10.72.29-10.72.29"/>
                  <path id="Pfad_167" data-name="Pfad 167" class="cls-1" d="m170.41,151.77s.5,0,1.33-.02c-.02,1.75-.05,3.49-.06,5.23-.03,3.75-.09,7.79,3.19,10.32,2.72,2.1,5.84,1.6,9.02,1.46,3.23-.02,6.44-.65,9.43-1.88-.55,1.63-2.01,2.79-3.73,2.96-5.6.55-11.23.81-16.86.76-1.36.08-2.53-.96-2.62-2.32,0-.02,0-.03,0-.05l.3-16.46Z"/>
                  <path id="Pfad_168" data-name="Pfad 168" class="cls-29" d="m193.36,151.98c.15-.02.25-.15.25-.3v-1.25c0-.18-.17-.32-.35-.32-.02,0-.04,0-.07.01-4.02.67-8.08,1.06-12.16,1.16-4.39.19-9.38.27-10.7.29-.18,0-.32.13-.33.31v1.22c0,.18.14.31.32.31,7.7.27,15.42-.21,23.03-1.43"/>
                </g>
              </g>
            </g>
          </g>
        </g>
      </g>
    </g>
  </g>
</svg>