<?xml version="1.0" encoding="UTF-8"?>
<svg id="Ebene_2" data-name="Ebene 2" xmlns="http://www.w3.org/2000/svg" viewBox="0 0 130.62 111.07">
  <defs>
    <style>
      .cls-1 {
        fill: #f7e81e;
      }

      .cls-2 {
        fill: #3db7ae;
      }

      .cls-3 {
        fill: #003e4e;
      }

      .cls-4 {
        fill: #c3e4e7;
      }
    </style>
  </defs>
  <g id="Ebene_1-2" data-name="Ebene 1">
    <g>
      <path class="cls-1" d="m60.37,0l-4.12,27.67,10.4-5.78-6.14,13.34,7.8,2.54-6.74,7.63s4.86,12.98,4.51,13l-1.14-12.15,10.31-10.48-8.44-4.64,8.31-18.52-11.1,4.5,5.14-16.09"/>
      <g>
        <g>
          <path class="cls-3" d="m.44,76.82c.94-.19,2.64-.34,4.3-.34,2.18,0,3.53.26,4.63,1.03,1.01.6,1.68,1.66,1.68,3.02,0,1.49-.94,2.86-2.69,3.5v.05c1.7.43,3.26,1.78,3.26,4.01,0,1.44-.62,2.57-1.56,3.34-1.15,1.01-3.05,1.51-6,1.51-1.63,0-2.88-.12-3.62-.22v-15.91Zm2.93,6.38h1.51c2.04,0,3.19-.96,3.19-2.33,0-1.51-1.15-2.21-3.02-2.21-.86,0-1.37.05-1.68.12v4.42Zm0,7.44c.38.05.89.07,1.56.07,1.9,0,3.58-.72,3.58-2.71,0-1.87-1.63-2.64-3.67-2.64h-1.46v5.28Z"/>
          <path class="cls-3" d="m14.27,76.61h2.95v13.71h6.65v2.47h-9.6v-16.18Z"/>
          <path class="cls-3" d="m29.05,76.61v16.18h-2.95v-16.18h2.95Z"/>
          <path class="cls-3" d="m35.53,79.08h-4.61v-2.47h12.22v2.47h-4.66v13.71h-2.95v-13.71Z"/>
          <path class="cls-3" d="m43.95,91.15l8.28-12.03v-.07h-7.54v-2.45h11.38v1.73l-8.16,11.91v.1h8.28v2.45h-12.24v-1.63Z"/>
          <path class="cls-3" d="m58.62,76.82c.94-.19,2.64-.34,4.3-.34,2.18,0,3.53.26,4.63,1.03,1.01.6,1.68,1.66,1.68,3.02,0,1.49-.94,2.86-2.69,3.5v.05c1.7.43,3.26,1.78,3.26,4.01,0,1.44-.62,2.57-1.56,3.34-1.15,1.01-3.05,1.51-6,1.51-1.63,0-2.88-.12-3.62-.22v-15.91Zm2.93,6.38h1.51c2.04,0,3.19-.96,3.19-2.33,0-1.51-1.15-2.21-3.02-2.21-.86,0-1.37.05-1.68.12v4.42Zm0,7.44c.38.05.89.07,1.56.07,1.9,0,3.58-.72,3.58-2.71,0-1.87-1.63-2.64-3.67-2.64h-1.46v5.28Z"/>
          <path class="cls-3" d="m72.44,76.61h2.95v13.71h6.65v2.47h-9.6v-16.18Z"/>
          <path class="cls-3" d="m86.41,76.61v9.43c0,3.17,1.32,4.63,3.31,4.63,2.14,0,3.41-1.46,3.41-4.63v-9.43h2.95v9.24c0,4.99-2.57,7.2-6.46,7.2s-6.17-2.09-6.17-7.18v-9.26h2.95Z"/>
          <path class="cls-3" d="m113.12,86.18c-.1-2.09-.22-4.61-.19-6.79h-.07c-.53,1.97-1.2,4.15-1.92,6.19l-2.35,7.01h-2.28l-2.16-6.91c-.62-2.06-1.2-4.27-1.63-6.29h-.05c-.07,2.11-.17,4.68-.29,6.89l-.36,6.5h-2.76l1.08-16.18h3.89l2.11,6.5c.58,1.9,1.08,3.82,1.49,5.62h.07c.43-1.75.98-3.74,1.61-5.64l2.23-6.48h3.84l.94,16.18h-2.88l-.31-6.6Z"/>
          <path class="cls-3" d="m128.36,85.61h-6.1v4.75h6.82v2.42h-9.77v-16.18h9.41v2.42h-6.46v4.18h6.1v2.4Z"/>
        </g>
        <g>
          <path class="cls-2" d="m0,97.78c.63-.14,1.52-.22,2.23-.22,1.35,0,2.2.29,2.8.86.45.43.72,1.12.72,1.85,0,1.4-.83,2.29-2.03,2.71v.03c.83.26,1.35,1.05,1.6,2.2.35,1.62.55,2.39.77,2.8h-.77c-.15-.31-.38-1.22-.66-2.53-.31-1.49-.96-2.17-2.33-2.23H.72v4.76h-.72v-10.24Zm.72,4.88h1.65c1.6,0,2.65-.89,2.65-2.26,0-1.59-1.17-2.23-2.8-2.23-.71,0-1.23.08-1.49.14v4.36Z"/>
          <path class="cls-2" d="m7.95,104.25c0,2.37,1.29,3.29,2.82,3.29,1.08,0,1.63-.21,2.05-.42l.18.58c-.28.15-1.03.46-2.32.46-2.12,0-3.45-1.54-3.45-3.71,0-2.46,1.42-4,3.33-4,2.42,0,2.88,2.28,2.88,3.34,0,.2,0,.32-.03.45h-5.45Zm4.71-.58c.01-1.03-.42-2.6-2.2-2.6-1.63,0-2.34,1.46-2.46,2.6h4.67Z"/>
          <path class="cls-2" d="m15.31,102.98c0-.92-.03-1.66-.06-2.36h.69l.06,1.4h.03c.52-.99,1.43-1.57,2.73-1.57,1.89,0,3.17,1.57,3.17,3.74,0,2.65-1.57,3.99-3.36,3.99-1.06,0-2-.48-2.51-1.37h-.03v4.25h-.72v-8.08Zm.72,2.12c0,.2.03.4.06.58.31,1.14,1.29,1.88,2.43,1.88,1.69,0,2.66-1.37,2.66-3.34,0-1.66-.92-3.17-2.6-3.17-1.08,0-2.12.75-2.45,1.97-.05.2-.11.43-.11.63v1.45Z"/>
          <path class="cls-2" d="m27.84,108.02l-.11-1.06h-.05c-.35.57-1.17,1.23-2.36,1.23-1.48,0-2.17-1.05-2.17-2.03,0-1.71,1.51-2.74,4.51-2.71v-.19c0-.74-.14-2.2-1.89-2.19-.65,0-1.32.17-1.85.55l-.23-.54c.66-.45,1.49-.63,2.16-.63,2.14,0,2.54,1.6,2.54,2.93v2.88c0,.58.03,1.19.11,1.75h-.66Zm-.17-3.96c-1.62-.05-3.74.2-3.74,1.97,0,1.06.71,1.54,1.48,1.54,1.23,0,1.92-.75,2.19-1.48.05-.15.08-.31.08-.45v-1.59Z"/>
          <path class="cls-2" d="m30.8,102.85c0-.74-.03-1.51-.06-2.22h.68l.03,1.49h.03c.32-.92,1.09-1.66,2.11-1.66.09,0,.2.02.29.03v.71c-.11-.03-.22-.03-.35-.03-1.02,0-1.74.88-1.94,2.06-.03.22-.06.46-.06.71v4.08h-.72v-5.17Z"/>
          <path class="cls-2" d="m36.4,98.52c0,.34-.23.63-.62.63-.34,0-.57-.29-.57-.63s.26-.65.6-.65c.35,0,.58.29.58.65Zm-.95,9.5v-7.39h.72v7.39h-.72Z"/>
          <path class="cls-2" d="m38.78,104.25c0,2.37,1.29,3.29,2.82,3.29,1.08,0,1.63-.21,2.05-.42l.18.58c-.28.15-1.03.46-2.32.46-2.12,0-3.45-1.54-3.45-3.71,0-2.46,1.42-4,3.33-4,2.42,0,2.88,2.28,2.88,3.34,0,.2,0,.32-.03.45h-5.45Zm4.71-.58c.01-1.03-.42-2.6-2.2-2.6-1.63,0-2.34,1.46-2.46,2.6h4.67Z"/>
          <path class="cls-2" d="m46.14,102.85c0-.74-.03-1.51-.06-2.22h.68l.03,1.49h.03c.32-.92,1.09-1.66,2.11-1.66.09,0,.2.02.29.03v.71c-.11-.03-.22-.03-.35-.03-1.02,0-1.74.88-1.94,2.06-.03.22-.06.46-.06.71v4.08h-.72v-5.17Z"/>
          <path class="cls-2" d="m50.62,104.25c0,2.37,1.29,3.29,2.82,3.29,1.08,0,1.63-.21,2.05-.42l.19.58c-.28.15-1.03.46-2.33.46-2.12,0-3.45-1.54-3.45-3.71,0-2.46,1.42-4,3.33-4,2.42,0,2.88,2.28,2.88,3.34,0,.2,0,.32-.03.45h-5.45Zm4.71-.58c.01-1.03-.42-2.6-2.2-2.6-1.63,0-2.34,1.46-2.46,2.6h4.67Z"/>
          <path class="cls-2" d="m57.98,102.4c0-.68-.03-1.19-.06-1.77h.68l.06,1.34h.03c.4-.83,1.32-1.51,2.54-1.51.71,0,2.57.35,2.57,3.13v4.43h-.72v-4.37c0-1.34-.52-2.56-2.05-2.56-1.05,0-1.92.74-2.22,1.69-.06.18-.11.43-.11.66v4.57h-.72v-5.62Z"/>
          <path class="cls-2" d="m69.61,97.09h.72v10.93h-.72v-10.93Z"/>
          <path class="cls-2" d="m79.18,104.25c0,2.77-1.89,3.94-3.54,3.94-1.91,0-3.39-1.49-3.39-3.8,0-2.54,1.66-3.93,3.5-3.93,2.05,0,3.43,1.52,3.43,3.79Zm-6.19.09c0,1.85,1.19,3.23,2.69,3.23s2.76-1.39,2.76-3.28c0-1.36-.77-3.23-2.71-3.23s-2.74,1.69-2.74,3.28Z"/>
          <path class="cls-2" d="m81.06,97.09h.72v4.87h.03c.21-.42.57-.82,1.02-1.08.42-.26.92-.42,1.49-.42.69,0,2.56.35,2.56,3.09v4.46h-.72v-4.37c0-1.34-.52-2.56-2.03-2.56-1.05,0-1.92.75-2.23,1.68-.08.22-.11.43-.11.72v4.53h-.72v-10.93Z"/>
          <path class="cls-2" d="m89.32,102.4c0-.68-.03-1.19-.06-1.77h.68l.06,1.34h.03c.4-.83,1.32-1.51,2.54-1.51.71,0,2.57.35,2.57,3.13v4.43h-.72v-4.37c0-1.34-.52-2.56-2.05-2.56-1.05,0-1.92.74-2.22,1.69-.06.18-.11.43-.11.66v4.57h-.72v-5.62Z"/>
          <path class="cls-2" d="m98.59,98.49v2.14h2.11v.59h-2.11v4.8c0,.94.29,1.54,1.08,1.54.38,0,.66-.06.85-.12l.09.57c-.25.09-.58.17-1.03.17-.54,0-.99-.17-1.26-.52-.34-.39-.46-1-.46-1.76v-4.68h-1.25v-.59h1.25v-1.91l.74-.23Z"/>
          <path class="cls-2" d="m105.39,107.05c.4.25,1,.51,1.66.51,1.17,0,1.72-.63,1.72-1.4,0-.82-.49-1.25-1.55-1.68-1.22-.46-1.88-1.12-1.88-2.02,0-1.06.83-2,2.28-2,.68,0,1.25.2,1.63.46l-.29.6c-.25-.18-.72-.45-1.46-.45-.94,0-1.43.6-1.43,1.28,0,.77.52,1.11,1.52,1.52,1.2.46,1.91,1.06,1.91,2.19,0,1.26-.99,2.11-2.49,2.11-.72,0-1.39-.2-1.88-.51l.26-.62Z"/>
          <path class="cls-2" d="m112.4,98.52c0,.34-.23.63-.62.63-.34,0-.57-.29-.57-.63s.26-.65.6-.65c.35,0,.58.29.58.65Zm-.95,9.5v-7.39h.72v7.39h-.72Z"/>
          <path class="cls-2" d="m119.76,107.69c-.32.17-1.09.48-2.16.48-2.14,0-3.56-1.54-3.56-3.77s1.6-3.94,3.82-3.94c.91,0,1.65.26,1.94.46l-.26.6c-.37-.2-.94-.43-1.76-.43-1.99,0-3,1.52-3,3.26,0,1.92,1.22,3.19,2.93,3.19.88,0,1.45-.25,1.85-.42l.2.57Z"/>
          <path class="cls-2" d="m121.53,97.09h.72v4.87h.03c.21-.42.57-.82,1.02-1.08.42-.26.92-.42,1.49-.42.69,0,2.56.35,2.56,3.09v4.46h-.72v-4.37c0-1.34-.52-2.56-2.03-2.56-1.05,0-1.92.75-2.23,1.68-.08.22-.11.43-.11.72v4.53h-.72v-10.93Z"/>
          <path class="cls-2" d="m129.37,107.49c0-.4.26-.69.63-.69s.62.29.62.69c0,.37-.25.69-.63.69s-.63-.32-.62-.69Z"/>
        </g>
      </g>
      <path class="cls-4" d="m67.9,6.16l-3.29,10.3,11.23-4.55-8.55,19.06,8.57,4.71-10.54,10.71,1.4,14.93-1-2.79c-.05-.15-4.33-12.48-4.51-13l-.07-.21,6.51-7.37-7.66-2.49,5.84-12.68-10.06,5.59,3.21-21.58c-14.59,3.11-25.53,16.07-25.53,31.59,0,17.84,14.46,32.3,32.3,32.3s32.3-14.46,32.3-32.3-13.32-31.12-30.15-32.22Z"/>
      <path class="cls-3" d="m42.43,38.42s.71,22.19,20.09,28.01c0,0-.84-22.43-20.09-28.01Z"/>
      <path class="cls-3" d="m89.07,38.42s-.71,22.19-20.09,28.01c0,0,.84-22.43,20.09-28.01Z"/>
    </g>
  </g>
</svg>