<?xml version="1.0" encoding="UTF-8"?>
<svg id="Ebene_2" data-name="Ebene 2" xmlns="http://www.w3.org/2000/svg" viewBox="0 0 31.48 31.48">
  <defs>
    <style>
      .cls-1 {
        fill: #103d4c;
      }
    </style>
  </defs>
  <g id="Ebene_1-2" data-name="Ebene 1">
    <g id="Twitter">
      <g id="Ellipse_9" data-name="Ellipse 9">
        <path class="cls-1" d="m15.74,31.48C7.06,31.48,0,24.42,0,15.74S7.06,0,15.74,0s15.74,7.06,15.74,15.74-7.06,15.74-15.74,15.74Zm0-28.81c-7.21,0-13.07,5.86-13.07,13.07s5.86,13.07,13.07,13.07,13.07-5.86,13.07-13.07S22.95,2.67,15.74,2.67Z"/>
      </g>
      <path id="Pfad_207" data-name="Pfad 207" class="cls-1" d="m24.71,8.58c-.76.44-1.6.74-2.46.9-.73-.78-1.74-1.22-2.81-1.23-2.1-.05-3.85,1.61-3.9,3.71,0,.31.02.62.09.92-3.09-.18-5.97-1.65-7.92-4.06-.35.57-.54,1.23-.55,1.91-.01,1.28.62,2.47,1.69,3.18-.61-.03-1.21-.2-1.74-.5v.05c0,1.82,1.27,3.4,3.06,3.76-.33.09-.68.13-1.02.12-.24,0-.49-.03-.72-.07.5,1.56,1.94,2.64,3.58,2.68-1.39,1.04-3.08,1.6-4.82,1.58-.31,0-.62-.02-.92-.06,1.76,1.14,3.81,1.75,5.9,1.77,5.98.16,10.95-4.56,11.11-10.54,0-.05,0-.11,0-.16,0-.16,0-.33,0-.49.76-.53,1.42-1.19,1.95-1.95-.71.3-1.46.49-2.23.57.81-.46,1.42-1.2,1.72-2.09"/>
    </g>
  </g>
</svg>